<svg width="479" height="64" viewBox="0 0 479 64" fill="none" xmlns="http://www.w3.org/2000/svg">
<rect x="1" y="0.5" width="477" height="63" rx="14.5" fill="white"/>
<rect x="1" y="0.5" width="477" height="63" rx="14.5" stroke="#42526B"/>
<path d="M118.5 31.5C118.5 39.228 112.235 45.5 104.5 45.5C96.765 45.5 90.5 39.228 90.5 31.5C90.5 23.765 96.765 17.5 104.5 17.5C112.235 17.5 118.5 23.765 118.5 31.5Z" fill="#333333"/>
<path d="M111.062 27.9574C110.986 28.002 109.167 28.9425 109.167 31.0279C109.253 33.4061 111.462 34.2401 111.5 34.2401C111.462 34.2847 111.166 35.3763 110.291 36.5205C109.596 37.5062 108.824 38.5 107.653 38.5C106.538 38.5 106.138 37.8431 104.853 37.8431C103.472 37.8431 103.081 38.5 102.024 38.5C100.853 38.5 100.024 37.453 99.2913 36.4766C98.3391 35.1986 97.5298 33.1931 97.5012 31.2675C97.482 30.2471 97.6919 29.244 98.2248 28.3921C98.977 27.2026 100.32 26.3952 101.786 26.3686C102.91 26.3333 103.91 27.0875 104.596 27.0875C105.253 27.0875 106.481 26.3686 107.871 26.3686C108.471 26.3692 110.071 26.5376 111.062 27.9574ZM104.501 26.1649C104.301 25.233 104.853 24.3012 105.367 23.7068C106.024 22.9879 107.062 22.5 107.957 22.5C108.014 23.4318 107.652 24.3458 107.005 25.0114C106.424 25.7302 105.424 26.2714 104.501 26.1649Z" fill="white"/>
<path d="M169.466 28H167.705C167.6 27.4934 167.418 27.0483 167.158 26.6648C166.902 26.2812 166.589 25.9593 166.22 25.6989C165.856 25.4337 165.451 25.2348 165.006 25.1023C164.561 24.9697 164.097 24.9034 163.614 24.9034C162.733 24.9034 161.935 25.1259 161.22 25.571C160.51 26.0161 159.944 26.6719 159.523 27.5384C159.106 28.4048 158.898 29.4678 158.898 30.7273C158.898 31.9867 159.106 33.0497 159.523 33.9162C159.944 34.7827 160.51 35.4384 161.22 35.8835C161.935 36.3286 162.733 36.5511 163.614 36.5511C164.097 36.5511 164.561 36.4848 165.006 36.3523C165.451 36.2197 165.856 36.0232 166.22 35.7628C166.589 35.4976 166.902 35.1733 167.158 34.7898C167.418 34.4015 167.6 33.9564 167.705 33.4545H169.466C169.333 34.1979 169.092 34.8632 168.741 35.4503C168.391 36.0374 167.955 36.5369 167.435 36.9489C166.914 37.3561 166.329 37.6662 165.68 37.8793C165.036 38.0923 164.348 38.1989 163.614 38.1989C162.373 38.1989 161.27 37.8958 160.304 37.2898C159.338 36.6837 158.578 35.822 158.024 34.7045C157.47 33.5871 157.193 32.2614 157.193 30.7273C157.193 29.1932 157.47 27.8674 158.024 26.75C158.578 25.6326 159.338 24.7708 160.304 24.1648C161.27 23.5587 162.373 23.2557 163.614 23.2557C164.348 23.2557 165.036 23.3622 165.68 23.5753C166.329 23.7884 166.914 24.1009 167.435 24.5128C167.955 24.92 168.391 25.4171 168.741 26.0043C169.092 26.5866 169.333 27.2519 169.466 28ZM176.517 38.2273C175.532 38.2273 174.668 37.9929 173.924 37.5241C173.186 37.0554 172.608 36.3996 172.191 35.5568C171.779 34.714 171.574 33.7292 171.574 32.6023C171.574 31.4659 171.779 30.474 172.191 29.6264C172.608 28.7789 173.186 28.1207 173.924 27.652C174.668 27.1832 175.532 26.9489 176.517 26.9489C177.502 26.9489 178.363 27.1832 179.102 27.652C179.845 28.1207 180.423 28.7789 180.835 29.6264C181.252 30.474 181.46 31.4659 181.46 32.6023C181.46 33.7292 181.252 34.714 180.835 35.5568C180.423 36.3996 179.845 37.0554 179.102 37.5241C178.363 37.9929 177.502 38.2273 176.517 38.2273ZM176.517 36.7216C177.265 36.7216 177.88 36.5298 178.363 36.1463C178.846 35.7628 179.204 35.2585 179.436 34.6335C179.668 34.0085 179.784 33.3314 179.784 32.6023C179.784 31.8731 179.668 31.1937 179.436 30.5639C179.204 29.9342 178.846 29.4252 178.363 29.0369C177.88 28.6487 177.265 28.4545 176.517 28.4545C175.769 28.4545 175.153 28.6487 174.67 29.0369C174.187 29.4252 173.83 29.9342 173.598 30.5639C173.366 31.1937 173.25 31.8731 173.25 32.6023C173.25 33.3314 173.366 34.0085 173.598 34.6335C173.83 35.2585 174.187 35.7628 174.67 36.1463C175.153 36.5298 175.769 36.7216 176.517 36.7216ZM185.695 31.4375V38H184.018V27.0909H185.638V28.7955H185.78C186.036 28.2415 186.424 27.7964 186.945 27.4602C187.465 27.1193 188.138 26.9489 188.962 26.9489C189.7 26.9489 190.347 27.1004 190.901 27.4034C191.455 27.7017 191.885 28.1562 192.193 28.767C192.501 29.3731 192.655 30.1402 192.655 31.0682V38H190.979V31.1818C190.979 30.3248 190.756 29.6572 190.311 29.179C189.866 28.696 189.255 28.4545 188.479 28.4545C187.944 28.4545 187.465 28.5705 187.044 28.8026C186.627 29.0346 186.298 29.3731 186.057 29.8182C185.815 30.2633 185.695 30.803 185.695 31.4375ZM200.462 27.0909V28.5114H194.809V27.0909H200.462ZM196.456 24.4773H198.132V34.875C198.132 35.3485 198.201 35.7036 198.338 35.9403C198.48 36.1723 198.66 36.3286 198.878 36.4091C199.101 36.4848 199.335 36.5227 199.581 36.5227C199.766 36.5227 199.917 36.5133 200.036 36.4943C200.154 36.4706 200.249 36.4517 200.32 36.4375L200.661 37.9432C200.547 37.9858 200.389 38.0284 200.185 38.071C199.981 38.1184 199.723 38.142 199.411 38.142C198.937 38.142 198.473 38.0402 198.019 37.8366C197.569 37.633 197.195 37.3229 196.897 36.9062C196.603 36.4896 196.456 35.964 196.456 35.3295V24.4773ZM202.983 38V27.0909H204.659V38H202.983ZM203.836 25.2727C203.509 25.2727 203.227 25.1615 202.99 24.9389C202.758 24.7164 202.642 24.4489 202.642 24.1364C202.642 23.8239 202.758 23.5563 202.99 23.3338C203.227 23.1113 203.509 23 203.836 23C204.162 23 204.442 23.1113 204.674 23.3338C204.91 23.5563 205.029 23.8239 205.029 24.1364C205.029 24.4489 204.91 24.7164 204.674 24.9389C204.442 25.1615 204.162 25.2727 203.836 25.2727ZM209.406 31.4375V38H207.729V27.0909H209.349V28.7955H209.491C209.746 28.2415 210.135 27.7964 210.656 27.4602C211.176 27.1193 211.849 26.9489 212.673 26.9489C213.411 26.9489 214.058 27.1004 214.612 27.4034C215.165 27.7017 215.596 28.1562 215.904 28.767C216.212 29.3731 216.366 30.1402 216.366 31.0682V38H214.69V31.1818C214.69 30.3248 214.467 29.6572 214.022 29.179C213.577 28.696 212.966 28.4545 212.19 28.4545C211.655 28.4545 211.176 28.5705 210.755 28.8026C210.338 29.0346 210.009 29.3731 209.768 29.8182C209.526 30.2633 209.406 30.803 209.406 31.4375ZM226.304 33.5398V27.0909H227.98V38H226.304V36.1534H226.19C225.934 36.7074 225.537 37.1785 224.997 37.5668C224.457 37.9503 223.775 38.142 222.951 38.142C222.27 38.142 221.663 37.9929 221.133 37.6946C220.603 37.3916 220.186 36.937 219.883 36.331C219.58 35.7202 219.429 34.9508 219.429 34.0227V27.0909H221.105V33.9091C221.105 34.7045 221.327 35.339 221.772 35.8125C222.222 36.286 222.795 36.5227 223.491 36.5227C223.908 36.5227 224.332 36.4162 224.762 36.2031C225.198 35.9901 225.563 35.6634 225.856 35.223C226.154 34.7827 226.304 34.2216 226.304 33.5398ZM235.624 38.2273C234.572 38.2273 233.666 37.9953 232.903 37.5312C232.146 37.0625 231.561 36.4091 231.149 35.571C230.742 34.7282 230.538 33.7481 230.538 32.6307C230.538 31.5133 230.742 30.5284 231.149 29.6761C231.561 28.8191 232.134 28.1515 232.868 27.6733C233.607 27.1903 234.468 26.9489 235.453 26.9489C236.021 26.9489 236.582 27.0436 237.136 27.233C237.69 27.4223 238.195 27.7301 238.649 28.1562C239.104 28.5777 239.466 29.1364 239.736 29.8324C240.006 30.5284 240.141 31.3854 240.141 32.4034V33.1136H231.732V31.6648H238.436C238.436 31.0492 238.313 30.5 238.067 30.017C237.825 29.5341 237.48 29.1529 237.03 28.8736C236.585 28.5942 236.059 28.4545 235.453 28.4545C234.786 28.4545 234.208 28.6203 233.72 28.9517C233.237 29.2784 232.866 29.7045 232.605 30.2301C232.345 30.7557 232.214 31.3191 232.214 31.9205V32.8864C232.214 33.7102 232.357 34.4086 232.641 34.9815C232.929 35.5497 233.33 35.983 233.841 36.2812C234.352 36.5748 234.946 36.7216 235.624 36.7216C236.064 36.7216 236.462 36.66 236.817 36.5369C237.177 36.4091 237.487 36.2197 237.747 35.9688C238.008 35.7131 238.209 35.3958 238.351 35.017L239.97 35.4716C239.8 36.0208 239.513 36.5038 239.111 36.9205C238.708 37.3324 238.211 37.6544 237.619 37.8864C237.027 38.1136 236.362 38.2273 235.624 38.2273ZM250.787 38L247.463 27.0909H249.224L251.582 35.4432H251.696L254.026 27.0909H255.815L258.116 35.4148H258.23L260.588 27.0909H262.349L259.026 38H257.378L254.991 29.6193H254.821L252.435 38H250.787ZM264.565 38V27.0909H266.241V38H264.565ZM265.418 25.2727C265.091 25.2727 264.809 25.1615 264.572 24.9389C264.34 24.7164 264.224 24.4489 264.224 24.1364C264.224 23.8239 264.34 23.5563 264.572 23.3338C264.809 23.1113 265.091 23 265.418 23C265.744 23 266.024 23.1113 266.256 23.3338C266.492 23.5563 266.611 23.8239 266.611 24.1364C266.611 24.4489 266.492 24.7164 266.256 24.9389C266.024 25.1615 265.744 25.2727 265.418 25.2727ZM274.056 27.0909V28.5114H268.402V27.0909H274.056ZM270.05 24.4773H271.726V34.875C271.726 35.3485 271.795 35.7036 271.932 35.9403C272.074 36.1723 272.254 36.3286 272.472 36.4091C272.694 36.4848 272.929 36.5227 273.175 36.5227C273.36 36.5227 273.511 36.5133 273.63 36.4943C273.748 36.4706 273.843 36.4517 273.914 36.4375L274.255 37.9432C274.141 37.9858 273.982 38.0284 273.779 38.071C273.575 38.1184 273.317 38.142 273.005 38.142C272.531 38.142 272.067 38.0402 271.613 37.8366C271.163 37.633 270.789 37.3229 270.49 36.9062C270.197 36.4896 270.05 35.964 270.05 35.3295V24.4773ZM278.488 31.4375V38H276.811V23.4545H278.488V28.7955H278.63C278.885 28.232 279.269 27.7846 279.78 27.4531C280.296 27.117 280.983 26.9489 281.84 26.9489C282.583 26.9489 283.234 27.098 283.793 27.3963C284.352 27.6899 284.785 28.142 285.093 28.7528C285.405 29.3589 285.561 30.1307 285.561 31.0682V38H283.885V31.1818C283.885 30.3153 283.66 29.6454 283.211 29.1719C282.766 28.6937 282.148 28.4545 281.357 28.4545C280.808 28.4545 280.315 28.5705 279.88 28.8026C279.449 29.0346 279.108 29.3731 278.857 29.8182C278.611 30.2633 278.488 30.803 278.488 31.4375ZM295.077 38H293.23L298.571 23.4545H300.389L305.73 38H303.884L299.537 25.7557H299.423L295.077 38ZM295.759 32.3182H303.202V33.8807H295.759V32.3182ZM307.768 42.0909V27.0909H309.388V28.8239H309.587C309.71 28.6345 309.88 28.393 310.098 28.0994C310.321 27.8011 310.638 27.536 311.05 27.304C311.466 27.0672 312.03 26.9489 312.74 26.9489C313.659 26.9489 314.468 27.1785 315.169 27.6378C315.87 28.0971 316.417 28.7481 316.81 29.5909C317.203 30.4337 317.399 31.428 317.399 32.5739C317.399 33.7292 317.203 34.7306 316.81 35.5781C316.417 36.4209 315.872 37.0743 315.176 37.5384C314.48 37.9976 313.678 38.2273 312.768 38.2273C312.068 38.2273 311.507 38.1113 311.085 37.8793C310.664 37.6425 310.339 37.375 310.112 37.0767C309.885 36.7737 309.71 36.5227 309.587 36.3239H309.445V42.0909H307.768ZM309.416 32.5455C309.416 33.3693 309.537 34.0961 309.778 34.7259C310.02 35.3509 310.373 35.8409 310.837 36.196C311.301 36.5464 311.869 36.7216 312.541 36.7216C313.242 36.7216 313.827 36.5369 314.295 36.1676C314.769 35.7936 315.124 35.2917 315.361 34.6619C315.602 34.0275 315.723 33.322 315.723 32.5455C315.723 31.7784 315.605 31.0871 315.368 30.4716C315.136 29.8513 314.783 29.3613 314.31 29.0014C313.841 28.6368 313.251 28.4545 312.541 28.4545C311.859 28.4545 311.286 28.6274 310.822 28.973C310.358 29.3139 310.008 29.7921 309.771 30.4077C309.535 31.0185 309.416 31.7311 309.416 32.5455ZM319.956 42.0909V27.0909H321.575V28.8239H321.774C321.897 28.6345 322.068 28.393 322.286 28.0994C322.508 27.8011 322.825 27.536 323.237 27.304C323.654 27.0672 324.217 26.9489 324.928 26.9489C325.846 26.9489 326.656 27.1785 327.357 27.6378C328.057 28.0971 328.604 28.7481 328.997 29.5909C329.39 30.4337 329.587 31.428 329.587 32.5739C329.587 33.7292 329.39 34.7306 328.997 35.5781C328.604 36.4209 328.06 37.0743 327.364 37.5384C326.668 37.9976 325.865 38.2273 324.956 38.2273C324.255 38.2273 323.694 38.1113 323.273 37.8793C322.851 37.6425 322.527 37.375 322.3 37.0767C322.072 36.7737 321.897 36.5227 321.774 36.3239H321.632V42.0909H319.956ZM321.604 32.5455C321.604 33.3693 321.724 34.0961 321.966 34.7259C322.207 35.3509 322.56 35.8409 323.024 36.196C323.488 36.5464 324.056 36.7216 324.729 36.7216C325.429 36.7216 326.014 36.5369 326.483 36.1676C326.956 35.7936 327.312 35.2917 327.548 34.6619C327.79 34.0275 327.911 33.322 327.911 32.5455C327.911 31.7784 327.792 31.0871 327.555 30.4716C327.323 29.8513 326.971 29.3613 326.497 29.0014C326.028 28.6368 325.439 28.4545 324.729 28.4545C324.047 28.4545 323.474 28.6274 323.01 28.973C322.546 29.3139 322.196 29.7921 321.959 30.4077C321.722 31.0185 321.604 31.7311 321.604 32.5455ZM333.82 23.4545V38H332.143V23.4545H333.82ZM341.463 38.2273C340.412 38.2273 339.506 37.9953 338.743 37.5312C337.986 37.0625 337.401 36.4091 336.989 35.571C336.582 34.7282 336.378 33.7481 336.378 32.6307C336.378 31.5133 336.582 30.5284 336.989 29.6761C337.401 28.8191 337.974 28.1515 338.708 27.6733C339.446 27.1903 340.308 26.9489 341.293 26.9489C341.861 26.9489 342.422 27.0436 342.976 27.233C343.53 27.4223 344.034 27.7301 344.489 28.1562C344.944 28.5777 345.306 29.1364 345.576 29.8324C345.846 30.5284 345.98 31.3854 345.98 32.4034V33.1136H337.571V31.6648H344.276C344.276 31.0492 344.153 30.5 343.907 30.017C343.665 29.5341 343.319 29.1529 342.87 28.8736C342.425 28.5942 341.899 28.4545 341.293 28.4545C340.625 28.4545 340.048 28.6203 339.56 28.9517C339.077 29.2784 338.705 29.7045 338.445 30.2301C338.185 30.7557 338.054 31.3191 338.054 31.9205V32.8864C338.054 33.7102 338.196 34.4086 338.48 34.9815C338.769 35.5497 339.169 35.983 339.681 36.2812C340.192 36.5748 340.786 36.7216 341.463 36.7216C341.904 36.7216 342.301 36.66 342.657 36.5369C343.016 36.4091 343.327 36.2197 343.587 35.9688C343.847 35.7131 344.049 35.3958 344.191 35.017L345.81 35.4716C345.64 36.0208 345.353 36.5038 344.951 36.9205C344.548 37.3324 344.051 37.6544 343.459 37.8864C342.867 38.1136 342.202 38.2273 341.463 38.2273Z" fill="#333333"/>
</svg>
