<svg width="479" height="64" viewBox="0 0 479 64" fill="none" xmlns="http://www.w3.org/2000/svg">
<rect x="1" y="0.5" width="477" height="63" rx="14.5" fill="white"/>
<rect x="1" y="0.5" width="477" height="63" rx="14.5" stroke="#42526B"/>
<path d="M131.501 31.2336C131.501 30.3702 131.429 29.7402 131.274 29.0869H121.215V32.9835H127.12C127.001 33.9519 126.358 35.4102 124.929 36.3902L124.909 36.5206L128.09 38.9354L128.31 38.9569C130.334 37.1252 131.501 34.4302 131.501 31.2336Z" fill="#4285F4"/>
<path d="M121.214 41.4996C124.107 41.4996 126.535 40.5662 128.309 38.9562L124.928 36.3895C124.023 37.0078 122.809 37.4395 121.214 37.4395C118.381 37.4395 115.976 35.6079 115.119 33.0762L114.993 33.0866L111.686 35.595L111.643 35.7128C113.404 39.1428 117.023 41.4996 121.214 41.4996Z" fill="#34A853"/>
<path d="M115.121 33.0765C114.895 32.4232 114.764 31.7231 114.764 30.9998C114.764 30.2764 114.895 29.5765 115.109 28.9231L115.103 28.784L111.754 26.2354L111.645 26.2864C110.919 27.7098 110.502 29.3081 110.502 30.9998C110.502 32.6915 110.919 34.2897 111.645 35.7131L115.121 33.0765Z" fill="#FBBC05"/>
<path d="M121.214 24.56C123.226 24.56 124.583 25.4116 125.357 26.1233L128.381 23.23C126.524 21.5383 124.107 20.5 121.214 20.5C117.024 20.5 113.404 22.8566 111.643 26.2866L115.107 28.9233C115.976 26.3917 118.381 24.56 121.214 24.56Z" fill="#EB4335"/>
<path d="M178.466 28H176.705C176.6 27.4934 176.418 27.0483 176.158 26.6648C175.902 26.2812 175.589 25.9593 175.22 25.6989C174.856 25.4337 174.451 25.2348 174.006 25.1023C173.561 24.9697 173.097 24.9034 172.614 24.9034C171.733 24.9034 170.935 25.1259 170.22 25.571C169.51 26.0161 168.944 26.6719 168.523 27.5384C168.106 28.4048 167.898 29.4678 167.898 30.7273C167.898 31.9867 168.106 33.0497 168.523 33.9162C168.944 34.7827 169.51 35.4384 170.22 35.8835C170.935 36.3286 171.733 36.5511 172.614 36.5511C173.097 36.5511 173.561 36.4848 174.006 36.3523C174.451 36.2197 174.856 36.0232 175.22 35.7628C175.589 35.4976 175.902 35.1733 176.158 34.7898C176.418 34.4015 176.6 33.9564 176.705 33.4545H178.466C178.333 34.1979 178.092 34.8632 177.741 35.4503C177.391 36.0374 176.955 36.5369 176.435 36.9489C175.914 37.3561 175.329 37.6662 174.68 37.8793C174.036 38.0923 173.348 38.1989 172.614 38.1989C171.373 38.1989 170.27 37.8958 169.304 37.2898C168.338 36.6837 167.578 35.822 167.024 34.7045C166.47 33.5871 166.193 32.2614 166.193 30.7273C166.193 29.1932 166.47 27.8674 167.024 26.75C167.578 25.6326 168.338 24.7708 169.304 24.1648C170.27 23.5587 171.373 23.2557 172.614 23.2557C173.348 23.2557 174.036 23.3622 174.68 23.5753C175.329 23.7884 175.914 24.1009 176.435 24.5128C176.955 24.92 177.391 25.4171 177.741 26.0043C178.092 26.5866 178.333 27.2519 178.466 28ZM185.517 38.2273C184.532 38.2273 183.668 37.9929 182.924 37.5241C182.186 37.0554 181.608 36.3996 181.191 35.5568C180.779 34.714 180.574 33.7292 180.574 32.6023C180.574 31.4659 180.779 30.474 181.191 29.6264C181.608 28.7789 182.186 28.1207 182.924 27.652C183.668 27.1832 184.532 26.9489 185.517 26.9489C186.502 26.9489 187.363 27.1832 188.102 27.652C188.845 28.1207 189.423 28.7789 189.835 29.6264C190.252 30.474 190.46 31.4659 190.46 32.6023C190.46 33.7292 190.252 34.714 189.835 35.5568C189.423 36.3996 188.845 37.0554 188.102 37.5241C187.363 37.9929 186.502 38.2273 185.517 38.2273ZM185.517 36.7216C186.265 36.7216 186.88 36.5298 187.363 36.1463C187.846 35.7628 188.204 35.2585 188.436 34.6335C188.668 34.0085 188.784 33.3314 188.784 32.6023C188.784 31.8731 188.668 31.1937 188.436 30.5639C188.204 29.9342 187.846 29.4252 187.363 29.0369C186.88 28.6487 186.265 28.4545 185.517 28.4545C184.769 28.4545 184.153 28.6487 183.67 29.0369C183.187 29.4252 182.83 29.9342 182.598 30.5639C182.366 31.1937 182.25 31.8731 182.25 32.6023C182.25 33.3314 182.366 34.0085 182.598 34.6335C182.83 35.2585 183.187 35.7628 183.67 36.1463C184.153 36.5298 184.769 36.7216 185.517 36.7216ZM194.695 31.4375V38H193.018V27.0909H194.638V28.7955H194.78C195.036 28.2415 195.424 27.7964 195.945 27.4602C196.465 27.1193 197.138 26.9489 197.962 26.9489C198.7 26.9489 199.347 27.1004 199.901 27.4034C200.455 27.7017 200.885 28.1562 201.193 28.767C201.501 29.3731 201.655 30.1402 201.655 31.0682V38H199.979V31.1818C199.979 30.3248 199.756 29.6572 199.311 29.179C198.866 28.696 198.255 28.4545 197.479 28.4545C196.944 28.4545 196.465 28.5705 196.044 28.8026C195.627 29.0346 195.298 29.3731 195.057 29.8182C194.815 30.2633 194.695 30.803 194.695 31.4375ZM209.462 27.0909V28.5114H203.809V27.0909H209.462ZM205.456 24.4773H207.132V34.875C207.132 35.3485 207.201 35.7036 207.338 35.9403C207.48 36.1723 207.66 36.3286 207.878 36.4091C208.101 36.4848 208.335 36.5227 208.581 36.5227C208.766 36.5227 208.917 36.5133 209.036 36.4943C209.154 36.4706 209.249 36.4517 209.32 36.4375L209.661 37.9432C209.547 37.9858 209.389 38.0284 209.185 38.071C208.981 38.1184 208.723 38.142 208.411 38.142C207.937 38.142 207.473 38.0402 207.019 37.8366C206.569 37.633 206.195 37.3229 205.897 36.9062C205.603 36.4896 205.456 35.964 205.456 35.3295V24.4773ZM211.983 38V27.0909H213.659V38H211.983ZM212.836 25.2727C212.509 25.2727 212.227 25.1615 211.99 24.9389C211.758 24.7164 211.642 24.4489 211.642 24.1364C211.642 23.8239 211.758 23.5563 211.99 23.3338C212.227 23.1113 212.509 23 212.836 23C213.162 23 213.442 23.1113 213.674 23.3338C213.91 23.5563 214.029 23.8239 214.029 24.1364C214.029 24.4489 213.91 24.7164 213.674 24.9389C213.442 25.1615 213.162 25.2727 212.836 25.2727ZM218.406 31.4375V38H216.729V27.0909H218.349V28.7955H218.491C218.746 28.2415 219.135 27.7964 219.656 27.4602C220.176 27.1193 220.849 26.9489 221.673 26.9489C222.411 26.9489 223.058 27.1004 223.612 27.4034C224.165 27.7017 224.596 28.1562 224.904 28.767C225.212 29.3731 225.366 30.1402 225.366 31.0682V38H223.69V31.1818C223.69 30.3248 223.467 29.6572 223.022 29.179C222.577 28.696 221.966 28.4545 221.19 28.4545C220.655 28.4545 220.176 28.5705 219.755 28.8026C219.338 29.0346 219.009 29.3731 218.768 29.8182C218.526 30.2633 218.406 30.803 218.406 31.4375ZM235.304 33.5398V27.0909H236.98V38H235.304V36.1534H235.19C234.934 36.7074 234.537 37.1785 233.997 37.5668C233.457 37.9503 232.775 38.142 231.951 38.142C231.27 38.142 230.663 37.9929 230.133 37.6946C229.603 37.3916 229.186 36.937 228.883 36.331C228.58 35.7202 228.429 34.9508 228.429 34.0227V27.0909H230.105V33.9091C230.105 34.7045 230.327 35.339 230.772 35.8125C231.222 36.286 231.795 36.5227 232.491 36.5227C232.908 36.5227 233.332 36.4162 233.762 36.2031C234.198 35.9901 234.563 35.6634 234.856 35.223C235.154 34.7827 235.304 34.2216 235.304 33.5398ZM244.624 38.2273C243.572 38.2273 242.666 37.9953 241.903 37.5312C241.146 37.0625 240.561 36.4091 240.149 35.571C239.742 34.7282 239.538 33.7481 239.538 32.6307C239.538 31.5133 239.742 30.5284 240.149 29.6761C240.561 28.8191 241.134 28.1515 241.868 27.6733C242.607 27.1903 243.468 26.9489 244.453 26.9489C245.021 26.9489 245.582 27.0436 246.136 27.233C246.69 27.4223 247.195 27.7301 247.649 28.1562C248.104 28.5777 248.466 29.1364 248.736 29.8324C249.006 30.5284 249.141 31.3854 249.141 32.4034V33.1136H240.732V31.6648H247.436C247.436 31.0492 247.313 30.5 247.067 30.017C246.825 29.5341 246.48 29.1529 246.03 28.8736C245.585 28.5942 245.059 28.4545 244.453 28.4545C243.786 28.4545 243.208 28.6203 242.72 28.9517C242.237 29.2784 241.866 29.7045 241.605 30.2301C241.345 30.7557 241.214 31.3191 241.214 31.9205V32.8864C241.214 33.7102 241.357 34.4086 241.641 34.9815C241.929 35.5497 242.33 35.983 242.841 36.2812C243.352 36.5748 243.946 36.7216 244.624 36.7216C245.064 36.7216 245.462 36.66 245.817 36.5369C246.177 36.4091 246.487 36.2197 246.747 35.9688C247.008 35.7131 247.209 35.3958 247.351 35.017L248.97 35.4716C248.8 36.0208 248.513 36.5038 248.111 36.9205C247.708 37.3324 247.211 37.6544 246.619 37.8864C246.027 38.1136 245.362 38.2273 244.624 38.2273ZM259.787 38L256.463 27.0909H258.224L260.582 35.4432H260.696L263.026 27.0909H264.815L267.116 35.4148H267.23L269.588 27.0909H271.349L268.026 38H266.378L263.991 29.6193H263.821L261.435 38H259.787ZM273.565 38V27.0909H275.241V38H273.565ZM274.418 25.2727C274.091 25.2727 273.809 25.1615 273.572 24.9389C273.34 24.7164 273.224 24.4489 273.224 24.1364C273.224 23.8239 273.34 23.5563 273.572 23.3338C273.809 23.1113 274.091 23 274.418 23C274.744 23 275.024 23.1113 275.256 23.3338C275.492 23.5563 275.611 23.8239 275.611 24.1364C275.611 24.4489 275.492 24.7164 275.256 24.9389C275.024 25.1615 274.744 25.2727 274.418 25.2727ZM283.056 27.0909V28.5114H277.402V27.0909H283.056ZM279.05 24.4773H280.726V34.875C280.726 35.3485 280.795 35.7036 280.932 35.9403C281.074 36.1723 281.254 36.3286 281.472 36.4091C281.694 36.4848 281.929 36.5227 282.175 36.5227C282.36 36.5227 282.511 36.5133 282.63 36.4943C282.748 36.4706 282.843 36.4517 282.914 36.4375L283.255 37.9432C283.141 37.9858 282.982 38.0284 282.779 38.071C282.575 38.1184 282.317 38.142 282.005 38.142C281.531 38.142 281.067 38.0402 280.613 37.8366C280.163 37.633 279.789 37.3229 279.49 36.9062C279.197 36.4896 279.05 35.964 279.05 35.3295V24.4773ZM287.488 31.4375V38H285.811V23.4545H287.488V28.7955H287.63C287.885 28.232 288.269 27.7846 288.78 27.4531C289.296 27.117 289.983 26.9489 290.84 26.9489C291.583 26.9489 292.234 27.098 292.793 27.3963C293.352 27.6899 293.785 28.142 294.093 28.7528C294.405 29.3589 294.561 30.1307 294.561 31.0682V38H292.885V31.1818C292.885 30.3153 292.66 29.6454 292.211 29.1719C291.766 28.6937 291.148 28.4545 290.357 28.4545C289.808 28.4545 289.315 28.5705 288.88 28.8026C288.449 29.0346 288.108 29.3731 287.857 29.8182C287.611 30.2633 287.488 30.803 287.488 31.4375ZM313.423 28C313.267 27.5218 313.061 27.0933 312.805 26.7145C312.554 26.331 312.254 26.0043 311.903 25.7344C311.558 25.4645 311.165 25.2585 310.724 25.1165C310.284 24.9744 309.801 24.9034 309.276 24.9034C308.414 24.9034 307.63 25.1259 306.925 25.571C306.219 26.0161 305.658 26.6719 305.241 27.5384C304.825 28.4048 304.616 29.4678 304.616 30.7273C304.616 31.9867 304.827 33.0497 305.249 33.9162C305.67 34.7827 306.241 35.4384 306.96 35.8835C307.68 36.3286 308.49 36.5511 309.389 36.5511C310.223 36.5511 310.956 36.3736 311.591 36.0185C312.23 35.6586 312.727 35.152 313.082 34.4986C313.442 33.8404 313.622 33.0663 313.622 32.1761L314.162 32.2898H309.787V30.7273H315.327V32.2898C315.327 33.4877 315.071 34.5294 314.56 35.4148C314.053 36.3002 313.352 36.9867 312.457 37.4744C311.567 37.9574 310.545 38.1989 309.389 38.1989C308.101 38.1989 306.97 37.8958 305.994 37.2898C305.024 36.6837 304.266 35.822 303.722 34.7045C303.182 33.5871 302.912 32.2614 302.912 30.7273C302.912 29.5767 303.066 28.5421 303.374 27.6236C303.686 26.7003 304.126 25.9143 304.695 25.2656C305.263 24.617 305.935 24.1198 306.712 23.7741C307.488 23.4285 308.343 23.2557 309.276 23.2557C310.043 23.2557 310.758 23.3717 311.42 23.6037C312.088 23.831 312.682 24.1553 313.203 24.5767C313.729 24.9934 314.167 25.4929 314.517 26.0753C314.867 26.6529 315.109 27.2945 315.241 28H313.423ZM322.548 38.2273C321.563 38.2273 320.699 37.9929 319.956 37.5241C319.217 37.0554 318.639 36.3996 318.223 35.5568C317.811 34.714 317.605 33.7292 317.605 32.6023C317.605 31.4659 317.811 30.474 318.223 29.6264C318.639 28.7789 319.217 28.1207 319.956 27.652C320.699 27.1832 321.563 26.9489 322.548 26.9489C323.533 26.9489 324.395 27.1832 325.133 27.652C325.877 28.1207 326.454 28.7789 326.866 29.6264C327.283 30.474 327.491 31.4659 327.491 32.6023C327.491 33.7292 327.283 34.714 326.866 35.5568C326.454 36.3996 325.877 37.0554 325.133 37.5241C324.395 37.9929 323.533 38.2273 322.548 38.2273ZM322.548 36.7216C323.296 36.7216 323.912 36.5298 324.395 36.1463C324.877 35.7628 325.235 35.2585 325.467 34.6335C325.699 34.0085 325.815 33.3314 325.815 32.6023C325.815 31.8731 325.699 31.1937 325.467 30.5639C325.235 29.9342 324.877 29.4252 324.395 29.0369C323.912 28.6487 323.296 28.4545 322.548 28.4545C321.8 28.4545 321.184 28.6487 320.701 29.0369C320.218 29.4252 319.861 29.9342 319.629 30.5639C319.397 31.1937 319.281 31.8731 319.281 32.6023C319.281 33.3314 319.397 34.0085 319.629 34.6335C319.861 35.2585 320.218 35.7628 320.701 36.1463C321.184 36.5298 321.8 36.7216 322.548 36.7216ZM334.482 38.2273C333.497 38.2273 332.633 37.9929 331.889 37.5241C331.151 37.0554 330.573 36.3996 330.156 35.5568C329.744 34.714 329.538 33.7292 329.538 32.6023C329.538 31.4659 329.744 30.474 330.156 29.6264C330.573 28.7789 331.151 28.1207 331.889 27.652C332.633 27.1832 333.497 26.9489 334.482 26.9489C335.466 26.9489 336.328 27.1832 337.067 27.652C337.81 28.1207 338.388 28.7789 338.8 29.6264C339.216 30.474 339.425 31.4659 339.425 32.6023C339.425 33.7292 339.216 34.714 338.8 35.5568C338.388 36.3996 337.81 37.0554 337.067 37.5241C336.328 37.9929 335.466 38.2273 334.482 38.2273ZM334.482 36.7216C335.23 36.7216 335.845 36.5298 336.328 36.1463C336.811 35.7628 337.169 35.2585 337.401 34.6335C337.633 34.0085 337.749 33.3314 337.749 32.6023C337.749 31.8731 337.633 31.1937 337.401 30.5639C337.169 29.9342 336.811 29.4252 336.328 29.0369C335.845 28.6487 335.23 28.4545 334.482 28.4545C333.733 28.4545 333.118 28.6487 332.635 29.0369C332.152 29.4252 331.795 29.9342 331.562 30.5639C331.33 31.1937 331.214 31.8731 331.214 32.6023C331.214 33.3314 331.33 34.0085 331.562 34.6335C331.795 35.2585 332.152 35.7628 332.635 36.1463C333.118 36.5298 333.733 36.7216 334.482 36.7216ZM346.387 42.3182C345.577 42.3182 344.881 42.214 344.299 42.0057C343.716 41.8021 343.231 41.5322 342.843 41.196C342.459 40.8646 342.154 40.5095 341.926 40.1307L343.262 39.1932C343.413 39.392 343.605 39.6193 343.837 39.875C344.069 40.1354 344.386 40.3603 344.789 40.5497C345.196 40.7438 345.729 40.8409 346.387 40.8409C347.267 40.8409 347.994 40.6278 348.567 40.2017C349.14 39.7756 349.426 39.108 349.426 38.1989V35.983H349.284C349.161 36.1818 348.986 36.428 348.759 36.7216C348.536 37.0104 348.214 37.2685 347.793 37.4957C347.376 37.7183 346.813 37.8295 346.103 37.8295C345.222 37.8295 344.431 37.6212 343.73 37.2045C343.034 36.7879 342.483 36.1818 342.076 35.3864C341.673 34.5909 341.472 33.625 341.472 32.4886C341.472 31.3712 341.668 30.3982 342.061 29.5696C342.454 28.7363 343.001 28.0923 343.702 27.6378C344.403 27.1785 345.212 26.9489 346.131 26.9489C346.841 26.9489 347.405 27.0672 347.821 27.304C348.243 27.536 348.565 27.8011 348.787 28.0994C349.015 28.393 349.19 28.6345 349.313 28.8239H349.483V27.0909H351.103V38.3125C351.103 39.25 350.89 40.0123 350.463 40.5994C350.042 41.1913 349.474 41.6245 348.759 41.8991C348.049 42.1785 347.258 42.3182 346.387 42.3182ZM346.33 36.3239C347.002 36.3239 347.57 36.17 348.034 35.8622C348.498 35.5545 348.851 35.1117 349.093 34.5341C349.334 33.9564 349.455 33.2652 349.455 32.4602C349.455 31.6742 349.337 30.9806 349.1 30.3793C348.863 29.7779 348.513 29.3068 348.049 28.9659C347.585 28.625 347.012 28.4545 346.33 28.4545C345.62 28.4545 345.028 28.6345 344.554 28.9943C344.086 29.3542 343.733 29.8371 343.496 30.4432C343.264 31.0492 343.148 31.7216 343.148 32.4602C343.148 33.2178 343.266 33.8878 343.503 34.4702C343.745 35.0478 344.1 35.5024 344.569 35.8338C345.042 36.1605 345.629 36.3239 346.33 36.3239ZM355.847 23.4545V38H354.171V23.4545H355.847ZM363.491 38.2273C362.44 38.2273 361.533 37.9953 360.771 37.5312C360.013 37.0625 359.428 36.4091 359.016 35.571C358.609 34.7282 358.406 33.7481 358.406 32.6307C358.406 31.5133 358.609 30.5284 359.016 29.6761C359.428 28.8191 360.001 28.1515 360.735 27.6733C361.474 27.1903 362.335 26.9489 363.32 26.9489C363.888 26.9489 364.45 27.0436 365.004 27.233C365.558 27.4223 366.062 27.7301 366.516 28.1562C366.971 28.5777 367.333 29.1364 367.603 29.8324C367.873 30.5284 368.008 31.3854 368.008 32.4034V33.1136H359.599V31.6648H366.303C366.303 31.0492 366.18 30.5 365.934 30.017C365.692 29.5341 365.347 29.1529 364.897 28.8736C364.452 28.5942 363.926 28.4545 363.32 28.4545C362.653 28.4545 362.075 28.6203 361.587 28.9517C361.104 29.2784 360.733 29.7045 360.472 30.2301C360.212 30.7557 360.082 31.3191 360.082 31.9205V32.8864C360.082 33.7102 360.224 34.4086 360.508 34.9815C360.797 35.5497 361.197 35.983 361.708 36.2812C362.219 36.5748 362.814 36.7216 363.491 36.7216C363.931 36.7216 364.329 36.66 364.684 36.5369C365.044 36.4091 365.354 36.2197 365.614 35.9688C365.875 35.7131 366.076 35.3958 366.218 35.017L367.837 35.4716C367.667 36.0208 367.38 36.5038 366.978 36.9205C366.576 37.3324 366.078 37.6544 365.487 37.8864C364.895 38.1136 364.229 38.2273 363.491 38.2273Z" fill="#333333"/>
</svg>
