<svg width="479" height="23" viewBox="0 0 479 23" fill="none" xmlns="http://www.w3.org/2000/svg">
<rect x="0.5" y="10.5" width="203" height="2" fill="#666666" fill-opacity="0.25"/>
<path d="M239.131 11.9545C239.131 13.3352 238.881 14.5284 238.383 15.5341C237.884 16.5398 237.2 17.3153 236.331 17.8608C235.462 18.4062 234.469 18.679 233.352 18.679C232.236 18.679 231.243 18.4062 230.374 17.8608C229.504 17.3153 228.82 16.5398 228.322 15.5341C227.823 14.5284 227.574 13.3352 227.574 11.9545C227.574 10.5739 227.823 9.38068 228.322 8.375C228.82 7.36932 229.504 6.59375 230.374 6.0483C231.243 5.50284 232.236 5.23011 233.352 5.23011C234.469 5.23011 235.462 5.50284 236.331 6.0483C237.2 6.59375 237.884 7.36932 238.383 8.375C238.881 9.38068 239.131 10.5739 239.131 11.9545ZM237.597 11.9545C237.597 10.821 237.407 9.86435 237.028 9.08452C236.653 8.30469 236.143 7.71449 235.5 7.31392C234.861 6.91335 234.145 6.71307 233.352 6.71307C232.56 6.71307 231.842 6.91335 231.198 7.31392C230.559 7.71449 230.05 8.30469 229.67 9.08452C229.295 9.86435 229.108 10.821 229.108 11.9545C229.108 13.0881 229.295 14.0447 229.67 14.8246C230.05 15.6044 230.559 16.1946 231.198 16.5952C231.842 16.9957 232.56 17.196 233.352 17.196C234.145 17.196 234.861 16.9957 235.5 16.5952C236.143 16.1946 236.653 15.6044 237.028 14.8246C237.407 14.0447 237.597 13.0881 237.597 11.9545ZM241.796 18.5V5.40909H246.219C247.242 5.40909 248.082 5.58381 248.738 5.93324C249.394 6.27841 249.88 6.75355 250.195 7.35866C250.511 7.96378 250.668 8.65199 250.668 9.4233C250.668 10.1946 250.511 10.8786 250.195 11.4751C249.88 12.0717 249.396 12.5405 248.744 12.8814C248.092 13.218 247.259 13.3864 246.245 13.3864H242.665V11.9545H246.194C246.893 11.9545 247.455 11.8523 247.881 11.6477C248.312 11.4432 248.623 11.1534 248.815 10.7784C249.011 10.3991 249.109 9.94744 249.109 9.4233C249.109 8.89915 249.011 8.44105 248.815 8.04901C248.619 7.65696 248.305 7.3544 247.875 7.14134C247.445 6.92401 246.876 6.81534 246.168 6.81534H243.381V18.5H241.796ZM247.958 12.6193L251.18 18.5H249.339L246.168 12.6193H247.958Z" fill="#666666"/>
<rect x="275.5" y="10.5" width="203" height="2" fill="#666666" fill-opacity="0.25"/>
</svg>
