<svg width="125" height="25" viewBox="0 0 125 25" fill="none" xmlns="http://www.w3.org/2000/svg">
<path d="M13.5987 3.29299L15.7387 9.17707L22.0246 9.3828C22.6863 9.40338 22.9654 10.2366 22.4381 10.6481L17.4756 14.4851L19.2228 20.4926C19.4089 21.1304 18.6956 21.6447 18.1476 21.2744L12.9473 17.7666L7.74703 21.2744C7.19909 21.6447 6.48573 21.1304 6.67182 20.4926L8.41904 14.4851L3.43585 10.6481C2.90859 10.2469 3.18773 9.40338 3.84939 9.3828L10.1352 9.17707L12.2753 3.29299C12.4924 2.67578 13.3712 2.67578 13.5987 3.29299Z" fill="#9E5A35"/>
<path d="M63.2237 3.29299L65.3637 9.17707L71.6496 9.3828C72.3113 9.40338 72.5904 10.2366 72.0631 10.6481L67.1006 14.4851L68.8478 20.4926C69.0339 21.1304 68.3206 21.6447 67.7726 21.2744L62.5723 17.7666L57.372 21.2744C56.8241 21.6447 56.1107 21.1304 56.2968 20.4926L58.044 14.4851L53.0609 10.6481C52.5336 10.2469 52.8127 9.40338 53.4744 9.3828L59.7602 9.17707L61.9003 3.29299C62.1174 2.67578 62.9962 2.67578 63.2237 3.29299Z" fill="#9E5A35"/>
<path d="M38.4151 3.29299L40.5551 9.17707L46.841 9.3828C47.5027 9.40338 47.7818 10.2366 47.2545 10.6481L42.292 14.4851L44.0392 20.4926C44.2253 21.1304 43.512 21.6447 42.964 21.2744L37.7637 17.7666L32.5634 21.2744C32.0155 21.6447 31.3021 21.1304 31.4882 20.4926L33.2354 14.4851L28.2523 10.6481C27.725 10.2469 28.0041 9.40338 28.6658 9.3828L34.9516 9.17707L37.0917 3.29299C37.3088 2.67578 38.1876 2.67578 38.4151 3.29299Z" fill="#9E5A35"/>
<path d="M88.0323 3.29299L90.1723 9.17707L96.4582 9.3828C97.1198 9.40338 97.399 10.2366 96.8717 10.6481L91.9092 14.4851L93.6564 20.4926C93.8425 21.1304 93.1292 21.6447 92.5812 21.2744L87.3809 17.7666L82.1806 21.2744C81.6327 21.6447 80.9193 21.1304 81.1054 20.4926L82.8526 14.4851L77.8694 10.6481C77.3422 10.2469 77.6213 9.40338 78.283 9.3828L84.5688 9.17707L86.7089 3.29299C86.926 2.67578 87.8048 2.67578 88.0323 3.29299Z" fill="#9E5A35"/>
<path d="M112.845 3.29299L114.985 9.17707L121.271 9.3828C121.932 9.40338 122.211 10.2366 121.684 10.6481L116.722 14.4851L118.469 20.4926C118.655 21.1304 117.942 21.6447 117.394 21.2744L112.193 17.7666L106.993 21.2744C106.445 21.6447 105.732 21.1304 105.918 20.4926L107.665 14.4851L102.682 10.6481C102.155 10.2469 102.434 9.40338 103.095 9.3828L109.381 9.17707L111.521 3.29299C111.739 2.67578 112.617 2.67578 112.845 3.29299Z" fill="#9E5A35" fill-opacity="0.16"/>
</svg>
