<svg width="35" height="34" viewBox="0 0 35 34" fill="none" xmlns="http://www.w3.org/2000/svg">
<path d="M30.25 16.2917C30.2549 18.1615 29.818 20.006 28.975 21.675C27.9754 23.675 26.4388 25.3572 24.5372 26.5332C22.6356 27.7092 20.4442 28.3325 18.2083 28.3334C16.3385 28.3382 14.494 27.9014 12.825 27.0584L4.75 29.75L7.44167 21.675C6.59865 20.006 6.16179 18.1615 6.16667 16.2917C6.16753 14.0559 6.79087 11.8644 7.96685 9.96282C9.14284 8.06123 10.825 6.52459 12.825 5.52504C14.494 4.68203 16.3385 4.24517 18.2083 4.25004H18.9167C21.8695 4.41295 24.6585 5.65929 26.7496 7.75042C28.8408 9.84156 30.0871 12.6305 30.25 15.5834V16.2917Z" stroke="#42526B" stroke-width="2" stroke-linecap="round" stroke-linejoin="round"/>
</svg>
