<svg width="35" height="34" viewBox="0 0 35 34" fill="none" xmlns="http://www.w3.org/2000/svg">
<path d="M26 11.332C26 9.07769 25.1045 6.91568 23.5104 5.32162C21.9163 3.72756 19.7543 2.83203 17.5 2.83203C15.2457 2.83203 13.0837 3.72756 11.4896 5.32162C9.89553 6.91568 9 9.07769 9 11.332C9 21.2487 4.75 24.082 4.75 24.082H30.25C30.25 24.082 26 21.2487 26 11.332Z" stroke="#42526B" stroke-width="2" stroke-linecap="round" stroke-linejoin="round"/>
<path d="M19.9524 29.75C19.7034 30.1794 19.3459 30.5358 18.9158 30.7835C18.4856 31.0312 17.998 31.1616 17.5016 31.1616C17.0052 31.1616 16.5176 31.0312 16.0875 30.7835C15.6573 30.5358 15.2998 30.1794 15.0508 29.75" stroke="#42526B" stroke-width="2" stroke-linecap="round" stroke-linejoin="round"/>
</svg>
