<svg width="31" height="31" viewBox="0 0 31 31" fill="none" xmlns="http://www.w3.org/2000/svg">
<g clip-path="url(#clip0_1095_5097)">
<path d="M15.4976 29.7081C23.3448 29.7081 29.7061 23.3467 29.7061 15.4996C29.7061 7.65239 23.3448 1.29102 15.4976 1.29102C7.65044 1.29102 1.28906 7.65239 1.28906 15.4996C1.28906 23.3467 7.65044 29.7081 15.4976 29.7081Z" fill="#FFE8DA"/>
<path d="M15.5 31C6.9532 31 0 24.0468 0 15.5C0 6.9532 6.9532 0 15.5 0C24.0468 0 31 6.9532 31 15.5C31 24.0468 24.0468 31 15.5 31ZM15.5 2.58353C8.37787 2.58353 2.58353 8.37787 2.58353 15.5C2.58353 22.6221 8.37787 28.4165 15.5 28.4165C22.6221 28.4165 28.4165 22.6221 28.4165 15.5C28.4165 8.37787 22.6221 2.58353 15.5 2.58353Z" fill="#069703"/>
<path d="M14.2088 20.6673C13.954 20.6675 13.7049 20.592 13.4931 20.4505L9.61809 17.867C9.33306 17.6769 9.1352 17.3814 9.06804 17.0455C9.00088 16.7096 9.06991 16.3607 9.25996 16.0757C9.45001 15.7907 9.7455 15.5928 10.0814 15.5256C10.4174 15.4585 10.7662 15.5275 11.0512 15.7175L13.9605 17.655L19.6755 10.7969C19.8948 10.5337 20.2097 10.3684 20.5508 10.3374C20.892 10.3063 21.2315 10.412 21.4947 10.6313C21.7579 10.8506 21.9232 11.1654 21.9542 11.5066C21.9853 11.8477 21.8795 12.1872 21.6603 12.4504L15.2017 20.2004C15.0807 20.3464 14.929 20.464 14.7573 20.5447C14.5857 20.6253 14.3984 20.6672 14.2088 20.6673Z" fill="#069703"/>
</g>
<defs>
<clipPath id="clip0_1095_5097">
<rect width="31" height="31" fill="white"/>
</clipPath>
</defs>
</svg>
