<svg width="30" height="31" viewBox="0 0 30 31" fill="none" xmlns="http://www.w3.org/2000/svg">
<path d="M23.75 14.25H6.25C4.86929 14.25 3.75 15.3693 3.75 16.75V25.5C3.75 26.8807 4.86929 28 6.25 28H23.75C25.1307 28 26.25 26.8807 26.25 25.5V16.75C26.25 15.3693 25.1307 14.25 23.75 14.25Z" stroke="#9E5A35" stroke-width="2" stroke-linecap="round" stroke-linejoin="round"/>
<path d="M8.75 14.25V9.25C8.75 7.5924 9.40848 6.00269 10.5806 4.83058C11.7527 3.65848 13.3424 3 15 3C16.6576 3 18.2473 3.65848 19.4194 4.83058C20.5915 6.00269 21.25 7.5924 21.25 9.25V14.25" stroke="#9E5A35" stroke-width="2" stroke-linecap="round" stroke-linejoin="round"/>
</svg>
