<svg width="48" height="47" viewBox="0 0 48 47" fill="none" xmlns="http://www.w3.org/2000/svg">
<ellipse cx="24.168" cy="23.5" rx="23.5" ry="23.5" fill="#FFF0E7"/>
<path fill-rule="evenodd" clip-rule="evenodd" d="M13.0915 26.1467C11.7521 24.8125 11 23.0091 11 21.1288C11 19.2381 11.7601 17.4243 13.1139 16.0874C14.4678 14.7505 16.3046 14 18.2193 14C20.134 14 21.9708 14.7505 23.3247 16.0874L23.8182 16.5748L24.3117 16.0874C25.6656 14.7505 27.5011 14 29.4157 14C31.3317 14 33.1673 14.7505 34.5211 16.0874C35.875 17.4243 36.6364 19.2381 36.6364 21.1288C36.6364 23.0091 35.8842 24.8125 34.5436 26.1467L24.7498 36.3872C24.5083 36.64 24.1705 36.7833 23.8182 36.7833C23.4659 36.7833 23.1281 36.64 22.8866 36.3872L13.0915 26.1467ZM23.8182 33.6743L32.683 24.4059L32.7094 24.3799C33.5816 23.5173 34.0725 22.3484 34.0725 21.1288C34.0725 19.9092 33.5816 18.7404 32.7094 17.8778C31.8358 17.0152 30.6509 16.5305 29.4157 16.5305C28.182 16.5305 26.997 17.0152 26.1235 17.8778L24.7247 19.2603C24.2233 19.7541 23.4118 19.7541 22.9116 19.2603L21.5116 17.8778C20.6394 17.0152 19.4544 16.5305 18.2193 16.5305C16.9842 16.5305 15.8006 17.0152 14.927 17.8778C14.0535 18.7404 13.5639 19.9092 13.5639 21.1288C13.5639 22.3484 14.0535 23.5173 14.927 24.3799C14.9362 24.389 14.9442 24.3968 14.9521 24.4059L23.8182 33.6743Z" fill="#9E5A35"/>
<path d="M16.1429 15L22.4286 17.7143L24.5238 17.1714L26.619 16.0857L28.1905 15H31.3333L33.4286 16.0857L35 17.7143L34.4762 21.5143L31.8571 24.7714L29.7619 28.0286L26.0952 31.8286L23.4762 34L22.9524 32.9143L17.1905 26.9429L14.0476 24.7714L13 17.7143L16.1429 15Z" fill="#9E5A35" stroke="#9E5A35"/>
</svg>
