<svg width="80" height="79" viewBox="0 0 80 79" fill="none" xmlns="http://www.w3.org/2000/svg">
<circle cx="40.4766" cy="39.5" r="38" stroke="#9E5A35" stroke-width="3"/>
<path fill-rule="evenodd" clip-rule="evenodd" d="M25.0767 41.1269C23.0914 39.1357 21.9766 36.4444 21.9766 33.6385C21.9766 30.817 23.1032 28.1102 25.11 26.1151C27.1168 24.12 29.8394 23 32.6775 23C35.5156 23 38.2382 24.12 40.245 26.1151L40.9765 26.8424L41.7081 26.1151C43.7149 24.12 46.4356 23 49.2737 23C52.1137 23 54.8344 24.12 56.8412 26.1151C58.848 28.1102 59.9766 30.817 59.9766 33.6385C59.9766 36.4444 58.8617 39.1357 56.8744 41.1269L42.3575 56.4089C41.9995 56.7861 41.4988 57 40.9765 57C40.4543 57 39.9536 56.7861 39.5957 56.4089L25.0767 41.1269ZM40.9765 52.3604L54.1166 38.529L54.1557 38.4901C55.4486 37.2028 56.1762 35.4586 56.1762 33.6385C56.1762 31.8184 55.4486 30.0742 54.1557 28.7869C52.8609 27.4996 51.1044 26.7763 49.2737 26.7763C47.4449 26.7763 45.6884 27.4996 44.3936 28.7869L42.3203 30.85C41.577 31.587 40.3741 31.587 39.6328 30.85L37.5576 28.7869C36.2647 27.4996 34.5083 26.7763 32.6775 26.7763C30.8467 26.7763 29.0923 27.4996 27.7974 28.7869C26.5026 30.0742 25.7769 31.8184 25.7769 33.6385C25.7769 35.4586 26.5026 37.2028 27.7974 38.4901C27.8111 38.5037 27.8229 38.5154 27.8346 38.529L40.9765 52.3604Z" fill="#9E5A35"/>
</svg>
