<svg width="609" height="632" viewBox="0 0 609 632" fill="none" xmlns="http://www.w3.org/2000/svg">
<g clip-path="url(#clip0_784_1845)">
<path d="M0.661172 495.068H112.091C135.639 495.068 159.187 495.068 182.72 495.068H259.819C285.934 495.068 312.049 495.068 338.165 495.068H410.715C431.226 495.068 451.737 495.068 472.248 495.068H516.482C523.451 495.068 530.42 495.142 537.389 495.068C537.697 495.068 538.005 495.068 538.299 495.068C539.179 495.068 539.179 493.704 538.299 493.704H279.141C253.026 493.704 226.911 493.704 200.795 493.704C176.617 493.704 152.423 493.704 128.245 493.704H22.4924C15.5234 493.704 8.55445 493.631 1.58548 493.704C1.27738 493.704 0.969274 493.704 0.675843 493.704C-0.204448 493.704 -0.204448 495.068 0.675843 495.068H0.661172Z" fill="#232322"/>
<mask id="mask0_784_1845" style="mask-type:luminance" maskUnits="userSpaceOnUse" x="292" y="69" width="270" height="299">
<path d="M427.043 69.873C501.516 69.873 561.992 130.303 561.992 204.752V367.198H292.109V204.752C292.109 130.318 352.571 69.873 427.058 69.873H427.043Z" fill="white"/>
</mask>
<g mask="url(#mask0_784_1845)">
<path d="M427.043 69.873C501.516 69.873 561.992 130.303 561.992 204.752V367.198H292.109V204.752C292.109 130.318 352.571 69.873 427.058 69.873H427.043Z" fill="#FFF0E7"/>
<path d="M427.6 2.22807C420.734 55.282 421.775 108.879 422.978 162.226C424.196 215.94 425.414 269.668 426.632 323.382C427.321 353.81 428.011 384.237 428.7 414.665C428.774 417.671 433.454 417.686 433.395 414.665C432.177 360.658 430.945 306.665 429.727 252.658C429.126 225.794 428.51 198.93 427.908 172.065C427.307 145.45 426.632 118.85 426.837 92.2204C427.057 62.1447 428.436 32.0544 432.31 2.21341C432.691 -0.76336 427.996 -0.748696 427.615 2.21341L427.6 2.22807Z" fill="white"/>
<path d="M606.74 230.105C556.945 229.489 507.15 228.888 457.355 228.272C408.015 227.671 358.645 226.864 309.305 228.272C281.649 229.049 254.008 230.559 226.469 233.17C223.491 233.448 223.462 238.141 226.469 237.862C275.824 233.184 325.429 232.114 374.989 232.202C424.432 232.29 473.89 233.184 523.333 233.785C551.135 234.123 578.938 234.46 606.74 234.812C609.763 234.856 609.763 230.163 606.74 230.12V230.105Z" fill="white"/>
</g>
<path d="M316.273 318.192H223.637C223.637 318.192 215.157 294.246 231.164 291.46C247.17 288.674 256.648 303.44 256.648 303.44C256.648 303.44 255.87 276.253 272.567 276.62C289.248 276.986 292.872 305.948 292.872 305.948C292.872 305.948 300.178 295.551 310.874 297.413C321.569 299.261 316.273 318.207 316.273 318.207V318.192Z" fill="white"/>
<path d="M539.515 199.693H446.879C446.879 199.693 438.399 175.747 454.406 172.961C470.412 170.175 479.89 184.941 479.89 184.941C479.89 184.941 479.113 157.754 495.809 158.121C512.49 158.487 516.114 187.449 516.114 187.449C516.114 187.449 523.421 177.052 534.116 178.914C544.812 180.762 539.515 199.708 539.515 199.708V199.693Z" fill="white"/>
<path d="M269.486 528.193C363.981 528.193 440.585 521.628 440.585 513.529C440.585 505.43 363.981 498.865 269.486 498.865C174.99 498.865 98.3867 505.43 98.3867 513.529C98.3867 521.628 174.99 528.193 269.486 528.193Z" fill="#B5E2FA"/>
<path d="M77.3335 529C112.143 529 140.362 523.61 140.362 516.961C140.362 510.312 112.143 504.922 77.3335 504.922C42.5237 504.922 14.3047 510.312 14.3047 516.961C14.3047 523.61 42.5237 529 77.3335 529Z" fill="#B5E2FA"/>
<path d="M277.026 119.731C277.026 119.731 311.607 68.4069 379.243 90.4028C446.893 112.399 431.855 184.78 405.754 201.746C405.754 201.746 424.328 237.438 457.897 248.846C457.897 248.846 405.094 306.211 325.765 306.211C246.436 306.211 187.721 265.71 187.721 243.435C187.721 243.435 237.912 210.163 261.108 157.211C284.303 104.26 277.026 119.745 277.026 119.745V119.731Z" fill="#3E241A"/>
<path d="M202.921 253.553C217.578 246.295 228.523 233.83 239.057 221.674C239.629 221.014 238.661 220.046 238.089 220.706C227.628 232.774 216.786 245.165 202.232 252.38C201.439 252.776 202.129 253.949 202.921 253.553Z" fill="#6D2E1D"/>
<path d="M216.021 262.953C220.555 260.606 224.604 257.322 227.832 253.362C228.389 252.688 227.421 251.72 226.863 252.395C223.694 256.281 219.777 259.463 215.331 261.765C214.554 262.175 215.243 263.349 216.021 262.938V262.953Z" fill="#6D2E1D"/>
<path d="M249.679 233.244C239.952 232.188 231.809 241.06 233.937 250.665C236.064 260.269 247.097 264.757 255.313 259.844C259.817 257.161 262.414 252.234 262.326 247.028C262.326 246.148 260.947 246.148 260.961 247.028C261.108 255.826 252.643 262.542 244.089 259.917C235.536 257.293 232.308 247.013 237.37 239.931C240.187 235.986 244.896 234.08 249.679 234.593C250.545 234.696 250.545 233.317 249.679 233.229V233.244Z" fill="white"/>
<path d="M273.857 314.893C273.857 314.893 323.242 313.646 372.23 311.799C372.23 311.799 357.514 339.206 319.354 340.789C281.179 342.388 273.857 314.893 273.857 314.893Z" fill="#232322"/>
<path d="M482.017 421.397C482.017 421.397 470.676 460.153 405.989 450.783L404.023 423.787L482.003 421.382L482.017 421.397Z" fill="#232322"/>
<path d="M233.042 393.461C233.042 394.459 215.128 455.856 215.128 455.856C215.128 455.856 210.154 497.78 182.293 494.158C154.432 490.522 146.803 447.293 175.661 397.758C204.52 348.238 233.042 393.461 233.042 393.461Z" fill="#F1A07A"/>
<path d="M399.681 417.144C399.681 418.126 417.316 478.849 417.316 478.849C417.316 478.849 422.216 520.319 449.652 516.726C477.088 513.133 484.614 470.374 456.181 421.381C427.747 372.389 399.666 417.129 399.666 417.129L399.681 417.144Z" fill="#F1A07A"/>
<path d="M391.464 200.03C392.843 195.675 395.029 191.51 398.272 188.284C401.514 185.073 405.901 182.873 410.478 182.8C417.271 182.683 423.507 187.258 426.969 193.109C430.329 198.798 431.459 205.734 430.329 212.245C429.199 218.756 425.883 224.841 421.203 229.505C416.406 234.285 410.126 237.614 403.436 238.684C396.746 239.74 389.674 238.494 383.879 234.974C383.879 234.974 390.041 204.532 391.479 200.045L391.464 200.03Z" fill="#F1A07A"/>
<path d="M418.46 197.142C412.855 198.608 409.04 203.418 406.957 208.594C404.39 214.988 404.14 222.246 406.326 228.772C406.605 229.608 407.925 229.241 407.647 228.405C405.637 222.393 405.769 215.882 407.911 209.929C409.745 204.826 413.339 199.884 418.826 198.462C419.677 198.242 419.31 196.922 418.46 197.142Z" fill="#232322"/>
<path d="M407.602 212.509C411.255 213.609 414.542 215.662 417.153 218.433C417.755 219.079 418.723 218.111 418.122 217.466C415.363 214.518 411.842 212.348 407.969 211.189C407.118 210.94 406.766 212.26 407.602 212.509Z" fill="#232322"/>
<path d="M304.564 289.568C304.564 289.568 228.155 275.27 246.905 223.683C246.905 223.683 208.701 139.102 284.685 104.348C360.654 69.5801 401.411 153.458 401.411 186.891C401.411 220.325 388.045 275.227 304.564 289.568Z" fill="#F1A07A"/>
<path opacity="0.51" d="M306.619 206.438C307.822 205.148 309.935 205.485 310.698 207.069C313.383 212.671 318.342 224.05 316.244 227.774C312.62 234.197 303.039 237.203 297.376 228.053C293.517 221.821 302.144 211.263 306.619 206.438Z" fill="#E76C4F"/>
<path d="M299.225 214.694C297.332 217.818 295.484 221.352 295.997 225.12C296.423 228.244 298.433 231.03 301.22 232.467C301.998 232.863 302.687 231.69 301.91 231.294C299.401 230.004 297.567 227.481 297.303 224.637C296.995 221.279 298.726 218.155 300.399 215.384C300.853 214.636 299.68 213.947 299.225 214.694Z" fill="#232322"/>
<path d="M314.967 227.965C315.025 227.877 314.937 227.994 314.923 228.009C314.893 228.053 314.849 228.097 314.82 228.141C314.747 228.229 314.673 228.317 314.6 228.405C314.468 228.566 314.321 228.727 314.174 228.889C313.881 229.211 313.573 229.519 313.25 229.827C312.927 230.135 312.605 230.399 312.282 230.663C312.282 230.663 312.15 230.766 312.194 230.736C312.252 230.692 312.12 230.795 312.106 230.81C312.018 230.883 311.93 230.942 311.827 231.015C311.651 231.147 311.46 231.279 311.269 231.396C310.976 231.587 310.815 232.012 311.02 232.335C311.211 232.628 311.636 232.789 311.959 232.584C313.573 231.514 314.967 230.209 316.14 228.669C316.36 228.39 316.199 227.892 315.891 227.73C315.524 227.54 315.187 227.672 314.952 227.98L314.967 227.965Z" fill="#232322"/>
<path d="M310.346 224.636C310.156 226.308 307.691 227.408 304.845 227.085C301.998 226.762 299.856 225.135 300.047 223.448C300.238 221.777 302.703 220.677 305.549 221C308.395 221.322 310.537 222.95 310.346 224.636Z" fill="white"/>
<path opacity="0.51" d="M366.772 239.858C366.772 244.066 361.182 247.483 354.286 247.483C347.391 247.483 341.801 244.066 341.801 239.858C341.801 235.649 347.391 232.232 354.286 232.232C361.182 232.232 366.772 235.649 366.772 239.858Z" fill="#E76C4F"/>
<path opacity="0.51" d="M280.209 241.749C280.209 245.958 274.619 249.374 267.724 249.374C260.828 249.374 255.238 245.958 255.238 241.749C255.238 237.541 260.828 234.124 267.724 234.124C274.619 234.124 280.209 237.541 280.209 241.749Z" fill="#E76C4F"/>
<path d="M357.5 167.594C356.649 171.509 349.827 169.397 341.259 167.535C332.691 165.673 325.619 164.764 326.47 160.848C327.321 156.933 334.965 155.276 343.533 157.138C352.101 159.001 358.351 163.693 357.5 167.608V167.594Z" fill="#232322"/>
<path d="M255.708 170.776C256.853 174.618 263.484 172.008 271.891 169.515C280.298 167.022 287.296 165.6 286.152 161.758C285.007 157.916 277.276 156.816 268.869 159.309C260.462 161.802 254.564 166.934 255.708 170.776Z" fill="#232322"/>
<path d="M306.985 239.799C309.699 241.118 313 240.268 314.658 237.76C316.726 234.637 320.365 231.543 326.41 232.599C337.795 234.564 337.912 258.158 315.817 263.539C293.722 268.906 287.383 249.081 293.193 242.159C297.609 236.895 303.053 237.907 306.985 239.799Z" fill="#232322"/>
<path d="M261.489 322.239C261.489 322.239 294.779 315.494 296.598 304.613C298.417 293.733 296.393 278.702 296.393 278.702H333.835C333.835 278.702 333.35 293.498 341.64 303.733C353.89 318.867 381.091 320.172 381.091 320.172C381.091 320.172 298.065 366.861 261.475 322.239H261.489Z" fill="#F1A07A"/>
<path d="M273.857 314.893C273.857 314.893 284.978 333.883 313.573 333.883C342.168 333.883 372.23 311.799 372.23 311.799C372.23 311.799 412.415 302.033 436.256 348.649C460.097 395.266 481.987 421.397 481.987 421.397C481.987 421.397 463.046 432.233 436.256 430.239C409.466 428.245 407.28 442.733 407.28 442.733L409.128 489.745H226.409V424.916C226.409 424.916 188.307 428.787 145.012 400.779C145.012 400.779 174.457 388.124 197.55 350.189C220.643 312.253 273.842 314.908 273.842 314.908L273.857 314.893Z" fill="#9E5A35"/>
<path d="M351.307 272.851C337.927 280.242 323.475 285.594 308.496 288.615C303.449 289.626 297.947 287.969 293.017 286.298C287.266 284.347 281.471 281.884 275.969 279.244C269.279 276.033 262.867 272 257.41 266.956C249.736 259.859 244.293 250.547 244.645 239.842C244.675 238.963 243.31 238.963 243.281 239.842C242.679 258.187 257.864 271.429 272.844 279.2C277.715 281.723 282.953 283.893 288.044 285.902C292.563 287.691 297.257 289.304 302.084 290.037C303.83 290.301 305.635 290.492 307.381 290.213C314.408 289.084 321.421 286.987 328.126 284.67C336.372 281.825 344.353 278.247 351.997 274.024C352.76 273.599 352.085 272.426 351.307 272.851Z" fill="#232322"/>
<path d="M407.836 445.871C405.929 426.309 401.748 407.011 395.38 388.418C395.102 387.596 393.781 387.948 394.06 388.784C400.398 407.261 404.579 426.426 406.472 445.871C406.56 446.736 407.925 446.751 407.836 445.871Z" fill="#232322"/>
<path d="M395.617 420.429C396.673 428.157 397.729 435.899 398.786 443.627C398.903 444.492 400.224 444.126 400.106 443.261C399.05 435.533 397.994 427.79 396.937 420.062C396.82 419.197 395.499 419.564 395.617 420.429Z" fill="#232322"/>
<path d="M332.411 504.672C332.411 504.672 167.107 542.901 160.123 474.01C160.123 474.01 187.691 441.31 243.017 460.989C298.329 480.668 324.752 482.031 324.752 482.031L332.425 504.687L332.411 504.672Z" fill="#F1A07A"/>
<path d="M304.389 383.139C304.389 383.139 314.453 398.125 350.355 406.117C386.256 414.109 421.761 427.805 417.785 466.826C413.648 507.415 340.173 521.595 301.513 508.28C257.499 493.103 236.621 450.563 236.621 450.563L304.374 383.153L304.389 383.139Z" fill="#83E2FF"/>
<path d="M324.958 485.947C293.415 481.724 267.651 461.869 251.307 435.929L236.621 450.549C236.621 450.549 257.484 493.089 301.513 508.266C340.173 521.595 413.662 507.401 417.785 466.811C418.812 456.722 417.198 448.334 413.618 441.296C395.25 471.562 362.547 490.83 324.958 485.962V485.947Z" fill="#4ACEED"/>
<path d="M197.229 436.867C197.229 436.867 148.021 391.996 193.312 349.558C238.603 307.121 278.642 351.509 288.706 368.563C288.706 368.563 340.497 390.456 294.267 439.052C294.267 439.052 249.9 488.381 197.229 436.852V436.867Z" fill="#D17B5A"/>
<path d="M210.227 435.048C206.764 433.64 202.979 432.819 199.252 433.186C195.526 433.552 191.843 435.165 189.408 437.996C185.769 442.204 185.388 448.539 187.266 453.774C189.1 458.877 192.87 463.203 197.565 465.916C202.26 468.614 207.835 469.714 213.234 469.2C218.765 468.687 224.15 466.473 228.317 462.822C232.498 459.17 235.403 454.053 236.224 448.568C236.224 448.568 213.806 436.5 210.227 435.048Z" fill="#D17B5A"/>
<path d="M194.924 451.589C198.988 448.685 204.328 449.272 208.73 451.061C213.131 452.85 216.975 456.061 219.498 460.138C219.953 460.886 221.142 460.197 220.672 459.449C217.958 455.05 213.865 451.677 209.082 449.741C204.299 447.806 198.562 447.307 194.219 450.401C193.515 450.914 194.19 452.087 194.909 451.574L194.924 451.589Z" fill="#232322"/>
<path d="M208.539 451.179C207.233 454.258 206.72 457.601 207.131 460.93C207.175 461.297 207.409 461.605 207.82 461.619C208.158 461.619 208.554 461.297 208.51 460.93C208.128 457.865 208.51 454.727 209.727 451.868C209.874 451.531 209.83 451.135 209.478 450.929C209.199 450.753 208.686 450.841 208.539 451.179Z" fill="#232322"/>
<path d="M259.891 399.019C258.629 399.092 257.837 400.412 258.365 401.57C260.243 405.617 264.278 413.595 267.315 414.137C272.538 415.076 278.597 411.146 276.118 403.814C274.431 398.813 264.615 398.755 259.891 399.033V399.019Z" fill="#C95F3C"/>
<path d="M267.593 399.84C269.735 400.163 272.112 400.559 273.799 402.04C275.384 403.418 276.117 405.647 275.663 407.7C275.472 408.55 276.792 408.917 276.983 408.066C277.526 405.647 276.792 402.993 274.973 401.262C273.154 399.532 270.454 398.902 267.975 398.535C267.608 398.476 267.241 398.623 267.138 399.019C267.05 399.341 267.241 399.811 267.623 399.855L267.593 399.84Z" fill="#232322"/>
<path d="M267.931 414.68C269.281 414.724 270.66 414.548 271.951 414.152C272.289 414.049 272.538 413.668 272.435 413.316C272.333 412.964 271.966 412.729 271.599 412.832C270.337 413.213 269.252 413.36 267.946 413.316C267.594 413.316 267.242 413.638 267.256 414.005C267.271 414.386 267.55 414.68 267.946 414.694L267.931 414.68Z" fill="#232322"/>
<path d="M268.283 409.415C269.31 410.075 271.041 409.21 272.156 407.48C273.271 405.749 273.359 403.814 272.332 403.154C271.305 402.494 269.574 403.359 268.459 405.09C267.344 406.82 267.256 408.756 268.283 409.415Z" fill="white"/>
<path d="M228.17 456.018C231.574 459.317 236.401 460.549 241.008 460.989C247.287 461.576 253.698 460.725 259.802 459.244C273.798 455.857 286.46 448.921 296.319 438.392C302.951 431.309 308.408 423.2 311.988 414.153C312.311 413.331 310.991 412.98 310.668 413.786C305.019 428.069 294.265 441.296 281.017 449.185C270.086 455.695 256.809 460.036 244 459.787C238.851 459.684 232.997 458.775 229.138 455.05C228.507 454.434 227.539 455.402 228.17 456.018Z" fill="#232322"/>
<path d="M215.157 413.214C217.446 414.973 220.219 410.648 224.063 405.662C227.907 400.661 231.384 396.893 229.11 395.133C226.821 393.373 221.848 395.998 218.004 400.999C214.145 405.999 212.883 411.469 215.172 413.228L215.157 413.214Z" fill="#232322"/>
<path d="M275.016 357.139C276.63 359.529 272.141 362.022 266.903 365.527C261.665 369.046 257.675 372.258 256.061 369.867C254.447 367.477 257.396 362.682 262.634 359.163C267.871 355.643 273.417 354.734 275.031 357.124L275.016 357.139Z" fill="#232322"/>
<path d="M256.81 427.35C264.013 430.077 271.965 428.054 277.937 423.464C283.541 419.153 288.999 412.143 287.605 404.65C287.444 403.785 286.123 404.152 286.285 405.017C287.591 412.041 282.015 418.801 276.704 422.701C271.085 426.837 263.837 428.567 257.176 426.045C256.355 425.737 256.003 427.057 256.81 427.364V427.35Z" fill="#232322"/>
<path d="M240.641 450.167C242.71 452.381 247.331 451.413 250.941 448.026C254.564 444.638 255.811 440.093 253.743 437.878C251.674 435.664 247.053 436.632 243.443 440.019C239.82 443.407 238.572 447.952 240.641 450.167Z" fill="#C95F3C"/>
<path d="M292.858 402.378C294.927 404.592 299.548 403.624 303.157 400.237C306.767 396.849 308.028 392.304 305.96 390.089C303.891 387.875 299.269 388.843 295.66 392.23C292.036 395.618 290.789 400.163 292.858 402.363V402.378Z" fill="#C95F3C"/>
<path d="M256.398 415.164C252.657 412.73 248.52 410.868 244.177 409.841C240.788 409.035 236.826 408.756 233.76 410.721C230.694 412.686 229.373 416.748 229.725 420.385C230.151 424.813 232.22 429.154 234.494 432.922C234.948 433.67 236.137 432.981 235.667 432.233C233.628 428.86 231.779 425.063 231.178 421.133C230.62 417.511 231.574 413.317 235.095 411.528C238.147 409.973 241.903 410.604 245.072 411.484C248.857 412.54 252.422 414.197 255.709 416.338C256.442 416.821 257.132 415.634 256.398 415.164Z" fill="#232322"/>
<path d="M275.135 398.095C273.213 394.679 271.79 391.013 270.983 387.171C270.308 384.003 269.941 380.264 271.643 377.346C273.653 373.885 277.952 373.196 281.576 374.002C285.464 374.868 289.117 376.95 292.36 379.208C293.078 379.707 293.768 378.534 293.049 378.035C289.381 375.483 285.053 373.064 280.564 372.448C276.969 371.964 273.037 372.961 270.866 376.055C268.694 379.149 268.856 382.889 269.443 386.276C270.191 390.675 271.79 394.913 273.976 398.799C274.402 399.562 275.59 398.872 275.15 398.11L275.135 398.095Z" fill="#232322"/>
<path d="M170.219 414.9C174.166 417.745 178.67 419.827 183.57 420.927C186.138 421.499 193.899 423.831 200.266 419.798C203.215 417.936 205.123 414.504 205.24 411.029C205.357 407.539 204.374 404.122 203.171 400.852C201.675 396.79 199.533 392.567 195.351 390.983C193.283 390.192 190.921 390.367 189.087 391.614C185.565 394.004 186.358 398.066 188.69 400.31C190.172 401.732 192.197 402.495 194.222 402.832C200.78 403.902 207.587 400.603 211.695 395.383C215.803 390.162 217.432 383.314 217.256 376.671C217.168 373.489 216.684 370.263 215.261 367.418C213.837 364.574 211.402 362.125 208.35 361.23C205.005 360.248 200.633 361.538 200.34 365.776C200.281 366.612 200.428 367.448 200.721 368.225C201.836 371.055 204.55 372.624 207.353 373.343C211.637 374.457 216.229 373.768 220.366 372.214C231.971 367.873 240.598 356.23 240.906 343.854C241.214 331.477 232.881 319.233 221.1 315.391C209.319 311.549 195.102 316.769 188.999 327.547C186.857 331.316 185.668 335.92 187.605 340.012C188.558 342.021 190.275 343.619 192.417 344.206C197.479 345.613 201.293 340.965 201.865 336.375C202.555 330.891 199.577 325.289 195.014 322.151C190.451 319.013 184.568 318.148 179.11 319.057C174.752 319.776 170.571 321.579 167.035 324.248C163.587 326.858 160.785 330.275 158.54 333.97C153.053 342.944 150.794 354.617 155.445 364.046C156.78 366.759 158.717 369.281 161.387 370.674C164.673 372.404 169.192 372.14 171.466 368.826C172.346 367.55 172.684 365.937 172.332 364.427C171.407 360.482 166.918 359.661 163.793 361.142C161.299 362.315 159.538 364.632 158.174 367.023C154.33 373.783 152.965 381.906 154.403 389.546C154.418 389.634 154.432 389.722 154.462 389.825C156.354 400.002 162.106 409.049 170.234 414.9" fill="#3E241A"/>
<path d="M189.849 439.257C195.043 433.098 203.728 433.596 210.961 434.564C211.827 434.682 211.827 433.318 210.961 433.201C203.376 432.189 194.309 431.851 188.895 438.289C188.338 438.963 189.292 439.931 189.864 439.257H189.849Z" fill="#232322"/>
<path d="M221.319 314.702C213.265 312.165 204.256 313.543 197.185 318.089C190.494 322.386 183.232 331.697 186.929 340.041C188.558 343.736 192.754 346.156 196.715 344.675C200.089 343.414 202.173 339.806 202.584 336.36C203.757 326.726 195.219 319.365 186.357 318.221C165.773 315.567 149.487 338.472 152.686 357.52C153.434 361.978 155.371 366.715 158.863 369.721C161.679 372.14 165.773 373.284 169.25 371.612C172.727 369.941 174.502 365.322 172.008 362.066C170.086 359.559 166.418 359.236 163.66 360.453C159.581 362.272 157.19 366.861 155.62 370.791C153.654 375.718 152.833 381.129 153.302 386.408C154.109 395.573 158.29 404.43 164.702 411C166.301 412.642 168.047 414.108 169.896 415.458C170.6 415.971 171.289 414.798 170.585 414.284C157.469 404.709 150.69 386.599 156.926 371.143C158.408 367.477 160.755 362.829 164.76 361.45C168.326 360.233 172.698 362.521 171.641 366.773C170.526 371.261 164.981 371.862 161.503 369.911C158.026 367.961 155.752 363.826 154.637 359.984C149.957 343.868 161.577 323.412 178.082 319.908C186.298 318.163 195.893 320.685 199.855 328.691C201.557 332.152 201.967 336.434 200.016 339.894C197.903 343.663 193.267 345.115 189.893 341.933C185.77 338.047 187.355 331.683 189.893 327.415C191.903 324.043 194.778 321.213 198.094 319.116C204.858 314.863 213.323 313.587 220.967 316.007C221.803 316.271 222.17 314.951 221.334 314.687L221.319 314.702Z" fill="#232322"/>
<path d="M324.196 401.174C340.217 424.754 350.15 452.351 352.85 480.726C353.612 488.689 353.789 496.68 353.422 504.672C353.378 505.552 354.742 505.552 354.786 504.672C356.107 476.166 350.135 447.439 337.679 421.763C334.099 414.372 329.977 407.275 325.37 400.485C324.886 399.767 323.697 400.441 324.196 401.174Z" fill="#232322"/>
<path d="M351.059 437.585C353.098 444.873 354.654 452.279 355.71 459.772C355.827 460.637 357.148 460.27 357.03 459.405C355.959 451.912 354.419 444.507 352.38 437.219C352.145 436.368 350.824 436.735 351.059 437.585Z" fill="#232322"/>
<path d="M299.18 494.862C299.18 494.862 451.954 562.756 471.555 497.135C471.555 497.135 450.971 460.241 393.811 469.069C336.636 477.882 326.733 469.596 326.733 469.596L299.194 494.862H299.18Z" fill="#F1A07A"/>
<path d="M376.822 471.386C384.113 470.77 391.39 470.125 398.682 469.538C405.108 469.025 411.667 468.233 418.137 468.409C424.607 468.585 431.312 470.169 437.444 472.705C438.251 473.043 438.603 471.723 437.811 471.386C429.375 467.896 420.69 466.693 411.637 467.236C403.876 467.69 396.129 468.38 388.398 469.025C384.539 469.347 380.695 469.685 376.836 470.007C375.971 470.081 375.956 471.444 376.836 471.371L376.822 471.386Z" fill="#232322"/>
<path d="M327.042 196.569C327.042 196.569 330.05 180.336 345.968 180.996C365.731 181.803 367.917 200.748 367.917 200.748L327.027 196.569H327.042Z" fill="#E76C4F"/>
<path d="M367.289 216.286C372.227 205.053 367.12 191.946 355.881 187.011C344.642 182.075 331.528 187.18 326.59 198.413C321.652 209.646 326.759 222.753 337.998 227.689C349.237 232.624 362.351 227.519 367.289 216.286Z" fill="white"/>
<path d="M364.131 209.957C364.278 219.899 356.326 228.082 346.378 228.228C336.431 228.375 328.244 220.427 328.098 210.485C327.951 200.543 335.903 192.361 345.85 192.214C355.798 192.067 363.984 200.015 364.131 209.957Z" fill="#232322"/>
<path d="M326.411 200.309C329.023 190.308 339.044 184.897 348.962 185.953C355.769 186.671 361.506 190.938 365.276 196.481C366.567 198.373 367.741 200.441 368.46 202.626C368.739 203.461 370.059 203.095 369.78 202.259C368.093 197.112 364.44 192.317 360.156 189.061C353.216 183.797 343.372 183.005 335.567 186.906C330.431 189.487 326.529 194.399 325.091 199.942C324.871 200.793 326.191 201.159 326.411 200.309Z" fill="#232322"/>
<path d="M342.154 217.406C342.594 220.882 340.144 224.064 336.652 224.504C333.175 224.944 329.991 222.495 329.551 219.005C329.111 215.53 331.561 212.347 335.053 211.908C338.53 211.468 341.714 213.916 342.154 217.406Z" fill="white"/>
<path d="M327.79 193.93C327.086 193.534 326.397 193.094 325.751 192.61C325.678 192.552 325.604 192.493 325.516 192.434C325.502 192.434 325.428 192.361 325.487 192.405C325.443 192.376 325.414 192.346 325.37 192.317C325.208 192.185 325.047 192.068 324.9 191.936C324.577 191.672 324.269 191.393 323.946 191.115C323.682 190.88 323.242 190.836 322.978 191.115C322.743 191.379 322.699 191.819 322.978 192.083C324.24 193.226 325.59 194.282 327.086 195.103C327.394 195.279 327.849 195.191 328.025 194.854C328.201 194.517 328.113 194.106 327.776 193.915L327.79 193.93Z" fill="#232322"/>
<path d="M347.875 185.16C347.625 183.137 347.757 181.098 348.036 179.089C348.08 178.723 347.948 178.356 347.552 178.254C347.229 178.166 346.76 178.356 346.716 178.738C346.422 180.878 346.246 183.019 346.51 185.175C346.554 185.542 346.789 185.864 347.2 185.864C347.537 185.864 347.933 185.556 347.889 185.175L347.875 185.16Z" fill="#232322"/>
<path d="M360.727 189.633C361.666 187.727 362.972 186.041 364.366 184.457C364.615 184.178 364.645 183.768 364.366 183.489C364.117 183.24 363.647 183.211 363.398 183.489C361.916 185.161 360.522 186.935 359.539 188.944C359.378 189.281 359.451 189.677 359.789 189.883C360.082 190.059 360.566 189.971 360.727 189.633Z" fill="#232322"/>
<path d="M252.568 196.57C252.568 196.57 255.576 180.337 271.495 180.997C291.257 181.804 293.458 200.749 293.458 200.749L252.568 196.57Z" fill="#E76C4F"/>
<path d="M292.724 216.539C297.789 205.362 292.831 192.198 281.649 187.136C270.467 182.073 257.296 187.029 252.23 198.205C247.165 209.381 252.123 222.546 263.305 227.608C274.488 232.671 287.659 227.715 292.724 216.539Z" fill="white"/>
<path d="M290.744 209.958C290.891 219.9 282.939 228.083 272.992 228.229C263.044 228.376 254.858 220.428 254.711 210.486C254.564 200.544 262.516 192.362 272.464 192.215C282.411 192.068 290.598 200.016 290.744 209.958Z" fill="#232322"/>
<path d="M251.923 200.31C254.535 190.309 264.555 184.898 274.473 185.954C281.281 186.672 287.017 190.939 290.788 196.482C292.079 198.374 293.253 200.442 293.972 202.626C294.251 203.462 295.571 203.096 295.292 202.26C293.605 197.113 289.952 192.318 285.668 189.062C278.728 183.798 268.883 183.006 261.078 186.907C255.943 189.488 252.041 194.4 250.603 199.943C250.383 200.794 251.703 201.16 251.923 200.31Z" fill="#232322"/>
<path d="M268.384 217.73C268.825 221.205 266.374 224.387 262.883 224.827C259.405 225.267 256.222 222.818 255.782 219.328C255.341 215.853 257.792 212.671 261.283 212.231C264.761 211.791 267.944 214.24 268.384 217.73Z" fill="white"/>
<path d="M253.302 193.93C252.598 193.534 251.908 193.094 251.263 192.61C251.189 192.552 251.116 192.493 251.028 192.434C251.013 192.434 250.94 192.361 250.999 192.405C250.955 192.376 250.925 192.346 250.881 192.317C250.72 192.185 250.558 192.068 250.412 191.936C250.089 191.672 249.781 191.393 249.458 191.115C249.194 190.88 248.754 190.836 248.49 191.115C248.255 191.379 248.211 191.819 248.49 192.083C249.752 193.226 251.101 194.282 252.598 195.103C252.906 195.279 253.361 195.191 253.537 194.854C253.713 194.517 253.625 194.106 253.287 193.915L253.302 193.93Z" fill="#232322"/>
<path d="M273.388 185.161C273.139 183.138 273.271 181.099 273.55 179.09C273.594 178.724 273.462 178.357 273.066 178.255C272.743 178.167 272.273 178.357 272.229 178.739C271.936 180.879 271.76 183.02 272.024 185.176C272.068 185.543 272.303 185.865 272.714 185.865C273.051 185.865 273.447 185.557 273.403 185.176L273.388 185.161Z" fill="#232322"/>
<path d="M286.239 189.634C287.178 187.728 288.484 186.042 289.878 184.458C290.127 184.179 290.157 183.769 289.878 183.49C289.628 183.241 289.159 183.211 288.909 183.49C287.428 185.162 286.034 186.936 285.051 188.945C284.889 189.282 284.963 189.678 285.3 189.884C285.594 190.06 286.078 189.972 286.239 189.634Z" fill="#232322"/>
<path d="M237.311 199.576C237.311 199.576 206.603 190.22 209.23 152.006C211.841 113.806 268.899 65.1516 346.966 89.9629C403.495 107.926 409.158 182.903 409.158 182.903C409.158 182.903 393.812 186.774 390.217 210.207C390.217 210.207 344.31 152.988 347.509 113.147C347.509 113.147 247.669 114.466 237.326 199.561L237.311 199.576Z" fill="#3E241A"/>
<path d="M235.593 195.983C228.33 188.094 224.56 177.301 225.293 166.597C226.027 155.892 231.617 145.979 239.202 138.471C247.403 130.348 257.894 125.01 268.721 121.241C280.429 117.15 292.694 114.408 304.93 112.487C319.265 110.243 333.804 109.334 348.299 109.73C349.18 109.76 349.18 108.381 348.299 108.366C321.861 107.663 294.69 111.006 269.587 119.511C248.988 126.491 227.274 140.774 224.193 164.148C222.638 175.967 226.585 188.197 234.639 196.951C235.241 197.596 236.194 196.628 235.608 195.983H235.593Z" fill="#6D2E1D"/>
<path d="M365.656 98.7755C363.631 124.819 367.666 151.258 377.364 175.512C380.107 182.36 383.291 189.032 386.885 195.469C387.311 196.232 388.499 195.543 388.059 194.78C375.398 172.124 368.062 146.624 366.712 120.713C366.331 113.395 366.448 106.078 367.006 98.7755C367.079 97.8956 365.714 97.9103 365.641 98.7755H365.656Z" fill="#6D2E1D"/>
<path d="M375.926 137.532C377.07 149.821 379.814 161.889 384.113 173.444C384.421 174.265 385.741 173.913 385.433 173.078C381.178 161.625 378.435 149.689 377.29 137.518C377.202 136.652 375.838 136.638 375.926 137.518V137.532Z" fill="#6D2E1D"/>
<path d="M247.478 136.491C240.025 144.322 235.051 154.308 233.349 164.983C233.217 165.848 234.523 166.215 234.67 165.35C236.342 154.894 241.14 145.128 248.446 137.459C249.048 136.828 248.094 135.861 247.478 136.491Z" fill="#6D2E1D"/>
<path d="M395.705 248.744C398.126 259.009 405.315 267.132 412.695 274.288C413.326 274.904 414.294 273.936 413.663 273.32C406.459 266.311 399.402 258.407 397.026 248.377C396.82 247.527 395.5 247.879 395.705 248.744Z" fill="#6D2E1D"/>
<path d="M411.168 256.223C412.473 257.748 413.779 259.273 415.085 260.798C415.32 261.076 415.804 261.047 416.053 260.798C416.332 260.519 416.288 260.108 416.053 259.83C414.747 258.305 413.442 256.78 412.136 255.255C411.901 254.976 411.417 255.005 411.168 255.255C410.889 255.533 410.933 255.944 411.168 256.223Z" fill="#6D2E1D"/>
<path d="M300.529 249.624C310.608 252.366 320.688 249.624 328.023 241.383C329.388 239.476 330.415 237.409 331.148 235.268C329.916 233.889 328.332 232.922 326.395 232.599C320.35 231.558 316.726 234.637 314.643 237.761C312.97 240.268 309.684 241.119 306.97 239.799C303.038 237.893 297.595 236.896 293.179 242.16C292.709 242.717 292.328 243.377 292.02 244.081C294.308 246.735 297.741 248.524 300.529 249.638V249.624Z" fill="white"/>
<path d="M397.171 233.244C387.444 232.188 379.301 241.06 381.429 250.665C383.556 260.269 394.589 264.757 402.805 259.844C407.309 257.161 409.906 252.234 409.818 247.028C409.803 246.148 408.439 246.148 408.454 247.028C408.6 255.826 400.135 262.542 391.581 259.917C383.028 257.293 379.8 247.013 384.862 239.931C387.679 235.986 392.388 234.08 397.171 234.593C398.037 234.696 398.037 233.317 397.171 233.229V233.244Z" fill="white"/>
<path d="M346.744 480.682L326.703 469.596C326.703 469.596 327.627 448.217 317.812 440.049C316.315 438.802 314.129 438.802 312.56 439.975C310.946 441.178 310.388 443.333 311.195 445.166C312.882 448.979 315.083 455.182 312.442 456.942C308.804 459.361 291.726 453.598 285.329 438.582C284.449 436.515 281.837 435.767 280.048 437.116C277.729 438.861 275.895 442.219 279.211 448.524C279.211 448.524 275.397 445.518 272.066 447.19C268.736 448.862 270.731 456.12 276.424 460.725C276.424 460.725 267.826 460.871 271.171 471.107C271.171 471.107 277.055 487.574 303.434 496.285C329.813 504.995 343.047 509.658 343.047 509.658L346.715 480.697L346.744 480.682Z" fill="#F1A07A"/>
<path d="M279.549 449.932C284.626 458.598 292.108 465.74 301.014 470.388C301.791 470.799 302.481 469.611 301.703 469.215C292.988 464.669 285.697 457.733 280.723 449.243C280.283 448.48 279.094 449.17 279.549 449.932Z" fill="#232322"/>
<path d="M276.439 463.423C280.444 471.253 287.119 477.588 295.159 481.166C295.952 481.518 296.656 480.345 295.849 479.993C288 476.503 281.53 470.388 277.612 462.734C277.216 461.956 276.028 462.646 276.439 463.423Z" fill="#232322"/>
<path d="M325.822 465.095C326.116 469.377 326.13 473.659 325.852 477.94C325.793 478.82 327.157 478.82 327.216 477.94C327.495 473.659 327.48 469.377 327.187 465.095C327.128 464.23 325.763 464.215 325.822 465.095Z" fill="#232322"/>
<path d="M331.164 85.8714C331.164 85.8714 401.851 92.6755 409.143 182.917C409.143 182.917 413.266 182.184 416.64 183.973C416.64 183.973 428.935 102.867 357.397 85.5928C357.191 85.5488 356.986 85.5048 356.781 85.4902C354.301 85.1969 337.957 83.4225 331.164 85.8714Z" fill="#9E5A35"/>
<path d="M391.332 207.539C391.376 200.339 394.589 193.388 399.988 188.622C405.71 183.578 415.526 180.733 421.453 187.126C422.054 187.772 423.023 186.804 422.421 186.159C416.362 179.633 406.327 181.833 400.091 186.76C393.856 191.687 390.012 199.517 389.953 207.539C389.953 208.418 391.318 208.418 391.318 207.539H391.332Z" fill="#232322"/>
<path d="M139.188 225.706C127.7 222.979 116.183 230.076 113.468 241.543C110.74 253.025 117.841 264.536 129.314 267.249C140.802 269.977 152.319 262.879 155.033 251.412C157.762 239.93 150.661 228.419 139.188 225.706ZM130.752 261.222C122.609 259.287 117.562 251.119 119.498 242.981C121.435 234.842 129.607 229.798 137.75 231.733C145.893 233.669 150.94 241.837 149.003 249.975C147.066 258.114 138.894 263.158 130.752 261.222Z" fill="#FF7A31"/>
<path d="M172.727 233.64C171.04 240.766 153.655 247.16 135.124 242.761C116.594 238.362 103.947 224.842 105.649 217.715C107.337 210.588 122.727 212.582 141.257 216.967C159.787 221.366 174.415 226.513 172.727 233.625V233.64Z" fill="#9E5A35"/>
<path d="M125.94 227.833C124.972 227.099 125.25 225.56 126.424 225.252C130.664 224.152 137.839 221.146 136.269 213.638C134.068 203.109 137.31 190.014 149.18 192.83C161.049 195.645 160.726 208.3 149.121 217.612C143.736 221.923 147.918 228.522 150.383 231.587C151.058 232.422 150.603 233.684 149.561 233.904C145.409 234.813 136.122 235.546 125.925 227.833H125.94Z" fill="#FF7A31"/>
<path d="M125.162 227.393C127.348 231.132 132.336 233.317 136.341 234.446C140.699 235.678 145.394 235.707 149.634 234.05C150.441 233.728 150.088 232.408 149.267 232.731C145.35 234.256 141.109 234.3 137.075 233.229C135.065 232.701 133.143 231.909 131.324 230.912C129.416 229.856 127.465 228.625 126.35 226.704C125.91 225.941 124.721 226.63 125.176 227.393H125.162Z" fill="#232322"/>
<path d="M108.687 227.701C112.443 232.731 117.402 236.162 122.948 238.963C128.846 241.94 135.096 244.154 141.727 244.462C142.608 244.506 142.608 243.142 141.727 243.098C135.331 242.805 129.301 240.649 123.637 237.775C118.312 235.092 113.47 231.822 109.861 226.997C109.347 226.308 108.159 226.982 108.687 227.686V227.701Z" fill="#232322"/>
<path d="M67.2968 390.675C67.2968 390.675 59.0367 391.863 59.6236 412.847C60.1958 433.845 59.6236 512.194 59.6236 512.194H59.6383C59.6383 517.092 76.9213 521.066 98.239 521.066C119.557 521.066 136.84 517.092 136.84 512.194V512.063C136.84 512.063 136.253 433.845 136.84 412.847C137.427 391.848 129.167 390.675 129.167 390.675" fill="#FFF0E7"/>
<path d="M58.9497 512.195C59.0671 515.304 63.1751 516.799 65.5959 517.65C71.5085 519.762 77.92 520.568 84.1407 521.14C92.4448 521.888 100.837 521.947 109.141 521.389C115.846 520.935 122.712 520.172 129.168 518.207C131.911 517.371 137.369 515.817 137.516 512.195C137.545 511.315 136.181 511.315 136.151 512.195C136.034 515.054 130.444 516.418 128.405 517.019C122.683 518.691 116.682 519.439 110.755 519.908C97.2864 520.964 82.9376 520.832 69.7626 517.489C67.5032 516.917 65.2144 516.242 63.1457 515.142C62.06 514.556 60.3728 513.632 60.3141 512.21C60.2848 511.33 58.9203 511.33 58.9497 512.21V512.195Z" fill="#232322"/>
<path d="M67.1075 390.03C65.8017 390.235 64.5693 391.276 63.7037 392.2C60.8868 395.265 59.8451 399.693 59.3169 403.696C58.6567 408.697 58.9648 413.727 59.0382 418.756C59.0969 423.141 59.1262 427.525 59.1555 431.91C59.2582 453.304 59.1555 474.699 59.0382 496.094C59.0088 501.461 58.9795 506.842 58.9355 512.209C58.9355 513.089 60.2999 513.089 60.2999 512.209C60.4026 498.352 60.476 484.48 60.52 470.623C60.5787 451.515 60.7841 432.379 60.3146 413.272C60.1679 407.157 60.1972 399.899 63.645 394.546C64.4813 393.256 65.8604 391.599 67.489 391.35C68.3546 391.218 67.9878 389.898 67.1222 390.03H67.1075Z" fill="#232322"/>
<path d="M56.9688 370.351V391.643C56.9688 396.907 75.4402 401.174 98.2251 401.174C121.01 401.174 139.481 396.907 139.481 391.643V370.351H56.9688Z" fill="#9E5A35"/>
<path d="M56.9688 370.351C56.9688 375.615 75.4402 379.882 98.2251 379.882C121.01 379.882 139.481 375.615 139.481 370.351C139.481 365.087 121.01 360.819 98.2251 360.819C75.4402 360.819 56.9688 365.087 56.9688 370.351Z" fill="#9E5A35"/>
<path d="M112.223 356.831C104.975 349.147 104.975 350.173 105.122 342.196C105.268 334.219 98.1673 334.806 98.1673 334.806C98.1673 334.806 91.0663 334.219 91.213 342.196C91.3597 350.173 91.3597 349.147 84.112 356.831C81.2364 359.881 80.4588 363.253 80.5615 366.216C80.7522 371.451 84.6842 375.762 89.8486 376.627C94.3821 377.389 101.938 377.389 106.471 376.627C111.636 375.762 115.582 371.451 115.758 366.216C115.861 363.253 115.084 359.881 112.208 356.831H112.223Z" fill="#9E5A35"/>
<path d="M86.1218 374.456C85.9604 374.354 85.7844 374.236 85.623 374.134C85.535 374.075 85.4469 374.002 85.3589 373.943C85.3149 373.914 85.2855 373.884 85.2415 373.855C85.1388 373.782 85.2709 373.884 85.2122 373.84C84.9041 373.591 84.596 373.327 84.3025 373.048C84.0091 372.77 83.745 372.491 83.4956 372.183C83.4369 372.11 83.3636 372.037 83.3049 371.949C83.2609 371.905 83.2315 371.861 83.1875 371.802C83.2462 371.875 83.1875 371.817 83.1728 371.773C83.0555 371.611 82.9234 371.435 82.8061 371.259C82.6007 370.966 82.1898 370.805 81.8671 371.01C81.5736 371.201 81.4123 371.626 81.6177 371.949C82.6153 373.43 83.9064 374.676 85.4176 375.629C85.7257 375.82 86.1805 375.703 86.3566 375.38C86.5326 375.043 86.4299 374.647 86.1071 374.442L86.1218 374.456Z" fill="#232322"/>
<path d="M104.578 344.777C104.035 352.212 112.046 355.013 114.452 361.142C117.533 369.002 110.828 376.891 102.773 376.378C101.893 376.319 101.893 377.683 102.773 377.742C110.505 378.24 117.284 371.774 116.491 363.884C116.11 360.116 113.953 357.388 111.4 354.749C108.657 351.919 105.62 349.059 105.943 344.777C106.001 343.898 104.637 343.912 104.578 344.777Z" fill="#232322"/>
<path d="M129.725 380.337C129.813 385.073 129.901 389.795 129.989 394.531C130.003 395.411 131.368 395.411 131.353 394.531C131.265 389.795 131.177 385.073 131.089 380.337C131.075 379.457 129.71 379.457 129.725 380.337Z" fill="#232322"/>
<path d="M104.195 383.578C104.283 388.314 104.371 393.036 104.46 397.773C104.474 398.652 105.839 398.652 105.824 397.773C105.736 393.036 105.648 388.314 105.56 383.578C105.545 382.698 104.181 382.698 104.195 383.578Z" fill="#232322"/>
<path d="M117.195 384.883C116.975 388.241 116.916 391.613 117.034 394.971C117.063 395.851 118.428 395.851 118.398 394.971C118.281 391.613 118.34 388.241 118.56 384.883C118.618 384.003 117.254 384.003 117.195 384.883Z" fill="#232322"/>
<path d="M88.4105 384.707C88.2491 388.182 88.2344 391.657 88.3665 395.133C88.3958 396.013 89.7603 396.013 89.7309 395.133C89.5989 391.657 89.6136 388.182 89.7749 384.707C89.819 383.827 88.4545 383.827 88.4105 384.707Z" fill="#232322"/>
<path d="M74.8674 382.888C74.6327 386.804 74.6327 390.719 74.8381 394.649C74.8821 395.529 76.2465 395.529 76.2025 394.649C75.9971 390.734 75.9971 386.804 76.2319 382.888C76.2759 382.009 74.9114 382.009 74.8674 382.888Z" fill="#232322"/>
<path d="M62.251 381.114C62.4124 384.472 62.5738 387.845 62.7352 391.203C62.7792 392.083 64.1437 392.083 64.0997 391.203C63.9383 387.845 63.7769 384.472 63.6155 381.114C63.5715 380.234 62.207 380.234 62.251 381.114Z" fill="#232322"/>
<path d="M67.5903 425.458C71.933 425.912 76.3052 426.147 80.6773 426.147C81.5576 426.147 81.5576 424.783 80.6773 424.783C76.3052 424.783 71.933 424.549 67.5903 424.094C66.71 424.006 66.7247 425.37 67.5903 425.458Z" fill="#232322"/>
<path d="M67.5903 435.986C71.933 436.441 76.3052 436.675 80.6773 436.675C81.5576 436.675 81.5576 435.311 80.6773 435.311C76.3052 435.311 71.933 435.077 67.5903 434.622C66.71 434.534 66.7247 435.898 67.5903 435.986Z" fill="#232322"/>
<path d="M67.5903 446.515C71.933 446.97 76.3052 447.204 80.6773 447.204C81.5576 447.204 81.5576 445.841 80.6773 445.841C76.3052 445.841 71.933 445.606 67.5903 445.152C66.71 445.064 66.7247 446.427 67.5903 446.515Z" fill="#232322"/>
<path d="M67.5903 457.058C71.933 457.513 76.3052 457.747 80.6773 457.747C81.5576 457.747 81.5576 456.384 80.6773 456.384C76.3052 456.384 71.933 456.149 67.5903 455.695C66.71 455.607 66.7247 456.97 67.5903 457.058Z" fill="#232322"/>
<path d="M67.5903 467.588C71.933 468.042 76.3052 468.277 80.6773 468.277C81.5576 468.277 81.5576 466.913 80.6773 466.913C76.3052 466.913 71.933 466.678 67.5903 466.224C66.71 466.136 66.7247 467.5 67.5903 467.588Z" fill="#232322"/>
<path d="M67.5903 478.116C71.933 478.57 76.3052 478.805 80.6773 478.805C81.5576 478.805 81.5576 477.441 80.6773 477.441C76.3052 477.441 71.933 477.207 67.5903 476.752C66.71 476.664 66.7247 478.028 67.5903 478.116Z" fill="#232322"/>
<path d="M67.5903 488.644C71.933 489.099 76.3052 489.333 80.6773 489.333C81.5576 489.333 81.5576 487.97 80.6773 487.97C76.3052 487.97 71.933 487.735 67.5903 487.28C66.71 487.192 66.7247 488.556 67.5903 488.644Z" fill="#232322"/>
<path d="M67.5903 499.173C71.933 499.628 76.3052 499.863 80.6773 499.863C81.5576 499.863 81.5576 498.499 80.6773 498.499C76.3052 498.499 71.933 498.264 67.5903 497.81C66.71 497.722 66.7247 499.085 67.5903 499.173Z" fill="#232322"/>
<path d="M504.715 423.464L506.871 430.077C507.473 431.94 507.781 434.521 510.158 434.726C512.534 434.931 514.941 434.726 517.273 434.726C518.227 434.726 519.195 434.682 520.134 434.726C522.115 434.814 523.699 436.471 523.303 438.524C522.863 440.723 519.239 442.468 517.611 443.656C516.276 444.624 513.195 446.09 512.945 447.953C512.828 448.789 513.224 449.61 513.473 450.387L514.809 454.478C515.601 456.912 517.728 460.945 514.412 462.455C511.992 463.54 509.131 460.549 507.326 459.244L503.878 456.751C503.174 456.238 502.499 455.71 501.56 455.783C500.621 455.857 499.917 456.502 499.183 457.03L495.706 459.567C493.667 461.048 490.542 464.274 488.062 461.795C486.096 459.831 488.165 455.989 488.869 453.804C489.412 452.147 491.07 449.155 490.336 447.366C490.014 446.574 489.265 446.134 488.605 445.665L485.26 443.231C483.529 441.97 479.993 440.298 480.096 437.776C480.242 434.139 484.35 434.726 486.859 434.726H491.319C492.112 434.726 493.065 434.843 493.858 434.653C495.897 434.154 496.264 431.089 496.807 429.418L498.171 425.209C498.479 424.271 498.714 423.083 499.389 422.32C501.003 420.487 503.893 421.294 504.715 423.449C505.008 424.212 506.255 423.889 505.962 423.112C504.803 420.077 500.841 418.86 498.479 421.426C496.924 423.112 496.469 426.323 495.78 428.406C495.383 429.638 495.119 431.148 494.518 432.306C493.916 433.465 493.212 433.45 492.126 433.45C489.251 433.45 486.375 433.377 483.514 433.45C480.653 433.523 478.364 435.738 478.893 438.685C479.333 441.134 482.062 442.498 483.91 443.832L487.784 446.648C488.708 447.322 489.295 447.777 489.075 449.067C488.855 450.358 488.253 451.589 487.857 452.792L486.419 457.235C485.554 459.889 485.935 462.881 489.016 463.848C491.76 464.699 494.034 462.367 496.073 460.901L499.844 458.159C500.753 457.499 501.369 456.883 502.631 457.426C503.687 457.895 504.744 458.951 505.668 459.64L509.439 462.382C511.728 464.054 514.676 464.963 516.716 462.25C518.418 459.977 517.083 457.338 516.32 454.991L514.809 450.328C514.456 449.258 513.928 448.334 514.809 447.308C515.513 446.486 516.833 445.841 517.713 445.196L521.631 442.351C523.67 440.87 525.416 439.037 524.374 436.295C523.333 433.553 520.633 433.45 518.095 433.45H513.283C512.373 433.45 511.097 433.685 510.202 433.45C508.852 433.098 508.705 431.456 508.353 430.356L506.813 425.605L506.006 423.127C505.756 422.335 504.509 422.672 504.759 423.464H504.715Z" fill="#232322"/>
<path d="M61.1501 265.153C61.869 267.352 62.5879 269.566 63.3068 271.766C63.9083 273.628 64.2164 276.209 66.5932 276.414C68.97 276.62 71.3761 276.414 73.7089 276.414C74.6625 276.414 75.6308 276.37 76.5698 276.414C78.5505 276.502 80.135 278.159 79.7389 280.212C79.2987 282.412 75.6749 284.157 74.0463 285.345C72.7112 286.313 69.6302 287.779 69.3808 289.641C69.2634 290.477 69.6595 291.298 69.909 292.075L71.2441 296.167C72.0363 298.601 74.1637 302.633 70.8479 304.144C68.4271 305.229 65.5662 302.238 63.7616 300.932L60.3138 298.44C59.6096 297.926 58.9347 297.398 57.9957 297.472C57.0567 297.545 56.3525 298.19 55.6189 298.718L52.1417 301.255C50.1024 302.736 46.9774 305.962 44.4979 303.484C42.5319 301.519 44.6006 297.677 45.3048 295.492C45.8477 293.835 47.5055 290.844 46.772 289.055C46.4492 288.263 45.701 287.823 45.0407 287.354L41.6956 284.919C39.9644 283.658 36.4286 281.987 36.5313 279.464C36.678 275.828 40.786 276.414 43.2948 276.414H47.755C48.5472 276.414 49.5009 276.532 50.2931 276.341C52.3325 275.842 52.6993 272.778 53.2421 271.106L54.6066 266.898C54.9147 265.959 55.1494 264.771 55.8243 264.009C57.4382 262.176 60.3285 262.982 61.1501 265.138C61.4435 265.9 62.6906 265.578 62.3971 264.801C61.2381 261.765 57.2768 260.548 54.9147 263.114C53.3595 264.801 52.9047 268.012 52.2151 270.094C51.819 271.326 51.5549 272.836 50.9534 273.995C50.3518 275.153 49.6476 275.139 48.5619 275.139C45.6863 275.139 42.8107 275.065 39.9497 275.139C37.0888 275.212 34.8 277.426 35.3282 280.374C35.7683 282.823 38.4972 284.186 40.3458 285.521L44.2191 288.336C45.1434 289.011 45.7303 289.465 45.5102 290.756C45.2901 292.046 44.6886 293.278 44.2925 294.48L42.8547 298.923C41.9891 301.578 42.3705 304.569 45.4515 305.537C48.1951 306.387 50.4692 304.056 52.5085 302.589L56.2791 299.847C57.1887 299.187 57.805 298.572 59.0667 299.114C60.123 299.583 61.1794 300.639 62.1037 301.328L65.8743 304.07C68.163 305.742 71.112 306.651 73.1514 303.939C74.8533 301.666 73.5181 299.026 72.7552 296.68L71.2441 292.017C70.8919 290.946 70.3638 290.022 71.2441 288.996C71.9483 288.175 73.2687 287.53 74.149 286.884L78.0663 284.04C80.1057 282.559 81.8516 280.726 80.8099 277.983C79.7682 275.241 77.0687 275.139 74.5305 275.139H69.7182C68.8086 275.139 67.5322 275.373 66.6372 275.139C65.2874 274.787 65.1407 273.144 64.7886 272.045L63.2481 267.293L62.4412 264.815C62.1917 264.023 60.9447 264.361 61.1941 265.153H61.1501Z" fill="#232322"/>
<path d="M481.285 381.174L482.854 386.027C482.972 386.394 483.324 386.658 483.72 386.658H488.826C490.689 386.658 491.467 389.048 489.956 390.133L485.833 393.125C485.51 393.359 485.378 393.77 485.51 394.136L487.08 398.99C487.652 400.764 485.627 402.231 484.116 401.146L479.994 398.154C479.671 397.92 479.245 397.92 478.923 398.154L474.8 401.146C473.289 402.246 471.264 400.764 471.836 398.99L473.406 394.136C473.523 393.77 473.406 393.359 473.083 393.125L468.961 390.133C467.449 389.033 468.227 386.658 470.09 386.658H475.196C475.592 386.658 475.944 386.409 476.062 386.027L477.631 381.174C478.204 379.399 480.712 379.399 481.285 381.174Z" fill="#9E5A35"/>
<path d="M116.257 295.58L117.827 300.434C117.945 300.8 118.297 301.064 118.693 301.064H123.798C125.662 301.064 126.439 303.454 124.928 304.539L120.805 307.531C120.483 307.765 120.351 308.176 120.483 308.543L122.053 313.396C122.625 315.171 120.6 316.637 119.089 315.552L114.966 312.561C114.643 312.326 114.218 312.326 113.895 312.561L109.773 315.552C108.261 316.652 106.237 315.171 106.809 313.396L108.379 308.543C108.496 308.176 108.379 307.765 108.056 307.531L103.933 304.539C102.422 303.44 103.2 301.064 105.063 301.064H110.169C110.565 301.064 110.917 300.815 111.034 300.434L112.604 295.58C113.176 293.805 115.685 293.805 116.272 295.58H116.257Z" fill="#9E5A35"/>
<path d="M16.1245 335.275L17.6944 340.129C17.8117 340.495 18.1638 340.759 18.56 340.759H23.6657C25.5289 340.759 26.3065 343.15 24.7954 344.235L20.6727 347.226C20.3499 347.461 20.2179 347.871 20.3499 348.238L21.9197 353.092C22.4919 354.866 20.4673 356.332 18.9561 355.247L14.8334 352.256C14.5106 352.021 14.0852 352.021 13.7624 352.256L9.63969 355.247C8.12852 356.347 6.10385 354.866 6.67604 353.092L8.24589 348.238C8.36327 347.871 8.24589 347.461 7.92312 347.226L3.80042 344.235C2.28926 343.135 3.06685 340.759 4.93013 340.759H10.0358C10.4319 340.759 10.7841 340.51 10.9014 340.129L12.4713 335.275C13.0435 333.501 15.5523 333.501 16.1392 335.275H16.1245Z" fill="#9E5A35"/>
</g>
<path d="M117.975 593.909V623H113.287L99.5799 603.185H99.3384V623H94.0685V593.909H98.7844L112.478 613.739H112.733V593.909H117.975ZM133.007 623.426C130.876 623.426 129.029 622.957 127.467 622.02C125.904 621.082 124.692 619.771 123.831 618.085C122.978 616.4 122.552 614.43 122.552 612.176C122.552 609.922 122.978 607.948 123.831 606.253C124.692 604.558 125.904 603.241 127.467 602.304C129.029 601.366 130.876 600.898 133.007 600.898C135.137 600.898 136.984 601.366 138.547 602.304C140.109 603.241 141.316 604.558 142.169 606.253C143.03 607.948 143.461 609.922 143.461 612.176C143.461 614.43 143.03 616.4 142.169 618.085C141.316 619.771 140.109 621.082 138.547 622.02C136.984 622.957 135.137 623.426 133.007 623.426ZM133.035 619.307C134.19 619.307 135.156 618.99 135.933 618.355C136.709 617.711 137.287 616.849 137.666 615.77C138.054 614.69 138.248 613.488 138.248 612.162C138.248 610.827 138.054 609.619 137.666 608.54C137.287 607.451 136.709 606.584 135.933 605.94C135.156 605.296 134.19 604.974 133.035 604.974C131.851 604.974 130.867 605.296 130.081 605.94C129.304 606.584 128.722 607.451 128.333 608.54C127.955 609.619 127.765 610.827 127.765 612.162C127.765 613.488 127.955 614.69 128.333 615.77C128.722 616.849 129.304 617.711 130.081 618.355C130.867 618.99 131.851 619.307 133.035 619.307ZM167.265 623.426C165.087 623.426 163.216 622.948 161.654 621.991C160.101 621.035 158.903 619.714 158.06 618.028C157.227 616.333 156.81 614.383 156.81 612.176C156.81 609.96 157.236 608.005 158.088 606.31C158.941 604.605 160.143 603.279 161.696 602.332C163.259 601.376 165.105 600.898 167.236 600.898C169.007 600.898 170.574 601.224 171.938 601.878C173.311 602.522 174.405 603.436 175.219 604.619C176.033 605.794 176.498 607.167 176.611 608.739H171.696C171.498 607.687 171.024 606.812 170.276 606.111C169.537 605.401 168.548 605.045 167.307 605.045C166.256 605.045 165.333 605.33 164.537 605.898C163.742 606.456 163.122 607.261 162.676 608.312C162.241 609.364 162.023 610.623 162.023 612.091C162.023 613.578 162.241 614.856 162.676 615.926C163.112 616.987 163.723 617.806 164.509 618.384C165.304 618.952 166.237 619.236 167.307 619.236C168.065 619.236 168.742 619.094 169.338 618.81C169.944 618.516 170.451 618.095 170.858 617.545C171.266 616.996 171.545 616.329 171.696 615.543H176.611C176.488 617.086 176.033 618.455 175.248 619.648C174.462 620.831 173.391 621.759 172.037 622.432C170.683 623.095 169.092 623.426 167.265 623.426ZM187.112 623.44C185.729 623.44 184.484 623.194 183.376 622.702C182.278 622.2 181.406 621.461 180.762 620.486C180.128 619.51 179.811 618.308 179.811 616.878C179.811 615.647 180.038 614.629 180.493 613.824C180.947 613.019 181.567 612.375 182.353 611.892C183.139 611.409 184.025 611.045 185.01 610.798C186.004 610.543 187.031 610.358 188.092 610.244C189.37 610.112 190.407 609.993 191.203 609.889C191.998 609.776 192.576 609.605 192.936 609.378C193.305 609.141 193.49 608.777 193.49 608.284V608.199C193.49 607.129 193.172 606.3 192.538 605.713C191.904 605.126 190.99 604.832 189.797 604.832C188.537 604.832 187.538 605.107 186.799 605.656C186.07 606.205 185.578 606.854 185.322 607.602L180.521 606.92C180.9 605.595 181.525 604.487 182.396 603.597C183.267 602.697 184.333 602.025 185.592 601.58C186.851 601.125 188.243 600.898 189.768 600.898C190.819 600.898 191.866 601.021 192.907 601.267C193.949 601.513 194.901 601.92 195.762 602.489C196.624 603.047 197.315 603.81 197.836 604.776C198.367 605.741 198.632 606.949 198.632 608.398V623H193.689V620.003H193.518C193.206 620.609 192.765 621.177 192.197 621.707C191.638 622.228 190.933 622.65 190.081 622.972C189.238 623.284 188.248 623.44 187.112 623.44ZM188.447 619.662C189.479 619.662 190.374 619.458 191.132 619.051C191.889 618.634 192.472 618.085 192.879 617.403C193.296 616.722 193.504 615.978 193.504 615.173V612.602C193.343 612.735 193.068 612.858 192.68 612.972C192.301 613.085 191.875 613.185 191.402 613.27C190.928 613.355 190.459 613.431 189.995 613.497C189.531 613.563 189.129 613.62 188.788 613.668C188.021 613.772 187.334 613.942 186.728 614.179C186.122 614.416 185.644 614.747 185.294 615.173C184.943 615.59 184.768 616.13 184.768 616.793C184.768 617.74 185.114 618.455 185.805 618.938C186.496 619.42 187.377 619.662 188.447 619.662ZM203.802 623V601.182H208.788V604.818H209.015C209.413 603.559 210.095 602.588 211.061 601.906C212.036 601.215 213.149 600.869 214.399 600.869C214.683 600.869 215 600.884 215.35 600.912C215.71 600.931 216.009 600.964 216.245 601.011V605.741C216.028 605.666 215.682 605.599 215.208 605.543C214.744 605.476 214.295 605.443 213.859 605.443C212.922 605.443 212.079 605.647 211.331 606.054C210.592 606.452 210.01 607.006 209.583 607.716C209.157 608.426 208.944 609.245 208.944 610.173V623H203.802ZM228.422 623.426C226.235 623.426 224.346 622.972 222.755 622.062C221.173 621.144 219.956 619.847 219.104 618.17C218.252 616.485 217.826 614.501 217.826 612.219C217.826 609.974 218.252 608.005 219.104 606.31C219.966 604.605 221.168 603.279 222.712 602.332C224.256 601.376 226.069 600.898 228.152 600.898C229.497 600.898 230.766 601.116 231.959 601.551C233.162 601.977 234.222 602.64 235.141 603.54C236.069 604.439 236.798 605.585 237.328 606.977C237.859 608.36 238.124 610.008 238.124 611.92V613.497H220.24V610.031H233.195C233.185 609.046 232.972 608.17 232.556 607.403C232.139 606.627 231.557 606.016 230.809 605.571C230.07 605.126 229.208 604.903 228.223 604.903C227.172 604.903 226.249 605.159 225.453 605.67C224.658 606.172 224.038 606.835 223.593 607.659C223.157 608.473 222.935 609.368 222.925 610.344V613.369C222.925 614.638 223.157 615.727 223.621 616.636C224.085 617.536 224.734 618.227 225.567 618.71C226.4 619.184 227.376 619.42 228.493 619.42C229.241 619.42 229.918 619.316 230.525 619.108C231.131 618.89 231.656 618.573 232.101 618.156C232.546 617.74 232.882 617.223 233.11 616.608L237.911 617.148C237.608 618.417 237.03 619.525 236.178 620.472C235.335 621.409 234.256 622.138 232.939 622.659C231.623 623.17 230.117 623.426 228.422 623.426ZM251.963 631.636C250.116 631.636 248.53 631.385 247.204 630.884C245.878 630.391 244.813 629.728 244.008 628.895C243.203 628.062 242.645 627.138 242.332 626.125L246.963 625.003C247.171 625.429 247.474 625.85 247.872 626.267C248.27 626.693 248.805 627.044 249.477 627.318C250.159 627.602 251.016 627.744 252.048 627.744C253.506 627.744 254.714 627.389 255.67 626.679C256.627 625.978 257.105 624.823 257.105 623.213V619.08H256.849C256.584 619.61 256.196 620.154 255.684 620.713C255.182 621.272 254.515 621.741 253.681 622.119C252.858 622.498 251.821 622.688 250.571 622.688C248.895 622.688 247.375 622.295 246.011 621.509C244.657 620.713 243.577 619.529 242.772 617.957C241.977 616.376 241.579 614.397 241.579 612.02C241.579 609.624 241.977 607.602 242.772 605.955C243.577 604.297 244.662 603.043 246.025 602.19C247.389 601.329 248.909 600.898 250.585 600.898C251.863 600.898 252.914 601.116 253.738 601.551C254.572 601.977 255.234 602.493 255.727 603.099C256.219 603.696 256.593 604.259 256.849 604.79H257.133V601.182H262.204V623.355C262.204 625.221 261.759 626.764 260.869 627.986C259.979 629.207 258.762 630.121 257.218 630.727C255.675 631.333 253.923 631.636 251.963 631.636ZM252.005 618.653C253.094 618.653 254.022 618.388 254.789 617.858C255.556 617.328 256.139 616.565 256.537 615.571C256.934 614.577 257.133 613.384 257.133 611.991C257.133 610.618 256.934 609.416 256.537 608.384C256.148 607.351 255.571 606.551 254.804 605.983C254.046 605.405 253.113 605.116 252.005 605.116C250.859 605.116 249.903 605.415 249.136 606.011C248.369 606.608 247.791 607.427 247.403 608.469C247.015 609.501 246.821 610.675 246.821 611.991C246.821 613.327 247.015 614.496 247.403 615.5C247.801 616.494 248.383 617.271 249.15 617.83C249.927 618.379 250.878 618.653 252.005 618.653ZM267.474 623V601.182H272.616V623H267.474ZM270.059 598.085C269.245 598.085 268.544 597.815 267.957 597.276C267.37 596.726 267.076 596.068 267.076 595.301C267.076 594.525 267.37 593.866 267.957 593.327C268.544 592.777 269.245 592.503 270.059 592.503C270.883 592.503 271.584 592.777 272.162 593.327C272.749 593.866 273.042 594.525 273.042 595.301C273.042 596.068 272.749 596.726 272.162 597.276C271.584 597.815 270.883 598.085 270.059 598.085ZM297.392 601.182L289.623 623H283.941L276.171 601.182H281.654L286.668 617.389H286.895L291.924 601.182H297.392ZM309.868 623.426C307.68 623.426 305.791 622.972 304.2 622.062C302.618 621.144 301.402 619.847 300.549 618.17C299.697 616.485 299.271 614.501 299.271 612.219C299.271 609.974 299.697 608.005 300.549 606.31C301.411 604.605 302.614 603.279 304.157 602.332C305.701 601.376 307.514 600.898 309.598 600.898C310.942 600.898 312.211 601.116 313.404 601.551C314.607 601.977 315.668 602.64 316.586 603.54C317.514 604.439 318.243 605.585 318.774 606.977C319.304 608.36 319.569 610.008 319.569 611.92V613.497H301.686V610.031H314.64C314.631 609.046 314.418 608.17 314.001 607.403C313.584 606.627 313.002 606.016 312.254 605.571C311.515 605.126 310.654 604.903 309.669 604.903C308.618 604.903 307.694 605.159 306.899 605.67C306.103 606.172 305.483 606.835 305.038 607.659C304.602 608.473 304.38 609.368 304.37 610.344V613.369C304.37 614.638 304.602 615.727 305.066 616.636C305.53 617.536 306.179 618.227 307.012 618.71C307.846 619.184 308.821 619.42 309.939 619.42C310.687 619.42 311.364 619.316 311.97 619.108C312.576 618.89 313.101 618.573 313.547 618.156C313.992 617.74 314.328 617.223 314.555 616.608L319.356 617.148C319.053 618.417 318.475 619.525 317.623 620.472C316.78 621.409 315.701 622.138 314.385 622.659C313.068 623.17 311.563 623.426 309.868 623.426ZM323.919 623V601.182H328.905V604.818H329.132C329.53 603.559 330.212 602.588 331.178 601.906C332.153 601.215 333.266 600.869 334.516 600.869C334.8 600.869 335.117 600.884 335.468 600.912C335.828 600.931 336.126 600.964 336.363 601.011V605.741C336.145 605.666 335.799 605.599 335.326 605.543C334.862 605.476 334.412 605.443 333.976 605.443C333.039 605.443 332.196 605.647 331.448 606.054C330.709 606.452 330.127 607.006 329.701 607.716C329.275 608.426 329.061 609.245 329.061 610.173V623H323.919ZM355.979 623.44C354.596 623.44 353.351 623.194 352.243 622.702C351.145 622.2 350.274 621.461 349.63 620.486C348.995 619.51 348.678 618.308 348.678 616.878C348.678 615.647 348.905 614.629 349.36 613.824C349.814 613.019 350.435 612.375 351.221 611.892C352.007 611.409 352.892 611.045 353.877 610.798C354.871 610.543 355.899 610.358 356.959 610.244C358.238 610.112 359.275 609.993 360.07 609.889C360.865 609.776 361.443 609.605 361.803 609.378C362.172 609.141 362.357 608.777 362.357 608.284V608.199C362.357 607.129 362.04 606.3 361.405 605.713C360.771 605.126 359.857 604.832 358.664 604.832C357.404 604.832 356.405 605.107 355.667 605.656C354.937 606.205 354.445 606.854 354.189 607.602L349.388 606.92C349.767 605.595 350.392 604.487 351.263 603.597C352.134 602.697 353.2 602.025 354.459 601.58C355.719 601.125 357.111 600.898 358.635 600.898C359.686 600.898 360.733 601.021 361.775 601.267C362.816 601.513 363.768 601.92 364.63 602.489C365.491 603.047 366.183 603.81 366.703 604.776C367.234 605.741 367.499 606.949 367.499 608.398V623H362.556V620.003H362.385C362.073 620.609 361.632 621.177 361.064 621.707C360.506 622.228 359.8 622.65 358.948 622.972C358.105 623.284 357.115 623.44 355.979 623.44ZM357.314 619.662C358.346 619.662 359.241 619.458 359.999 619.051C360.757 618.634 361.339 618.085 361.746 617.403C362.163 616.722 362.371 615.978 362.371 615.173V612.602C362.21 612.735 361.935 612.858 361.547 612.972C361.168 613.085 360.742 613.185 360.269 613.27C359.795 613.355 359.327 613.431 358.863 613.497C358.399 613.563 357.996 613.62 357.655 613.668C356.888 613.772 356.202 613.942 355.596 614.179C354.989 614.416 354.511 614.747 354.161 615.173C353.81 615.59 353.635 616.13 353.635 616.793C353.635 617.74 353.981 618.455 354.672 618.938C355.364 619.42 356.244 619.662 357.314 619.662ZM391.377 601.182L383.607 623H377.925L370.155 601.182H375.638L380.652 617.389H380.88L385.908 601.182H391.377ZM400.588 623.44C399.206 623.44 397.961 623.194 396.853 622.702C395.754 622.2 394.883 621.461 394.239 620.486C393.605 619.51 393.287 618.308 393.287 616.878C393.287 615.647 393.515 614.629 393.969 613.824C394.424 613.019 395.044 612.375 395.83 611.892C396.616 611.409 397.501 611.045 398.486 610.798C399.48 610.543 400.508 610.358 401.569 610.244C402.847 610.112 403.884 609.993 404.679 609.889C405.475 609.776 406.052 609.605 406.412 609.378C406.782 609.141 406.966 608.777 406.966 608.284V608.199C406.966 607.129 406.649 606.3 406.015 605.713C405.38 605.126 404.466 604.832 403.273 604.832C402.014 604.832 401.015 605.107 400.276 605.656C399.547 606.205 399.054 606.854 398.799 607.602L393.998 606.92C394.376 605.595 395.001 604.487 395.873 603.597C396.744 602.697 397.809 602.025 399.069 601.58C400.328 601.125 401.72 600.898 403.245 600.898C404.296 600.898 405.342 601.021 406.384 601.267C407.426 601.513 408.377 601.92 409.239 602.489C410.101 603.047 410.792 603.81 411.313 604.776C411.843 605.741 412.108 606.949 412.108 608.398V623H407.165V620.003H406.995C406.682 620.609 406.242 621.177 405.674 621.707C405.115 622.228 404.409 622.65 403.557 622.972C402.714 623.284 401.725 623.44 400.588 623.44ZM401.924 619.662C402.956 619.662 403.851 619.458 404.608 619.051C405.366 618.634 405.948 618.085 406.355 617.403C406.772 616.722 406.98 615.978 406.98 615.173V612.602C406.819 612.735 406.545 612.858 406.157 612.972C405.778 613.085 405.352 613.185 404.878 613.27C404.405 613.355 403.936 613.431 403.472 613.497C403.008 613.563 402.605 613.62 402.265 613.668C401.498 613.772 400.811 613.942 400.205 614.179C399.599 614.416 399.121 614.747 398.77 615.173C398.42 615.59 398.245 616.13 398.245 616.793C398.245 617.74 398.59 618.455 399.282 618.938C399.973 619.42 400.854 619.662 401.924 619.662ZM417.279 623V601.182H422.421V623H417.279ZM419.864 598.085C419.05 598.085 418.349 597.815 417.762 597.276C417.175 596.726 416.881 596.068 416.881 595.301C416.881 594.525 417.175 593.866 417.762 593.327C418.349 592.777 419.05 592.503 419.864 592.503C420.688 592.503 421.389 592.777 421.966 593.327C422.553 593.866 422.847 594.525 422.847 595.301C422.847 596.068 422.553 596.726 421.966 597.276C421.389 597.815 420.688 598.085 419.864 598.085ZM432.85 593.909V623H427.708V593.909H432.85ZM444.417 623.44C443.034 623.44 441.789 623.194 440.681 622.702C439.582 622.2 438.711 621.461 438.067 620.486C437.433 619.51 437.115 618.308 437.115 616.878C437.115 615.647 437.343 614.629 437.797 613.824C438.252 613.019 438.872 612.375 439.658 611.892C440.444 611.409 441.329 611.045 442.314 610.798C443.309 610.543 444.336 610.358 445.397 610.244C446.675 610.112 447.712 609.993 448.507 609.889C449.303 609.776 449.881 609.605 450.24 609.378C450.61 609.141 450.794 608.777 450.794 608.284V608.199C450.794 607.129 450.477 606.3 449.843 605.713C449.208 605.126 448.294 604.832 447.101 604.832C445.842 604.832 444.843 605.107 444.104 605.656C443.375 606.205 442.882 606.854 442.627 607.602L437.826 606.92C438.204 605.595 438.829 604.487 439.701 603.597C440.572 602.697 441.637 602.025 442.897 601.58C444.156 601.125 445.548 600.898 447.073 600.898C448.124 600.898 449.17 601.021 450.212 601.267C451.254 601.513 452.205 601.92 453.067 602.489C453.929 603.047 454.62 603.81 455.141 604.776C455.671 605.741 455.936 606.949 455.936 608.398V623H450.993V620.003H450.823C450.51 620.609 450.07 621.177 449.502 621.707C448.943 622.228 448.238 622.65 447.385 622.972C446.542 623.284 445.553 623.44 444.417 623.44ZM445.752 619.662C446.784 619.662 447.679 619.458 448.436 619.051C449.194 618.634 449.776 618.085 450.184 617.403C450.6 616.722 450.809 615.978 450.809 615.173V612.602C450.648 612.735 450.373 612.858 449.985 612.972C449.606 613.085 449.18 613.185 448.706 613.27C448.233 613.355 447.764 613.431 447.3 613.497C446.836 613.563 446.434 613.62 446.093 613.668C445.326 613.772 444.639 613.942 444.033 614.179C443.427 614.416 442.949 614.747 442.598 615.173C442.248 615.59 442.073 616.13 442.073 616.793C442.073 617.74 442.418 618.455 443.11 618.938C443.801 619.42 444.682 619.662 445.752 619.662ZM461.334 623V593.909H466.476V604.79H466.689C466.954 604.259 467.328 603.696 467.811 603.099C468.294 602.493 468.948 601.977 469.772 601.551C470.596 601.116 471.647 600.898 472.925 600.898C474.611 600.898 476.131 601.329 477.485 602.19C478.848 603.043 479.928 604.307 480.723 605.983C481.528 607.65 481.931 609.695 481.931 612.119C481.931 614.515 481.538 616.551 480.752 618.227C479.966 619.903 478.896 621.182 477.542 622.062C476.187 622.943 474.653 623.384 472.939 623.384C471.689 623.384 470.652 623.175 469.828 622.759C469.005 622.342 468.342 621.84 467.84 621.253C467.347 620.656 466.964 620.093 466.689 619.562H466.391V623H461.334ZM466.377 612.091C466.377 613.502 466.576 614.738 466.973 615.798C467.381 616.859 467.963 617.687 468.721 618.284C469.488 618.871 470.416 619.165 471.505 619.165C472.641 619.165 473.593 618.862 474.36 618.256C475.127 617.64 475.704 616.802 476.093 615.741C476.49 614.671 476.689 613.455 476.689 612.091C476.689 610.737 476.495 609.534 476.107 608.483C475.719 607.432 475.141 606.608 474.374 606.011C473.607 605.415 472.65 605.116 471.505 605.116C470.406 605.116 469.473 605.405 468.706 605.983C467.939 606.561 467.357 607.37 466.959 608.412C466.571 609.454 466.377 610.68 466.377 612.091ZM491.444 593.909V623H486.302V593.909H491.444ZM506.391 623.426C504.203 623.426 502.314 622.972 500.723 622.062C499.142 621.144 497.925 619.847 497.073 618.17C496.221 616.485 495.794 614.501 495.794 612.219C495.794 609.974 496.221 608.005 497.073 606.31C497.935 604.605 499.137 603.279 500.681 602.332C502.224 601.376 504.038 600.898 506.121 600.898C507.466 600.898 508.735 601.116 509.928 601.551C511.131 601.977 512.191 602.64 513.11 603.54C514.038 604.439 514.767 605.585 515.297 606.977C515.828 608.36 516.093 610.008 516.093 611.92V613.497H498.209V610.031H511.164C511.154 609.046 510.941 608.17 510.525 607.403C510.108 606.627 509.525 606.016 508.777 605.571C508.039 605.126 507.177 604.903 506.192 604.903C505.141 604.903 504.218 605.159 503.422 605.67C502.627 606.172 502.007 606.835 501.561 607.659C501.126 608.473 500.903 609.368 500.894 610.344V613.369C500.894 614.638 501.126 615.727 501.59 616.636C502.054 617.536 502.703 618.227 503.536 618.71C504.369 619.184 505.345 619.42 506.462 619.42C507.21 619.42 507.887 619.316 508.493 619.108C509.099 618.89 509.625 618.573 510.07 618.156C510.515 617.74 510.851 617.223 511.078 616.608L515.88 617.148C515.577 618.417 514.999 619.525 514.147 620.472C513.304 621.409 512.224 622.138 510.908 622.659C509.592 623.17 508.086 623.426 506.391 623.426Z" fill="#9E5A35"/>
<defs>
<clipPath id="clip0_784_1845">
<rect width="609" height="529" fill="white"/>
</clipPath>
</defs>
</svg>
