<svg width="30" height="29" viewBox="0 0 30 29" fill="none" xmlns="http://www.w3.org/2000/svg">
<path d="M12.497 2.54385C13.2905 0.101742 16.7454 0.101741 17.5389 2.54385L19.1838 7.6062C19.5386 8.69835 20.5564 9.43778 21.7047 9.43778H27.0276C29.5954 9.43778 30.663 12.7236 28.5857 14.2329L24.2794 17.3616C23.3503 18.0366 22.9616 19.233 23.3164 20.3252L24.9613 25.3875C25.7548 27.8296 22.9597 29.8604 20.8823 28.3511L16.576 25.2224C15.647 24.5474 14.389 24.5474 13.4599 25.2224L9.15365 28.3511C7.07627 29.8604 4.28117 27.8296 5.07466 25.3875L6.71952 20.3252C7.07438 19.233 6.68564 18.0366 5.7566 17.3616L1.45031 14.2329C-0.627072 12.7236 0.440558 9.43778 3.00834 9.43778H8.33122C9.47956 9.43778 10.4973 8.69835 10.8522 7.6062L12.497 2.54385Z" fill="#E4A70A"/>
</svg>
