<svg width="97" height="20" viewBox="0 0 97 20" fill="none" xmlns="http://www.w3.org/2000/svg">
<path d="M11.0853 3.20408L12.7422 7.7595L17.6086 7.91878C18.1209 7.93471 18.337 8.57979 17.9288 8.89835L14.0868 11.8689L15.4395 16.5199C15.5836 17.0137 15.0313 17.4119 14.6071 17.1252L10.5811 14.4095L6.55504 17.1252C6.13082 17.4119 5.57854 17.0137 5.72262 16.5199L7.0753 11.8689L3.21735 8.89835C2.80914 8.58776 3.02525 7.93471 3.53751 7.91878L8.40397 7.7595L10.0608 3.20408C10.2289 2.72624 10.9092 2.72624 11.0853 3.20408Z" fill="#9E5A35"/>
<path d="M49.5072 3.20408L51.164 7.7595L56.0305 7.91878C56.5428 7.93471 56.7589 8.57979 56.3507 8.89835L52.5087 11.8689L53.8614 16.5199C54.0055 17.0137 53.4532 17.4119 53.029 17.1252L49.0029 14.4095L44.9769 17.1252C44.5527 17.4119 44.0004 17.0137 44.1445 16.5199L45.4972 11.8689L41.6392 8.89835C41.231 8.58776 41.4471 7.93471 41.9594 7.91878L46.8258 7.7595L48.4827 3.20408C48.6508 2.72624 49.3311 2.72624 49.5072 3.20408Z" fill="#9E5A35"/>
<path d="M30.2963 3.20408L31.9531 7.7595L36.8196 7.91878C37.3318 7.93471 37.5479 8.57979 37.1397 8.89835L33.2978 11.8689L34.6505 16.5199C34.7945 17.0137 34.2423 17.4119 33.818 17.1252L29.792 14.4095L25.766 17.1252C25.3418 17.4119 24.7895 17.0137 24.9336 16.5199L26.2862 11.8689L22.4283 8.89835C22.0201 8.58776 22.2362 7.93471 22.7484 7.91878L27.6149 7.7595L29.2717 3.20408C29.4398 2.72624 30.1202 2.72624 30.2963 3.20408Z" fill="#9E5A35"/>
<path d="M68.7162 3.20408L70.373 7.7595L75.2395 7.91878C75.7517 7.93471 75.9679 8.57979 75.5597 8.89835L71.7177 11.8689L73.0704 16.5199C73.2145 17.0137 72.6622 17.4119 72.238 17.1252L68.2119 14.4095L64.1859 17.1252C63.7617 17.4119 63.2094 17.0137 63.3535 16.5199L64.7062 11.8689L60.8482 8.89835C60.44 8.58776 60.6561 7.93471 61.1684 7.91878L66.0348 7.7595L67.6917 3.20408C67.8598 2.72624 68.5401 2.72624 68.7162 3.20408Z" fill="#9E5A35"/>
<path d="M87.9271 3.20115L89.584 7.75657L94.4504 7.91585C94.9627 7.93178 95.1788 8.57686 94.7706 8.89542L90.9286 11.866L92.2813 16.517C92.4254 17.0108 91.8731 17.409 91.4489 17.1223L87.4229 14.4065L83.3968 17.1223C82.9726 17.409 82.4203 17.0108 82.5644 16.517L83.9171 11.866L80.0591 8.89542C79.6509 8.58483 79.867 7.93178 80.3793 7.91585L85.2458 7.75657L86.9026 3.20115C87.0707 2.72331 87.751 2.72331 87.9271 3.20115Z" fill="#9E5A35" fill-opacity="0.16"/>
</svg>
