<svg width="40" height="40" viewBox="0 0 40 40" fill="none" xmlns="http://www.w3.org/2000/svg">
<rect opacity="0.25" x="1" y="0.828125" width="38" height="38" rx="19" stroke="white"/>
<path fill-rule="evenodd" clip-rule="evenodd" d="M16.2395 26.3281H13.168V17.3281H16.2395V26.3281Z" fill="white"/>
<path fill-rule="evenodd" clip-rule="evenodd" d="M14.6946 15.3281H14.6772C13.7605 15.3281 13.168 14.6612 13.168 13.8276C13.168 12.9764 13.7786 12.3281 14.7126 12.3281C15.6466 12.3281 16.2218 12.9764 16.2395 13.8276C16.2395 14.6612 15.6466 15.3281 14.6946 15.3281Z" fill="white"/>
<path fill-rule="evenodd" clip-rule="evenodd" d="M27.5036 26.3279H24.4854V21.6235C24.4854 20.4418 24.0486 19.6355 22.9559 19.6355C22.122 19.6355 21.6253 20.1791 21.4072 20.7041C21.3274 20.8923 21.3078 21.1544 21.3078 21.4172V26.3281H18.2891C18.2891 26.3281 18.3288 18.36 18.2891 17.5348H21.3078V18.7803C21.7084 18.1816 22.4259 17.3281 24.0285 17.3281C26.0147 17.3281 27.5038 18.5852 27.5038 21.2861L27.5036 26.3279Z" fill="white"/>
</svg>
