<svg width="40" height="40" viewBox="0 0 40 40" fill="none" xmlns="http://www.w3.org/2000/svg">
<rect opacity="0.25" x="1" y="0.828125" width="38" height="38" rx="19" stroke="white"/>
<path fill-rule="evenodd" clip-rule="evenodd" d="M20.2978 17.2543L20.3281 17.7301L19.8224 17.6718C17.9813 17.4485 16.3729 16.6911 15.0073 15.4191L14.3396 14.788L14.1676 15.2541C13.8035 16.293 14.0361 17.3902 14.7948 18.1282C15.1994 18.536 15.1084 18.5943 14.4104 18.3515C14.1676 18.2738 13.9552 18.2156 13.935 18.2447C13.8642 18.3127 14.1069 19.1963 14.2991 19.5458C14.5622 20.0313 15.0983 20.5071 15.685 20.7887L16.1807 21.012L15.594 21.0217C15.0275 21.0217 15.0073 21.0314 15.0679 21.2353C15.2703 21.8665 16.0694 22.5364 16.9596 22.8277L17.5868 23.0316L17.0405 23.3424C16.2313 23.789 15.2804 24.0415 14.3295 24.0609C13.8743 24.0706 13.5 24.1094 13.5 24.1386C13.5 24.2357 14.7341 24.7794 15.4523 24.993C17.607 25.6242 20.1663 25.3523 22.0883 24.2745C23.4539 23.5074 24.8195 21.983 25.4568 20.5071C25.8008 19.7206 26.1447 18.2835 26.1447 17.5941C26.1447 17.1475 26.1751 17.0892 26.7415 16.5552C27.0754 16.2445 27.389 15.9046 27.4497 15.8075C27.5508 15.623 27.5407 15.623 27.0248 15.7881C26.1649 16.0794 26.0436 16.0406 26.4684 15.6036C26.782 15.2929 27.1563 14.7297 27.1563 14.5647C27.1563 14.5355 27.0046 14.5841 26.8326 14.6715C26.6505 14.7686 26.2459 14.9142 25.9424 15.0016L25.3961 15.1667L24.9005 14.8463C24.6273 14.6715 24.243 14.4773 24.0406 14.419C23.5247 14.2831 22.7357 14.3025 22.2704 14.4579C21.0059 14.8948 20.2068 16.0212 20.2978 17.2543Z" fill="white"/>
</svg>
