<svg width="145" height="145" viewBox="0 0 145 145" fill="none" xmlns="http://www.w3.org/2000/svg">
<rect width="145" height="145" rx="72.5" fill="#D9D9D9"/>
<path d="M49.4134 66.4091V79.5H47.4382V66.4091H49.4134ZM52.1364 79.5V69.6818H53.9709V71.2798H54.0923C54.2969 70.7386 54.6314 70.3168 55.0959 70.0142C55.5604 69.7074 56.1165 69.554 56.7642 69.554C57.4205 69.554 57.9702 69.7074 58.4134 70.0142C58.8608 70.321 59.1911 70.7429 59.4041 71.2798H59.5064C59.7408 70.7557 60.1136 70.3381 60.625 70.027C61.1364 69.7116 61.7457 69.554 62.4531 69.554C63.3438 69.554 64.0703 69.8331 64.6328 70.3913C65.1996 70.9496 65.483 71.7912 65.483 72.9162V79.5H63.5717V73.0952C63.5717 72.4304 63.3906 71.9489 63.0284 71.6506C62.6662 71.3523 62.2337 71.2031 61.7308 71.2031C61.1087 71.2031 60.625 71.3949 60.2798 71.7784C59.9347 72.1577 59.7621 72.6456 59.7621 73.2422V79.5H57.8572V72.9737C57.8572 72.4411 57.6911 72.0128 57.3587 71.6889C57.0263 71.3651 56.5938 71.2031 56.0611 71.2031C55.6989 71.2031 55.3643 71.299 55.0575 71.4908C54.755 71.6783 54.5099 71.9403 54.3224 72.277C54.1392 72.6136 54.0476 73.0036 54.0476 73.4467V79.5H52.1364ZM70.9018 79.7173C70.2797 79.7173 69.7172 79.6023 69.2143 79.3722C68.7115 79.1378 68.313 78.799 68.019 78.3558C67.7292 77.9126 67.5843 77.3693 67.5843 76.7259C67.5843 76.1719 67.6909 75.7159 67.9039 75.358C68.117 75 68.4047 74.7166 68.7669 74.5078C69.1291 74.299 69.5339 74.1413 69.9814 74.0348C70.4288 73.9283 70.8848 73.8473 71.3493 73.7919C71.9373 73.7237 72.4146 73.6683 72.7811 73.6257C73.1476 73.5788 73.4139 73.5043 73.5801 73.402C73.7463 73.2997 73.8294 73.1335 73.8294 72.9034V72.8587C73.8294 72.3004 73.6717 71.8679 73.3564 71.5611C73.0453 71.2543 72.5808 71.1009 71.9629 71.1009C71.3194 71.1009 70.8123 71.2436 70.4416 71.5291C70.0751 71.8104 69.8216 72.1236 69.6809 72.4688L67.8848 72.0597C68.0978 71.4631 68.4089 70.9815 68.818 70.6151C69.2314 70.2443 69.7065 69.9759 70.2434 69.8097C70.7804 69.6392 71.345 69.554 71.9373 69.554C72.3294 69.554 72.7449 69.6009 73.1838 69.6946C73.627 69.7841 74.0403 69.9503 74.4238 70.1932C74.8116 70.4361 75.1291 70.7834 75.3762 71.2351C75.6234 71.6825 75.747 72.2642 75.747 72.9801V79.5H73.8805V78.1577H73.8038C73.6802 78.4048 73.4949 78.6477 73.2477 78.8864C73.0005 79.125 72.6831 79.3232 72.2953 79.4808C71.9075 79.6385 71.443 79.7173 70.9018 79.7173ZM71.3173 78.1832C71.8457 78.1832 72.2974 78.0788 72.6724 77.87C73.0517 77.6612 73.3393 77.3885 73.5353 77.0518C73.7356 76.7109 73.8358 76.3466 73.8358 75.9588V74.6932C73.7676 74.7614 73.6355 74.8253 73.4395 74.8849C73.2477 74.9403 73.0282 74.9893 72.7811 75.032C72.5339 75.0703 72.2931 75.1065 72.0588 75.1406C71.8244 75.1705 71.6284 75.196 71.4707 75.2173C71.1 75.2642 70.7612 75.343 70.4544 75.4538C70.1518 75.5646 69.9089 75.7244 69.7257 75.9332C69.5467 76.1378 69.4572 76.4105 69.4572 76.7514C69.4572 77.2244 69.6319 77.5824 69.9814 77.8253C70.3308 78.0639 70.7761 78.1832 71.3173 78.1832ZM82.4091 83.3864C81.6293 83.3864 80.9581 83.2841 80.3956 83.0795C79.8374 82.875 79.3814 82.6044 79.0277 82.2678C78.674 81.9311 78.4098 81.5625 78.2351 81.1619L79.8778 80.4844C79.9929 80.6719 80.1463 80.87 80.3381 81.0788C80.5341 81.2919 80.7983 81.473 81.1307 81.6222C81.4673 81.7713 81.8999 81.8459 82.4283 81.8459C83.1527 81.8459 83.7514 81.669 84.2244 81.3153C84.6974 80.9659 84.9339 80.4077 84.9339 79.6406V77.7102H84.8125C84.6974 77.919 84.5313 78.1513 84.3139 78.407C84.1009 78.6626 83.8068 78.8842 83.4318 79.0717C83.0568 79.2592 82.5689 79.353 81.968 79.353C81.1925 79.353 80.4936 79.1719 79.8714 78.8097C79.2536 78.4432 78.7635 77.9041 78.4013 77.1925C78.0433 76.4766 77.8643 75.5966 77.8643 74.5526C77.8643 73.5085 78.0412 72.6136 78.3949 71.8679C78.7528 71.1222 79.2429 70.5511 79.8651 70.1548C80.4872 69.7543 81.1925 69.554 81.9808 69.554C82.5902 69.554 83.0824 69.6562 83.4574 69.8608C83.8324 70.0611 84.1243 70.2955 84.3331 70.5639C84.5462 70.8324 84.7102 71.0689 84.8253 71.2734H84.9659V69.6818H86.8388V79.7173C86.8388 80.5611 86.6428 81.2536 86.2507 81.7947C85.8587 82.3359 85.3281 82.7365 84.6591 82.9964C83.9943 83.2564 83.2443 83.3864 82.4091 83.3864ZM82.3899 77.7678C82.9396 77.7678 83.4041 77.6399 83.7834 77.3842C84.1669 77.1243 84.4567 76.7536 84.6527 76.272C84.853 75.7862 84.9531 75.2045 84.9531 74.527C84.9531 73.8665 84.8551 73.2848 84.6591 72.782C84.4631 72.2791 84.1754 71.8871 83.7962 71.6058C83.4169 71.3203 82.9482 71.1776 82.3899 71.1776C81.8146 71.1776 81.3352 71.3267 80.9517 71.625C80.5682 71.919 80.2784 72.3196 80.0824 72.8267C79.8906 73.3338 79.7947 73.9006 79.7947 74.527C79.7947 75.1705 79.8928 75.7351 80.0888 76.2209C80.2848 76.7067 80.5746 77.0859 80.9581 77.3587C81.3459 77.6314 81.8232 77.7678 82.3899 77.7678ZM93.6335 79.6982C92.6662 79.6982 91.8331 79.4915 91.1342 79.0781C90.4396 78.6605 89.9027 78.0746 89.5234 77.3203C89.1484 76.5618 88.9609 75.6733 88.9609 74.6548C88.9609 73.6491 89.1484 72.7628 89.5234 71.9957C89.9027 71.2287 90.4311 70.63 91.1087 70.1996C91.7905 69.7692 92.5874 69.554 93.4993 69.554C94.0533 69.554 94.5902 69.6456 95.1101 69.8288C95.63 70.0121 96.0966 70.2997 96.5099 70.6918C96.9233 71.0838 97.2493 71.593 97.4879 72.2195C97.7266 72.8416 97.8459 73.598 97.8459 74.4886V75.1662H90.0412V73.7344H95.973C95.973 73.2315 95.8707 72.7862 95.6662 72.3984C95.4616 72.0064 95.174 71.6974 94.8033 71.4716C94.4368 71.2457 94.0064 71.1328 93.5121 71.1328C92.9751 71.1328 92.5064 71.2649 92.1058 71.5291C91.7095 71.7891 91.4027 72.13 91.1854 72.5518C90.9723 72.9695 90.8658 73.4233 90.8658 73.9134V75.032C90.8658 75.6882 90.9808 76.2464 91.2109 76.7067C91.4453 77.1669 91.7713 77.5185 92.1889 77.7614C92.6065 78 93.0945 78.1193 93.6527 78.1193C94.0149 78.1193 94.3452 78.0682 94.6435 77.9659C94.9418 77.8594 95.1996 77.7017 95.4169 77.4929C95.6342 77.2841 95.8004 77.0263 95.9155 76.7195L97.7244 77.0455C97.5795 77.5781 97.3196 78.0447 96.9446 78.4453C96.5739 78.8416 96.1072 79.1506 95.5447 79.3722C94.9865 79.5895 94.3494 79.6982 93.6335 79.6982Z" fill="#7C6868"/>
</svg>
