<svg width="296" height="64" viewBox="0 0 296 64" fill="none" xmlns="http://www.w3.org/2000/svg">
<path d="M52.5781 31.1094L56.5702 35.1015L60.5624 31.1094" stroke="#3D3D3D" stroke-width="2.33913" stroke-miterlimit="10" stroke-linecap="round" stroke-linejoin="round"/>
<path d="M56.5664 19.1328V34.9921" stroke="#3D3D3D" stroke-width="2.33913" stroke-miterlimit="10" stroke-linecap="round" stroke-linejoin="round"/>
<path d="M69.232 31.8887C69.232 38.7813 64.5537 44.364 56.7566 44.364C48.9595 44.364 44.2812 38.7813 44.2812 31.8887" stroke="#3D3D3D" stroke-width="2.33913" stroke-miterlimit="10" stroke-linecap="round" stroke-linejoin="round"/>
<path d="M101.046 28.6934C100.875 28.1714 100.651 27.7037 100.371 27.2902C100.097 26.8715 99.7693 26.5149 99.3868 26.2203C99.0095 25.9257 98.5805 25.7009 98.0998 25.5458C97.6192 25.3907 97.092 25.3132 96.5183 25.3132C95.5776 25.3132 94.7222 25.5561 93.9521 26.042C93.182 26.5278 92.5695 27.2437 92.1147 28.1895C91.6599 29.1353 91.4324 30.2957 91.4324 31.6705C91.4324 33.0453 91.6624 34.2057 92.1224 35.1515C92.5824 36.0974 93.2052 36.8132 93.9909 37.299C94.7765 37.7849 95.6603 38.0278 96.6423 38.0278C97.552 38.0278 98.3531 37.834 99.0457 37.4463C99.7434 37.0535 100.286 36.5005 100.674 35.7872C101.067 35.0688 101.263 34.2238 101.263 33.2521L101.852 33.3761H97.0765V31.6705H103.124V33.3761C103.124 34.6838 102.845 35.8208 102.286 36.7874C101.733 37.7539 100.968 38.5033 99.9915 39.0357C99.0198 39.5629 97.9034 39.8265 96.6423 39.8265C95.2365 39.8265 94.0012 39.4957 92.9365 38.8341C91.8769 38.1725 91.05 37.2318 90.4556 36.0121C89.8664 34.7923 89.5718 33.3451 89.5718 31.6705C89.5718 30.4146 89.7397 29.2852 90.0757 28.2825C90.4168 27.2747 90.8975 26.4167 91.5177 25.7086C92.1379 25.0005 92.8719 24.4578 93.7195 24.0805C94.5672 23.7032 95.5001 23.5146 96.5183 23.5146C97.3556 23.5146 98.136 23.6412 98.8596 23.8944C99.5884 24.1425 100.237 24.4966 100.806 24.9566C101.379 25.4114 101.857 25.9567 102.24 26.5924C102.622 27.223 102.886 27.9233 103.031 28.6934H101.046ZM111.161 39.8575C110.014 39.8575 109.024 39.6042 108.192 39.0977C107.365 38.586 106.727 37.8727 106.277 36.9579C105.833 36.0379 105.61 34.968 105.61 33.7483C105.61 32.5285 105.833 31.4534 106.277 30.5231C106.727 29.5876 107.352 28.8588 108.153 28.3368C108.96 27.8096 109.9 27.546 110.975 27.546C111.596 27.546 112.208 27.6494 112.813 27.8561C113.417 28.0629 113.968 28.3988 114.464 28.864C114.96 29.324 115.356 29.9339 115.65 30.6937C115.945 31.4534 116.092 32.3889 116.092 33.5002V34.2754H106.913V32.6939H114.231C114.231 32.022 114.097 31.4224 113.828 30.8952C113.565 30.368 113.187 29.952 112.696 29.647C112.211 29.3421 111.637 29.1896 110.975 29.1896C110.247 29.1896 109.616 29.3705 109.084 29.7323C108.556 30.0889 108.151 30.5541 107.866 31.1278C107.582 31.7015 107.44 32.3166 107.44 32.973V34.0274C107.44 34.9267 107.595 35.689 107.905 36.3144C108.22 36.9347 108.657 37.4076 109.215 37.7332C109.774 38.0536 110.422 38.2139 111.161 38.2139C111.642 38.2139 112.076 38.1467 112.464 38.0123C112.857 37.8727 113.195 37.666 113.479 37.3921C113.764 37.113 113.983 36.7667 114.138 36.3532L115.906 36.8494C115.72 37.4489 115.407 37.9761 114.968 38.4309C114.529 38.8806 113.986 39.2321 113.34 39.4853C112.694 39.7334 111.968 39.8575 111.161 39.8575ZM124.054 27.7011V29.2516H117.883V27.7011H124.054ZM119.682 24.848H121.511V36.1981C121.511 36.715 121.586 37.1026 121.736 37.3611C121.891 37.6143 122.088 37.7849 122.325 37.8727C122.568 37.9554 122.824 37.9968 123.093 37.9968C123.295 37.9968 123.46 37.9865 123.589 37.9658C123.718 37.9399 123.822 37.9193 123.899 37.9038L124.271 39.5474C124.147 39.5939 123.974 39.6404 123.752 39.6869C123.53 39.7386 123.248 39.7644 122.907 39.7644C122.39 39.7644 121.883 39.6533 121.387 39.4311C120.896 39.2088 120.488 38.8703 120.162 38.4154C119.842 37.9606 119.682 37.3869 119.682 36.6943V24.848ZM133.195 39.6094V23.7316H138.56C139.805 23.7316 140.824 23.9565 141.614 24.4061C142.41 24.8506 143 25.4528 143.382 26.2125C143.764 26.9723 143.956 27.82 143.956 28.7555C143.956 29.691 143.764 30.5412 143.382 31.3061C143.005 32.0711 142.421 32.681 141.63 33.1358C140.839 33.5854 139.826 33.8103 138.591 33.8103H134.745V32.1047H138.529C139.382 32.1047 140.066 31.9574 140.583 31.6628C141.1 31.3681 141.475 30.9702 141.707 30.4688C141.945 29.9623 142.064 29.3912 142.064 28.7555C142.064 28.1197 141.945 27.5512 141.707 27.0498C141.475 26.5485 141.098 26.1557 140.575 25.8714C140.053 25.582 139.361 25.4373 138.498 25.4373H135.118V39.6094H133.195ZM151.953 39.6094H147.053V23.7316H152.17C153.71 23.7316 155.028 24.0495 156.124 24.6852C157.219 25.3158 158.059 26.2229 158.643 27.4065C159.227 28.5849 159.519 29.9959 159.519 31.6395C159.519 33.2934 159.225 34.7174 158.636 35.9113C158.046 37.1001 157.188 38.0149 156.062 38.6558C154.935 39.2915 153.565 39.6094 151.953 39.6094ZM148.976 37.9038H151.829C153.141 37.9038 154.229 37.6505 155.093 37.144C155.956 36.6375 156.599 35.9165 157.023 34.981C157.447 34.0454 157.659 32.9316 157.659 31.6395C157.659 30.3577 157.449 29.2542 157.031 28.3291C156.612 27.3987 155.987 26.6855 155.155 26.1893C154.323 25.6879 153.286 25.4373 152.046 25.4373H148.976V37.9038ZM162.745 39.6094V23.7316H172.265V25.4373H164.667V30.8022H171.552V32.5078H164.667V39.6094H162.745ZM181.698 39.6094V23.7316H187.063C188.304 23.7316 189.322 23.9436 190.118 24.3674C190.914 24.786 191.503 25.3623 191.885 26.0962C192.268 26.8302 192.459 27.6649 192.459 28.6004C192.459 29.5359 192.268 30.3655 191.885 31.089C191.503 31.8126 190.916 32.3812 190.126 32.7947C189.335 33.203 188.324 33.4071 187.094 33.4071H182.753V31.6705H187.032C187.88 31.6705 188.562 31.5465 189.079 31.2984C189.601 31.0503 189.978 30.6988 190.211 30.244C190.449 29.784 190.567 29.2361 190.567 28.6004C190.567 27.9647 190.449 27.4091 190.211 26.9335C189.973 26.458 189.593 26.0911 189.071 25.8326C188.549 25.5691 187.859 25.4373 187.001 25.4373H183.621V39.6094H181.698ZM189.172 32.4768L193.079 39.6094H190.847L187.001 32.4768H189.172ZM200.28 39.8575C199.132 39.8575 198.143 39.6042 197.31 39.0977C196.484 38.586 195.845 37.8727 195.396 36.9579C194.951 36.0379 194.729 34.968 194.729 33.7483C194.729 32.5285 194.951 31.4534 195.396 30.5231C195.845 29.5876 196.471 28.8588 197.272 28.3368C198.078 27.8096 199.019 27.546 200.094 27.546C200.714 27.546 201.326 27.6494 201.931 27.8561C202.536 28.0629 203.086 28.3988 203.583 28.864C204.079 29.324 204.474 29.9339 204.769 30.6937C205.063 31.4534 205.211 32.3889 205.211 33.5002V34.2754H196.031V32.6939H203.35C203.35 32.022 203.216 31.4224 202.947 30.8952C202.683 30.368 202.306 29.952 201.815 29.647C201.329 29.3421 200.755 29.1896 200.094 29.1896C199.365 29.1896 198.734 29.3705 198.202 29.7323C197.675 30.0889 197.269 30.5541 196.985 31.1278C196.701 31.7015 196.558 32.3166 196.558 32.973V34.0274C196.558 34.9267 196.714 35.689 197.024 36.3144C197.339 36.9347 197.776 37.4076 198.334 37.7332C198.892 38.0536 199.541 38.2139 200.28 38.2139C200.76 38.2139 201.195 38.1467 201.582 38.0123C201.975 37.8727 202.314 37.666 202.598 37.3921C202.882 37.113 203.102 36.7667 203.257 36.3532L205.025 36.8494C204.838 37.4489 204.526 37.9761 204.086 38.4309C203.647 38.8806 203.104 39.2321 202.458 39.4853C201.812 39.7334 201.086 39.8575 200.28 39.8575ZM212.832 39.8575C211.715 39.8575 210.754 39.5939 209.948 39.0667C209.141 38.5395 208.521 37.8133 208.087 36.8881C207.653 35.963 207.436 34.906 207.436 33.7172C207.436 32.5078 207.658 31.4405 208.102 30.5153C208.552 29.585 209.177 28.8588 209.979 28.3368C210.785 27.8096 211.726 27.546 212.801 27.546C213.638 27.546 214.392 27.7011 215.064 28.0112C215.736 28.3213 216.287 28.7555 216.716 29.3137C217.145 29.8719 217.411 30.5231 217.514 31.2674H215.685C215.545 30.7247 215.235 30.244 214.754 29.8253C214.279 29.4015 213.638 29.1896 212.832 29.1896C212.118 29.1896 211.493 29.3757 210.955 29.7478C210.423 30.1148 210.007 30.6342 209.707 31.3061C209.413 31.9729 209.265 32.7559 209.265 33.6552C209.265 34.5752 209.41 35.3763 209.699 36.0586C209.994 36.7408 210.408 37.2706 210.94 37.6479C211.477 38.0252 212.108 38.2139 212.832 38.2139C213.307 38.2139 213.739 38.1312 214.126 37.9658C214.514 37.8004 214.842 37.5626 215.111 37.2525C215.38 36.9424 215.571 36.5703 215.685 36.1361H217.514C217.411 36.839 217.155 37.4722 216.747 38.0356C216.344 38.5938 215.809 39.0383 215.142 39.369C214.48 39.6947 213.71 39.8575 212.832 39.8575ZM225.182 39.8575C224.034 39.8575 223.045 39.6042 222.212 39.0977C221.386 38.586 220.747 37.8727 220.298 36.9579C219.853 36.0379 219.631 34.968 219.631 33.7483C219.631 32.5285 219.853 31.4534 220.298 30.5231C220.747 29.5876 221.373 28.8588 222.174 28.3368C222.98 27.8096 223.921 27.546 224.996 27.546C225.616 27.546 226.228 27.6494 226.833 27.8561C227.438 28.0629 227.988 28.3988 228.485 28.864C228.981 29.324 229.376 29.9339 229.671 30.6937C229.965 31.4534 230.113 32.3889 230.113 33.5002V34.2754H220.933V32.6939H228.252C228.252 32.022 228.118 31.4224 227.849 30.8952C227.585 30.368 227.208 29.952 226.717 29.647C226.231 29.3421 225.657 29.1896 224.996 29.1896C224.267 29.1896 223.636 29.3705 223.104 29.7323C222.577 30.0889 222.171 30.5541 221.887 31.1278C221.603 31.7015 221.46 32.3166 221.46 32.973V34.0274C221.46 34.9267 221.616 35.689 221.926 36.3144C222.241 36.9347 222.678 37.4076 223.236 37.7332C223.794 38.0536 224.443 38.2139 225.182 38.2139C225.662 38.2139 226.097 38.1467 226.484 38.0123C226.877 37.8727 227.216 37.666 227.5 37.3921C227.784 37.113 228.004 36.7667 228.159 36.3532L229.927 36.8494C229.74 37.4489 229.428 37.9761 228.988 38.4309C228.549 38.8806 228.006 39.2321 227.36 39.4853C226.714 39.7334 225.988 39.8575 225.182 39.8575ZM232.896 39.6094V27.7011H234.725V39.6094H232.896ZM233.826 25.7164C233.47 25.7164 233.162 25.5949 232.904 25.352C232.65 25.1091 232.524 24.817 232.524 24.4759C232.524 24.1348 232.65 23.8428 232.904 23.5998C233.162 23.3569 233.47 23.2355 233.826 23.2355C234.183 23.2355 234.488 23.3569 234.741 23.5998C234.999 23.8428 235.129 24.1348 235.129 24.4759C235.129 24.817 234.999 25.1091 234.741 25.352C234.488 25.5949 234.183 25.7164 233.826 25.7164ZM238.077 44.075V27.7011H239.844V29.5928H240.061C240.196 29.386 240.382 29.1224 240.62 28.802C240.862 28.4764 241.209 28.1869 241.658 27.9337C242.113 27.6752 242.728 27.546 243.504 27.546C244.506 27.546 245.39 27.7967 246.155 28.298C246.92 28.7994 247.517 29.5101 247.946 30.4301C248.375 31.3501 248.589 32.4355 248.589 33.6862C248.589 34.9474 248.375 36.0405 247.946 36.9657C247.517 37.8857 246.923 38.5989 246.163 39.1054C245.403 39.6068 244.527 39.8575 243.535 39.8575C242.77 39.8575 242.157 39.7308 241.697 39.4776C241.237 39.2192 240.883 38.9271 240.635 38.6015C240.387 38.2707 240.196 37.9968 240.061 37.7797H239.906V44.075H238.077ZM239.875 33.6552C239.875 34.5545 240.007 35.3479 240.271 36.0353C240.534 36.7176 240.919 37.2525 241.426 37.6402C241.932 38.0226 242.553 38.2139 243.287 38.2139C244.051 38.2139 244.69 38.0123 245.201 37.6092C245.718 37.2008 246.106 36.653 246.364 35.9656C246.628 35.273 246.76 34.5029 246.76 33.6552C246.76 32.8179 246.631 32.0633 246.372 31.3914C246.119 30.7143 245.734 30.1794 245.217 29.7866C244.705 29.3886 244.062 29.1896 243.287 29.1896C242.542 29.1896 241.917 29.3783 241.41 29.7556C240.904 30.1277 240.521 30.6497 240.263 31.3216C240.005 31.9884 239.875 32.7662 239.875 33.6552ZM256.559 27.7011V29.2516H250.388V27.7011H256.559ZM252.187 24.848H254.016V36.1981C254.016 36.715 254.091 37.1026 254.241 37.3611C254.396 37.6143 254.593 37.7849 254.83 37.8727C255.073 37.9554 255.329 37.9968 255.598 37.9968C255.8 37.9968 255.965 37.9865 256.094 37.9658C256.223 37.9399 256.327 37.9193 256.404 37.9038L256.776 39.5474C256.652 39.5939 256.479 39.6404 256.257 39.6869C256.035 39.7386 255.753 39.7644 255.412 39.7644C254.895 39.7644 254.389 39.6533 253.892 39.4311C253.401 39.2088 252.993 38.8703 252.667 38.4154C252.347 37.9606 252.187 37.3869 252.187 36.6943V24.848Z" fill="#3D3D3D"/>
</svg>
