<svg width="119" height="26" viewBox="0 0 119 26" fill="none" xmlns="http://www.w3.org/2000/svg">
<circle cx="13" cy="13" r="13" fill="#F9F9F9"/>
<path d="M7.8 15.6182H6.63329C6.55345 15.6182 6.48555 15.6768 6.4731 15.7565L6.00122 18.7813C5.99184 18.8409 6.03756 18.8947 6.09744 18.8947H6.65444C6.73428 18.8947 6.80218 18.8361 6.81463 18.7562L6.9419 17.9404C6.95418 17.8606 7.02225 17.8019 7.10192 17.8019H7.47126C8.2398 17.8019 8.68336 17.4259 8.79919 16.6808C8.85139 16.3548 8.80141 16.0987 8.65043 15.9193C8.48461 15.7223 8.1905 15.6182 7.8 15.6182ZM7.9346 16.7229C7.8708 17.1462 7.55093 17.1462 7.24164 17.1462H7.06558L7.18909 16.3557C7.19643 16.3079 7.23737 16.2727 7.28514 16.2727H7.36583C7.57652 16.2727 7.77527 16.2727 7.87797 16.3941C7.93921 16.4666 7.95798 16.5742 7.9346 16.7229Z" fill="#253B80"/>
<path d="M11.2871 16.7084H10.7284C10.6808 16.7084 10.6397 16.7436 10.6323 16.7914L10.6076 16.9493L10.5685 16.8921C10.4476 16.7146 10.1779 16.6553 9.90865 16.6553C9.29126 16.6553 8.76394 17.128 8.66125 17.7912C8.60785 18.122 8.68376 18.4384 8.86937 18.659C9.03963 18.8618 9.28324 18.9463 9.57309 18.9463C10.0705 18.9463 10.3464 18.6229 10.3464 18.6229L10.3215 18.7799C10.3121 18.8399 10.3578 18.8937 10.4174 18.8937H10.9206C11.0006 18.8937 11.0682 18.8351 11.0808 18.7552L11.3828 16.8219C11.3923 16.7624 11.3468 16.7084 11.2871 16.7084ZM10.5083 17.8078C10.4544 18.1305 10.2011 18.3471 9.87794 18.3471C9.71571 18.3471 9.58605 18.2945 9.5028 18.1948C9.42023 18.0958 9.38884 17.9549 9.41511 17.7979C9.46544 17.478 9.72304 17.2543 10.0412 17.2543C10.1999 17.2543 10.3288 17.3076 10.4138 17.4081C10.4989 17.5097 10.5327 17.6515 10.5083 17.8078Z" fill="#253B80"/>
<path d="M14.2632 16.708H13.7018C13.6482 16.708 13.5979 16.7349 13.5675 16.7799L12.7932 17.9331L12.465 16.8249C12.4443 16.7556 12.381 16.708 12.3094 16.708H11.7577C11.6906 16.708 11.6441 16.7742 11.6654 16.8381L12.2838 18.6729L11.7024 19.5027C11.6567 19.5681 11.7027 19.6579 11.7817 19.6579H12.3425C12.3957 19.6579 12.4455 19.6317 12.4757 19.5875L14.3431 16.8624C14.3878 16.7972 14.3419 16.708 14.2632 16.708Z" fill="#253B80"/>
<path d="M16.1203 15.6172H14.9534C14.8738 15.6172 14.8059 15.6758 14.7934 15.7555L14.3215 18.7803C14.3122 18.84 14.3579 18.8938 14.4174 18.8938H15.0162C15.0718 18.8938 15.1194 18.8527 15.1281 18.7968L15.262 17.9394C15.2743 17.8596 15.3424 17.8009 15.4221 17.8009H15.7912C16.5599 17.8009 17.0033 17.4249 17.1193 16.6798C17.1717 16.3538 17.1214 16.0977 16.9704 15.9183C16.8048 15.7214 16.5108 15.6172 16.1203 15.6172ZM16.2549 16.7219C16.1913 17.1452 15.8714 17.1452 15.562 17.1452H15.3861L15.5097 16.3547C15.5171 16.3069 15.5577 16.2717 15.6056 16.2717H15.6863C15.8968 16.2717 16.0957 16.2717 16.1984 16.3932C16.2597 16.4656 16.2783 16.5732 16.2549 16.7219Z" fill="#179BD7"/>
<path d="M19.6106 16.7084H19.0522C19.0043 16.7084 18.9635 16.7436 18.9563 16.7914L18.9316 16.9493L18.8924 16.8921C18.7714 16.7146 18.5019 16.6553 18.2327 16.6553C17.6153 16.6553 17.0881 17.128 16.9854 17.7912C16.9322 18.122 17.0078 18.4384 17.1934 18.659C17.364 18.8618 17.6072 18.9463 17.8971 18.9463C18.3945 18.9463 18.6704 18.6229 18.6704 18.6229L18.6455 18.7799C18.6361 18.8399 18.6818 18.8937 18.7417 18.8937H19.2448C19.3245 18.8937 19.3924 18.8351 19.4048 18.7552L19.707 16.8219C19.7162 16.7624 19.6704 16.7084 19.6106 16.7084ZM18.8318 17.8078C18.7782 18.1305 18.5245 18.3471 18.2014 18.3471C18.0395 18.3471 17.9095 18.2945 17.8263 18.1948C17.7437 18.0958 17.7127 17.9549 17.7386 17.7979C17.7893 17.478 18.0465 17.2543 18.3647 17.2543C18.5234 17.2543 18.6523 17.3076 18.7373 17.4081C18.8227 17.5097 18.8565 17.6515 18.8318 17.8078Z" fill="#179BD7"/>
<path d="M20.2692 15.7003L19.7903 18.7804C19.7809 18.8401 19.8266 18.8939 19.8862 18.8939H20.3676C20.4476 18.8939 20.5155 18.8353 20.5278 18.7554L21 15.7309C21.0094 15.6712 20.9637 15.6172 20.9041 15.6172H20.365C20.3174 15.6174 20.2765 15.6525 20.2692 15.7003Z" fill="#179BD7"/>
<path d="M12.4112 13.4082L12.5426 12.564L12.2498 12.5571H10.8516L11.8233 6.32787C11.8263 6.30906 11.8361 6.29153 11.8504 6.27908C11.8647 6.26663 11.8831 6.25977 11.9022 6.25977H14.2598C15.0425 6.25977 15.5827 6.42444 15.8647 6.74945C15.9969 6.90193 16.0811 7.06126 16.1218 7.2366C16.1646 7.42059 16.1653 7.6404 16.1236 7.9085L16.1206 7.92806V8.09985L16.2528 8.17558C16.3641 8.23529 16.4526 8.30365 16.5205 8.38192C16.6336 8.51229 16.7067 8.67797 16.7376 8.87441C16.7695 9.07643 16.759 9.31683 16.7067 9.58899C16.6464 9.90207 16.5489 10.1747 16.4172 10.3979C16.296 10.6034 16.1417 10.774 15.9584 10.9061C15.7835 11.0316 15.5756 11.1269 15.3406 11.1879C15.1129 11.2479 14.8533 11.2781 14.5685 11.2781H14.385C14.2538 11.2781 14.1264 11.3259 14.0263 11.4115C13.926 11.499 13.8597 11.6184 13.8393 11.749L13.8255 11.825L13.5933 13.3129L13.5827 13.3675C13.5799 13.3848 13.5752 13.3934 13.5681 13.3993C13.5618 13.4046 13.5528 13.4082 13.544 13.4082H12.4112Z" fill="#253B80"/>
<path d="M16.3783 7.94824C16.3712 7.99373 16.3632 8.04023 16.3541 8.08801C16.0432 9.70192 14.9795 10.2595 13.621 10.2595H12.9293C12.7631 10.2595 12.6231 10.3814 12.5972 10.5471L12.2431 12.8179L12.1428 13.4616C12.126 13.5704 12.2089 13.6685 12.3175 13.6685H13.5443C13.6896 13.6685 13.813 13.5618 13.8359 13.4169L13.8479 13.3539L14.0789 11.8719L14.0938 11.7905C14.1164 11.6452 14.24 11.5384 14.3853 11.5384H14.5688C15.7574 11.5384 16.6879 11.0505 16.9599 9.63865C17.0735 9.04884 17.0147 8.55635 16.7141 8.20999C16.6231 8.10554 16.5102 8.01889 16.3783 7.94824Z" fill="#179BD7"/>
<path d="M16.0534 7.81693C16.0059 7.80295 15.9569 7.79025 15.9066 7.77881C15.8561 7.76763 15.8044 7.75772 15.7511 7.74908C15.5646 7.71859 15.3602 7.7041 15.1413 7.7041H13.2934C13.2479 7.7041 13.2047 7.71452 13.166 7.73333C13.0807 7.77475 13.0174 7.85632 13.0021 7.95619L12.609 10.4735L12.5977 10.5469C12.6235 10.3813 12.7635 10.2593 12.9297 10.2593H13.6214C14.9799 10.2593 16.0436 9.70148 16.3546 8.08782C16.3639 8.04005 16.3716 7.99354 16.3787 7.94806C16.3 7.90587 16.2148 7.86979 16.1231 7.83904C16.1004 7.83142 16.0771 7.82405 16.0534 7.81693Z" fill="#222D65"/>
<path d="M13.0024 7.95647C13.0177 7.8566 13.0811 7.77503 13.1663 7.73386C13.2052 7.71506 13.2482 7.70464 13.2937 7.70464H15.1416C15.3605 7.70464 15.5649 7.71912 15.7514 7.74962C15.8047 7.75826 15.8564 7.76817 15.907 7.77935C15.9572 7.79078 16.0062 7.80349 16.0538 7.81747C16.0774 7.82458 16.1008 7.83195 16.1236 7.83932C16.2154 7.87007 16.3006 7.90641 16.3792 7.94834C16.4717 7.35192 16.3785 6.94583 16.0595 6.57812C15.7079 6.17331 15.0732 6 14.2611 6H11.9035C11.7376 6 11.5961 6.12198 11.5705 6.28792L10.5884 12.5812C10.5691 12.7057 10.6641 12.818 10.7883 12.818H12.2438L12.6093 10.4738L13.0024 7.95647Z" fill="#253B80"/>
<circle cx="44" cy="13" r="13" fill="#888888"/>
<path d="M39.7408 10.7735C39.565 10.9762 39.2837 11.1361 39.0024 11.1132C38.9673 10.8392 39.105 10.548 39.2661 10.3682C39.4419 10.1598 39.7496 10.0114 39.9986 10C40.0279 10.2854 39.9137 10.5652 39.7408 10.7735ZM39.9957 11.1675C39.5884 11.1446 39.2397 11.393 39.0464 11.393C38.8501 11.393 38.5541 11.1789 38.2318 11.1846C37.8128 11.1903 37.4231 11.4215 37.2092 11.7897C36.7697 12.5262 37.095 13.6166 37.5198 14.216C37.7279 14.5128 37.9769 14.8382 38.3051 14.8268C38.6157 14.8154 38.7387 14.6299 39.1138 14.6299C39.4917 14.6299 39.6001 14.8268 39.9283 14.8211C40.2682 14.8154 40.4821 14.5243 40.6901 14.2274C40.9274 13.8906 41.0241 13.5623 41.03 13.5452C41.0241 13.5395 40.3737 13.2969 40.3678 12.5661C40.3619 11.9553 40.8806 11.6641 40.904 11.647C40.611 11.2245 40.1539 11.1789 39.9957 11.1675ZM42.3485 10.3397V14.7897H43.0576V13.2683H44.0391C44.9357 13.2683 45.5657 12.6689 45.5657 11.8011C45.5657 10.9334 44.9474 10.3397 44.0626 10.3397H42.3485ZM43.0576 10.922H43.875C44.4904 10.922 44.842 11.2417 44.842 11.804C44.842 12.3663 44.4904 12.6889 43.8721 12.6889H43.0576V10.922ZM46.8607 14.824C47.3061 14.824 47.7192 14.6042 47.9068 14.2559H47.9214V14.7897H48.5777V12.5747C48.5777 11.9324 48.0503 11.5186 47.2387 11.5186C46.4857 11.5186 45.929 11.9382 45.9085 12.5147H46.5472C46.6 12.2407 46.8607 12.0609 47.2182 12.0609C47.6518 12.0609 47.895 12.2578 47.895 12.6204V12.8658L47.0102 12.9172C46.1868 12.9657 45.7415 13.294 45.7415 13.8649C45.7415 14.4415 46.2015 14.824 46.8607 14.824ZM47.0512 14.2959C46.6732 14.2959 46.433 14.1189 46.433 13.8478C46.433 13.568 46.6644 13.4053 47.1069 13.3796L47.895 13.3311V13.5823C47.895 13.999 47.5317 14.2959 47.0512 14.2959ZM49.4538 16C50.1453 16 50.4705 15.7431 50.7547 14.9638L52 11.5614H51.2792L50.4442 14.1903H50.4295L49.5945 11.5614H48.8532L50.0545 14.8011L49.99 14.9981C49.8816 15.3321 49.7058 15.4605 49.3923 15.4605C49.3366 15.4605 49.2282 15.4548 49.1842 15.4491V15.9829C49.2253 15.9943 49.4011 16 49.4538 16Z" fill="white"/>
<circle cx="75" cy="13" r="13" fill="#333333"/>
<path fill-rule="evenodd" clip-rule="evenodd" d="M77.2022 15.4231C76.1467 16.2227 74.6353 16.6476 73.3399 16.6476C71.5167 16.6476 69.8614 15.9479 68.614 14.7734C68.518 14.6734 68.614 14.5485 68.7099 14.6235C70.0533 15.4481 71.7326 15.9229 73.4358 15.9229C74.5873 15.9229 75.8828 15.673 77.0582 15.1482C77.2262 15.0982 77.3701 15.2982 77.2022 15.4231Z" fill="#FF9201"/>
<path fill-rule="evenodd" clip-rule="evenodd" d="M77.6328 14.8985C77.4888 14.7236 76.7451 14.8235 76.4093 14.8485C76.3133 14.8735 76.2894 14.7736 76.3853 14.6986C76.985 14.2488 77.9686 14.3987 78.0886 14.5237C78.2085 14.6736 78.0646 15.6982 77.4888 16.1979C77.3929 16.2729 77.3209 16.2229 77.3689 16.123C77.4648 15.8231 77.7527 15.0984 77.6328 14.8985Z" fill="#FF9201"/>
<path fill-rule="evenodd" clip-rule="evenodd" d="M76.4369 11.6244V11.1996C76.4369 11.1246 76.4849 11.0996 76.5329 11.0996H78.3561C78.404 11.0996 78.452 11.1496 78.452 11.1996V11.5744C78.452 11.6244 78.404 11.7243 78.3081 11.8493L77.3485 13.2736C77.7083 13.2736 78.0682 13.3236 78.404 13.4986C78.476 13.5485 78.5 13.5985 78.5 13.6735V14.1233C78.5 14.1733 78.428 14.2482 78.3561 14.2232C77.7803 13.9234 77.0366 13.8734 76.4129 14.2232C76.3409 14.2482 76.293 14.1982 76.293 14.1233V13.6735C76.293 13.5985 76.293 13.4986 76.3649 13.3736L77.4685 11.7243H76.5089C76.4849 11.7243 76.4369 11.6744 76.4369 11.6244Z" fill="white"/>
<path fill-rule="evenodd" clip-rule="evenodd" d="M69.7415 14.2734H69.1897C69.1417 14.2734 69.0938 14.2234 69.0938 14.1734V11.1997C69.0938 11.1498 69.1417 11.0998 69.1897 11.0998H69.7175C69.7655 11.0998 69.8134 11.1498 69.8134 11.1997V11.5996C69.9574 11.2247 70.1973 11.0498 70.5571 11.0498C70.917 11.0498 71.1329 11.2247 71.2768 11.5996C71.4207 11.2247 71.7086 11.0498 72.0445 11.0498C72.2844 11.0498 72.5242 11.1498 72.6922 11.3747C72.8601 11.6246 72.8361 11.9994 72.8361 12.2993V14.1734C72.8361 14.2234 72.7881 14.2734 72.7401 14.2734H72.1884C72.1404 14.2734 72.0924 14.2234 72.0924 14.1734V12.5991C72.0924 12.4742 72.0924 12.1493 72.0684 12.0494C72.0205 11.8495 71.9005 11.7995 71.7326 11.7995C71.5886 11.7995 71.4447 11.8994 71.3967 12.0494C71.3488 12.1993 71.3488 12.4492 71.3488 12.6241V14.1984C71.3488 14.2484 71.3008 14.2984 71.2528 14.2984H70.701C70.6531 14.2984 70.6051 14.2484 70.6051 14.1984V12.6241C70.6051 12.2993 70.6531 11.7995 70.2692 11.7995C69.8614 11.7995 69.8854 12.2743 69.8854 12.6241V14.1984C69.8374 14.2234 69.7894 14.2734 69.7415 14.2734Z" fill="white"/>
<path fill-rule="evenodd" clip-rule="evenodd" d="M80.0569 11.0254C80.8966 11.0254 81.3284 11.7751 81.3284 12.6997C81.3284 13.5993 80.8246 14.3239 80.0569 14.3239C79.2413 14.3239 78.8095 13.5743 78.8095 12.6497C78.7855 11.7501 79.2413 11.0254 80.0569 11.0254ZM80.0569 11.6501C79.6491 11.6501 79.6251 12.2249 79.6251 12.5997C79.6251 12.9745 79.6251 13.7492 80.0569 13.7492C80.4888 13.7492 80.5128 13.1245 80.5128 12.7496C80.5128 12.4997 80.5128 12.1999 80.4408 11.95C80.3688 11.7251 80.2249 11.6501 80.0569 11.6501Z" fill="white"/>
<path fill-rule="evenodd" clip-rule="evenodd" d="M82.4094 14.274H81.8577C81.8097 14.274 81.7617 14.224 81.7617 14.174V11.2003C81.7617 11.1503 81.8097 11.1004 81.8577 11.1004H82.3854C82.4334 11.1004 82.4814 11.1253 82.4814 11.1753V11.6251C82.6493 11.2253 82.8652 11.0254 83.2491 11.0254C83.4889 11.0254 83.7528 11.1253 83.8968 11.3752C84.0407 11.6251 84.0407 12.025 84.0407 12.2998V14.174C84.0407 14.224 83.9927 14.274 83.9447 14.274H83.393C83.345 14.274 83.297 14.224 83.297 14.174V12.5497C83.297 12.2249 83.345 11.7501 82.9372 11.7501C82.7933 11.7501 82.6733 11.85 82.6253 12C82.5534 12.1749 82.5294 12.3748 82.5294 12.5747V14.174C82.5054 14.224 82.4574 14.274 82.4094 14.274Z" fill="white"/>
<path fill-rule="evenodd" clip-rule="evenodd" d="M74.9711 12.8492C74.9711 13.0741 74.9711 13.274 74.8752 13.4739C74.7792 13.6488 74.6353 13.7488 74.4913 13.7488C74.2754 13.7488 74.1555 13.5739 74.1555 13.324C74.1555 12.8242 74.5873 12.7492 74.9951 12.7492V12.8492H74.9711ZM75.5229 14.2736C75.4749 14.2985 75.4269 14.2985 75.4029 14.2985C75.211 14.1486 75.187 14.0736 75.0911 13.8987C74.7792 14.2236 74.5633 14.3235 74.1795 14.3235C73.6997 14.3235 73.3398 14.0237 73.3398 13.4239C73.3398 12.9491 73.5797 12.6243 73.9396 12.4743C74.2514 12.3244 74.6593 12.2994 74.9951 12.2744V12.1995C74.9951 12.0495 74.9951 11.8996 74.9232 11.7747C74.8512 11.6747 74.7312 11.6247 74.6113 11.6247C74.3954 11.6247 74.2035 11.7497 74.1555 11.9746C74.1555 12.0245 74.1075 12.0745 74.0595 12.0745L73.5078 12.0245C73.4598 12.0245 73.4118 11.9746 73.4358 11.8996C73.5558 11.2249 74.1555 11 74.6833 11C74.9471 11 75.307 11.075 75.5229 11.2999C75.7868 11.5747 75.7628 11.9246 75.7628 12.2994V13.199C75.7628 13.4739 75.8827 13.5989 75.9787 13.7488C76.0027 13.7988 76.0267 13.8737 75.9787 13.8987C75.8347 13.9987 75.6428 14.1736 75.5229 14.2736Z" fill="white"/>
<path fill-rule="evenodd" clip-rule="evenodd" d="M67.6553 12.8492C67.6553 13.0741 67.6553 13.274 67.5593 13.4739C67.4634 13.6488 67.3194 13.7488 67.1755 13.7488C66.9596 13.7488 66.8396 13.5739 66.8396 13.324C66.8396 12.8242 67.2714 12.7492 67.6793 12.7492V12.8492H67.6553ZM68.207 14.2736C68.159 14.2985 68.1111 14.2985 68.0631 14.2985C67.8712 14.1486 67.8472 14.0736 67.7512 13.8987C67.4394 14.2236 67.2235 14.3235 66.8396 14.3235C66.3598 14.3235 66 14.0237 66 13.4239C66 12.9491 66.2399 12.6243 66.5997 12.4743C66.9116 12.3244 67.3194 12.2994 67.6553 12.2744V12.1995C67.6553 12.0495 67.6553 11.8996 67.5833 11.7747C67.5113 11.6747 67.3914 11.6247 67.2714 11.6247C67.0555 11.6247 66.8636 11.7497 66.8156 11.9746C66.8156 12.0245 66.7677 12.0745 66.7197 12.0745L66.1679 12.0245C66.1199 12.0245 66.072 11.9746 66.096 11.8996C66.2159 11.2249 66.8156 11 67.3434 11C67.6073 11 67.9671 11.075 68.183 11.2999C68.4469 11.5747 68.4229 11.9246 68.4229 12.2994V13.199C68.4229 13.4739 68.5429 13.5989 68.6388 13.7488C68.6628 13.7988 68.6868 13.8737 68.6388 13.8987C68.5189 13.9987 68.327 14.1736 68.207 14.2736Z" fill="white"/>
<circle cx="106" cy="13" r="13" fill="#5485EC"/>
<path d="M105.567 13.1385V15.0214H104.977V10.3714H106.544C106.731 10.3675 106.917 10.401 107.091 10.4701C107.265 10.5392 107.424 10.6425 107.558 10.774C107.694 10.8975 107.802 11.049 107.875 11.2182C107.948 11.3875 107.985 11.5706 107.982 11.7553C107.986 11.941 107.95 12.1253 107.877 12.2957C107.804 12.466 107.695 12.6183 107.558 12.7422C107.284 13.0064 106.946 13.1384 106.544 13.1381H105.567V13.1385ZM105.567 10.9439V12.5671H106.558C106.667 12.5704 106.775 12.5507 106.876 12.5093C106.976 12.4679 107.067 12.4057 107.143 12.3267C107.218 12.2528 107.278 12.1645 107.318 12.0669C107.359 11.9693 107.38 11.8644 107.38 11.7585C107.38 11.6525 107.359 11.5476 107.318 11.45C107.278 11.3524 107.218 11.2641 107.143 11.1903C107.068 11.1096 106.978 11.0459 106.877 11.0034C106.776 10.9608 106.667 10.9404 106.558 10.9435H105.567V10.9439Z" fill="white"/>
<path d="M109.343 11.7354C109.78 11.7354 110.125 11.8533 110.377 12.0893C110.63 12.3253 110.756 12.6488 110.756 13.0599V15.0208H110.191V14.5792H110.165C109.921 14.9428 109.595 15.1246 109.189 15.1246C108.842 15.1246 108.552 15.0208 108.319 14.813C108.207 14.7176 108.117 14.5982 108.057 14.4634C107.996 14.3286 107.966 14.1819 107.969 14.0338C107.969 13.7046 108.092 13.4428 108.338 13.2484C108.584 13.054 108.913 12.9565 109.324 12.956C109.675 12.956 109.964 13.0209 110.191 13.1508V13.0143C110.191 12.9134 110.17 12.8136 110.127 12.7221C110.085 12.6307 110.023 12.5499 109.947 12.4856C109.79 12.343 109.587 12.2653 109.376 12.2678C109.046 12.2678 108.785 12.4085 108.593 12.69L108.072 12.3587C108.359 11.9431 108.782 11.7354 109.343 11.7354ZM108.579 14.0468C108.578 14.1228 108.596 14.1979 108.63 14.2656C108.664 14.3334 108.714 14.3919 108.775 14.4364C108.905 14.5403 109.068 14.5954 109.234 14.5922C109.483 14.5918 109.722 14.4915 109.898 14.3132C110.094 14.127 110.192 13.9084 110.192 13.6576C110.008 13.5092 109.751 13.435 109.421 13.435C109.181 13.435 108.981 13.4935 108.821 13.6105C108.659 13.7292 108.579 13.8736 108.579 14.0468Z" fill="white"/>
<path d="M113.999 11.8398L112.027 16.4238H111.417L112.149 14.8199L110.852 11.8398H111.494L112.431 14.1253H112.444L113.356 11.8398H113.999Z" fill="white"/>
<path d="M103.178 12.7326C103.178 12.5506 103.163 12.3689 103.132 12.1895H100.641V13.2183H102.068C102.039 13.3826 101.977 13.5393 101.886 13.6788C101.795 13.8183 101.678 13.9378 101.54 14.0301V14.6979H102.392C102.891 14.233 103.178 13.5455 103.178 12.7326Z" fill="white"/>
<path d="M100.642 15.3427C101.355 15.3427 101.955 15.106 102.393 14.6979L101.541 14.03C101.304 14.1925 100.999 14.2853 100.642 14.2853C99.9528 14.2853 99.3679 13.8156 99.1587 13.1826H98.2812V13.8709C98.5012 14.3133 98.8384 14.6852 99.2553 14.9451C99.6721 15.205 100.152 15.3427 100.642 15.3427Z" fill="white"/>
<path d="M99.1588 13.1825C99.0482 12.8508 99.0482 12.4916 99.1588 12.1599V11.4717H98.2813C98.0963 11.8439 98 12.2546 98 12.6712C98 13.0877 98.0963 13.4985 98.2813 13.8707L99.1588 13.1825Z" fill="white"/>
<path d="M100.642 11.0576C101.019 11.0514 101.383 11.1953 101.656 11.4583L102.41 10.6958C101.932 10.2417 101.298 9.99243 100.642 10.0002C100.152 10.0002 99.6721 10.1378 99.2553 10.3977C98.8384 10.6577 98.5012 11.0296 98.2812 11.472L99.1587 12.1603C99.3679 11.5273 99.9528 11.0576 100.642 11.0576Z" fill="white"/>
</svg>
