<svg width="22" height="22" viewBox="0 0 22 22" fill="none" xmlns="http://www.w3.org/2000/svg">
<path d="M15.5833 8.39441L15.5138 7.45736C15.4501 6.59896 14.7083 5.93388 13.8146 5.93388H11.9937M5.5 17.4163H4.45365C3.465 17.4163 2.68398 16.6087 2.75442 15.6591L3.36283 7.45737C3.42651 6.59896 4.16831 5.93388 5.06207 5.93388H6.88298M6.88298 5.93388V4.29353C6.88298 2.93462 8.02705 1.83301 9.43833 1.83301C10.8496 1.83301 11.9937 2.93462 11.9937 4.29353V5.93388M6.88298 5.93388H11.9937M15.5833 13.7497C15.5833 14.7622 14.7625 15.583 13.75 15.583C12.7375 15.583 11.9167 14.7622 11.9167 13.7497M10.0833 19.2497H17.4167C18.4292 19.2497 19.25 18.4289 19.25 17.4163V12.833C19.25 11.8205 18.4292 10.9997 17.4167 10.9997H10.0833C9.07081 10.9997 8.25 11.8205 8.25 12.833V17.4163C8.25 18.4289 9.07081 19.2497 10.0833 19.2497Z" stroke="#42526B" stroke-width="1.5" stroke-linecap="round"/>
</svg>
