<svg width="94" height="20" viewBox="0 0 94 20" fill="none" xmlns="http://www.w3.org/2000/svg">
<path d="M9.92382 3.11448L11.5411 7.56124L16.2915 7.71672C16.7916 7.73227 17.0025 8.36197 16.6041 8.67293L12.8537 11.5727L14.1742 16.1127C14.3148 16.5947 13.7757 16.9834 13.3616 16.7035L9.43159 14.0526L5.50159 16.7035C5.08749 16.9834 4.54838 16.5947 4.68902 16.1127L6.00944 11.5727L2.24351 8.67293C1.84504 8.36974 2.05599 7.73227 2.55603 7.71672L7.30642 7.56124L8.92374 3.11448C9.08782 2.64804 9.75193 2.64804 9.92382 3.11448Z" fill="#9E5A35"/>
<path d="M47.4277 3.11448L49.045 7.56124L53.7954 7.71672C54.2955 7.73227 54.5064 8.36197 54.108 8.67293L50.3577 11.5727L51.6781 16.1127C51.8187 16.5947 51.2796 16.9834 50.8655 16.7035L46.9355 14.0526L43.0055 16.7035C42.5914 16.9834 42.0523 16.5947 42.1929 16.1127L43.5133 11.5727L39.7474 8.67293C39.3489 8.36974 39.5599 7.73227 40.0599 7.71672L44.8103 7.56124L46.4276 3.11448C46.5917 2.64804 47.2558 2.64804 47.4277 3.11448Z" fill="#9E5A35"/>
<path d="M28.6738 3.11448L30.2911 7.56124L35.0415 7.71672C35.5416 7.73227 35.7525 8.36197 35.3541 8.67293L31.6037 11.5727L32.9242 16.1127C33.0648 16.5947 32.5257 16.9834 32.1116 16.7035L28.1816 14.0526L24.2516 16.7035C23.8375 16.9834 23.2984 16.5947 23.439 16.1127L24.7594 11.5727L20.9935 8.67293C20.595 8.36974 20.806 7.73227 21.306 7.71672L26.0564 7.56124L27.6737 3.11448C27.8378 2.64804 28.5019 2.64804 28.6738 3.11448Z" fill="#9E5A35"/>
<path d="M66.1738 3.11448L67.7911 7.56124L72.5415 7.71672C73.0416 7.73227 73.2525 8.36197 72.8541 8.67293L69.1037 11.5727L70.4242 16.1127C70.5648 16.5947 70.0257 16.9834 69.6116 16.7035L65.6816 14.0526L61.7516 16.7035C61.3375 16.9834 60.7984 16.5947 60.939 16.1127L62.2594 11.5727L58.4935 8.67293C58.095 8.36974 58.306 7.73227 58.806 7.71672L63.5564 7.56124L65.1737 3.11448C65.3378 2.64804 66.0019 2.64804 66.1738 3.11448Z" fill="#9E5A35"/>
<path d="M84.9277 3.11448L86.545 7.56124L91.2954 7.71672C91.7955 7.73227 92.0064 8.36197 91.608 8.67293L87.8577 11.5727L89.1781 16.1127C89.3187 16.5947 88.7796 16.9834 88.3655 16.7035L84.4355 14.0526L80.5055 16.7035C80.0914 16.9834 79.5523 16.5947 79.6929 16.1127L81.0133 11.5727L77.2474 8.67293C76.8489 8.36974 77.0599 7.73227 77.5599 7.71672L82.3103 7.56124L83.9276 3.11448C84.0917 2.64804 84.7558 2.64804 84.9277 3.11448Z" fill="#9E5A35" fill-opacity="0.16"/>
</svg>
